<?xml version="1.0" encoding="utf-8" standalone="no"?>
<!DOCTYPE svg PUBLIC "-//W3C//DTD SVG 1.1//EN"
  "http://www.w3.org/Graphics/SVG/1.1/DTD/svg11.dtd">
<svg height="288pt" version="1.1" viewBox="0 0 432 288" width="432pt" xmlns="http://www.w3.org/2000/svg" xmlns:xlink="http://www.w3.org/1999/xlink">
 <metadata>
  <rdf:RDF xmlns:cc="http://creativecommons.org/ns#" xmlns:dc="http://purl.org/dc/elements/1.1/" xmlns:rdf="http://www.w3.org/1999/02/22-rdf-syntax-ns#">
   <cc:Work>
    <dc:type rdf:resource="http://purl.org/dc/dcmitype/StillImage"/>
    <dc:date>2021-07-08T10:33:39.995995</dc:date>
    <dc:format>image/svg+xml</dc:format>
    <dc:creator>
     <cc:Agent>
      <dc:title>Matplotlib v3.4.2, https://matplotlib.org/</dc:title>
     </cc:Agent>
    </dc:creator>
   </cc:Work>
  </rdf:RDF>
 </metadata>
 <defs>
  <style type="text/css">*{stroke-linecap:butt;stroke-linejoin:round;}</style>
 </defs>
 <g id="figure_1">
  <g id="patch_1">
   <path d="M 0 288 
L 432 288 
L 432 0 
L 0 0 
z
" style="fill:none;"/>
  </g>
  <g id="axes_1">
   <g id="patch_2">
    <path d="M 68.175 222.205127 
L 417.427041 222.205127 
L 417.427041 26.8 
L 68.175 26.8 
z
" style="fill:#ffffff;"/>
   </g>
   <g id="matplotlib.axis_1">
    <g id="xtick_1">
     <g id="line2d_1">
      <defs>
       <path d="M 0 0 
L 0 3.5 
" id="m0577832d43" style="stroke:#000000;stroke-width:0.8;"/>
      </defs>
      <g>
       <use style="stroke:#000000;stroke-width:0.8;" x="68.175" xlink:href="#m0577832d43" y="222.205127"/>
      </g>
     </g>
     <g id="text_1">
      <!-- 2014-01-01 -->
      <g transform="translate(49.579197 275.671986)rotate(-45)scale(0.1 -0.1)">
       <defs>
        <path d="M 1228 531 
L 3431 531 
L 3431 0 
L 469 0 
L 469 531 
Q 828 903 1448 1529 
Q 2069 2156 2228 2338 
Q 2531 2678 2651 2914 
Q 2772 3150 2772 3378 
Q 2772 3750 2511 3984 
Q 2250 4219 1831 4219 
Q 1534 4219 1204 4116 
Q 875 4013 500 3803 
L 500 4441 
Q 881 4594 1212 4672 
Q 1544 4750 1819 4750 
Q 2544 4750 2975 4387 
Q 3406 4025 3406 3419 
Q 3406 3131 3298 2873 
Q 3191 2616 2906 2266 
Q 2828 2175 2409 1742 
Q 1991 1309 1228 531 
z
" id="DejaVuSans-32" transform="scale(0.015625)"/>
        <path d="M 2034 4250 
Q 1547 4250 1301 3770 
Q 1056 3291 1056 2328 
Q 1056 1369 1301 889 
Q 1547 409 2034 409 
Q 2525 409 2770 889 
Q 3016 1369 3016 2328 
Q 3016 3291 2770 3770 
Q 2525 4250 2034 4250 
z
M 2034 4750 
Q 2819 4750 3233 4129 
Q 3647 3509 3647 2328 
Q 3647 1150 3233 529 
Q 2819 -91 2034 -91 
Q 1250 -91 836 529 
Q 422 1150 422 2328 
Q 422 3509 836 4129 
Q 1250 4750 2034 4750 
z
" id="DejaVuSans-30" transform="scale(0.015625)"/>
        <path d="M 794 531 
L 1825 531 
L 1825 4091 
L 703 3866 
L 703 4441 
L 1819 4666 
L 2450 4666 
L 2450 531 
L 3481 531 
L 3481 0 
L 794 0 
L 794 531 
z
" id="DejaVuSans-31" transform="scale(0.015625)"/>
        <path d="M 2419 4116 
L 825 1625 
L 2419 1625 
L 2419 4116 
z
M 2253 4666 
L 3047 4666 
L 3047 1625 
L 3713 1625 
L 3713 1100 
L 3047 1100 
L 3047 0 
L 2419 0 
L 2419 1100 
L 313 1100 
L 313 1709 
L 2253 4666 
z
" id="DejaVuSans-34" transform="scale(0.015625)"/>
        <path d="M 313 2009 
L 1997 2009 
L 1997 1497 
L 313 1497 
L 313 2009 
z
" id="DejaVuSans-2d" transform="scale(0.015625)"/>
       </defs>
       <use xlink:href="#DejaVuSans-32"/>
       <use x="63.623047" xlink:href="#DejaVuSans-30"/>
       <use x="127.246094" xlink:href="#DejaVuSans-31"/>
       <use x="190.869141" xlink:href="#DejaVuSans-34"/>
       <use x="254.492188" xlink:href="#DejaVuSans-2d"/>
       <use x="290.576172" xlink:href="#DejaVuSans-30"/>
       <use x="354.199219" xlink:href="#DejaVuSans-31"/>
       <use x="417.822266" xlink:href="#DejaVuSans-2d"/>
       <use x="453.90625" xlink:href="#DejaVuSans-30"/>
       <use x="517.529297" xlink:href="#DejaVuSans-31"/>
      </g>
     </g>
    </g>
    <g id="xtick_2">
     <g id="line2d_2">
      <g>
       <use style="stroke:#000000;stroke-width:0.8;" x="114.631631" xlink:href="#m0577832d43" y="222.205127"/>
      </g>
     </g>
     <g id="text_2">
      <!-- 2015-01-01 -->
      <g transform="translate(96.035827 275.671986)rotate(-45)scale(0.1 -0.1)">
       <defs>
        <path d="M 691 4666 
L 3169 4666 
L 3169 4134 
L 1269 4134 
L 1269 2991 
Q 1406 3038 1543 3061 
Q 1681 3084 1819 3084 
Q 2600 3084 3056 2656 
Q 3513 2228 3513 1497 
Q 3513 744 3044 326 
Q 2575 -91 1722 -91 
Q 1428 -91 1123 -41 
Q 819 9 494 109 
L 494 744 
Q 775 591 1075 516 
Q 1375 441 1709 441 
Q 2250 441 2565 725 
Q 2881 1009 2881 1497 
Q 2881 1984 2565 2268 
Q 2250 2553 1709 2553 
Q 1456 2553 1204 2497 
Q 953 2441 691 2322 
L 691 4666 
z
" id="DejaVuSans-35" transform="scale(0.015625)"/>
       </defs>
       <use xlink:href="#DejaVuSans-32"/>
       <use x="63.623047" xlink:href="#DejaVuSans-30"/>
       <use x="127.246094" xlink:href="#DejaVuSans-31"/>
       <use x="190.869141" xlink:href="#DejaVuSans-35"/>
       <use x="254.492188" xlink:href="#DejaVuSans-2d"/>
       <use x="290.576172" xlink:href="#DejaVuSans-30"/>
       <use x="354.199219" xlink:href="#DejaVuSans-31"/>
       <use x="417.822266" xlink:href="#DejaVuSans-2d"/>
       <use x="453.90625" xlink:href="#DejaVuSans-30"/>
       <use x="517.529297" xlink:href="#DejaVuSans-31"/>
      </g>
     </g>
    </g>
    <g id="xtick_3">
     <g id="line2d_3">
      <g>
       <use style="stroke:#000000;stroke-width:0.8;" x="161.088262" xlink:href="#m0577832d43" y="222.205127"/>
      </g>
     </g>
     <g id="text_3">
      <!-- 2016-01-01 -->
      <g transform="translate(142.492458 275.671986)rotate(-45)scale(0.1 -0.1)">
       <defs>
        <path d="M 2113 2584 
Q 1688 2584 1439 2293 
Q 1191 2003 1191 1497 
Q 1191 994 1439 701 
Q 1688 409 2113 409 
Q 2538 409 2786 701 
Q 3034 994 3034 1497 
Q 3034 2003 2786 2293 
Q 2538 2584 2113 2584 
z
M 3366 4563 
L 3366 3988 
Q 3128 4100 2886 4159 
Q 2644 4219 2406 4219 
Q 1781 4219 1451 3797 
Q 1122 3375 1075 2522 
Q 1259 2794 1537 2939 
Q 1816 3084 2150 3084 
Q 2853 3084 3261 2657 
Q 3669 2231 3669 1497 
Q 3669 778 3244 343 
Q 2819 -91 2113 -91 
Q 1303 -91 875 529 
Q 447 1150 447 2328 
Q 447 3434 972 4092 
Q 1497 4750 2381 4750 
Q 2619 4750 2861 4703 
Q 3103 4656 3366 4563 
z
" id="DejaVuSans-36" transform="scale(0.015625)"/>
       </defs>
       <use xlink:href="#DejaVuSans-32"/>
       <use x="63.623047" xlink:href="#DejaVuSans-30"/>
       <use x="127.246094" xlink:href="#DejaVuSans-31"/>
       <use x="190.869141" xlink:href="#DejaVuSans-36"/>
       <use x="254.492188" xlink:href="#DejaVuSans-2d"/>
       <use x="290.576172" xlink:href="#DejaVuSans-30"/>
       <use x="354.199219" xlink:href="#DejaVuSans-31"/>
       <use x="417.822266" xlink:href="#DejaVuSans-2d"/>
       <use x="453.90625" xlink:href="#DejaVuSans-30"/>
       <use x="517.529297" xlink:href="#DejaVuSans-31"/>
      </g>
     </g>
    </g>
    <g id="xtick_4">
     <g id="line2d_4">
      <g>
       <use style="stroke:#000000;stroke-width:0.8;" x="207.672171" xlink:href="#m0577832d43" y="222.205127"/>
      </g>
     </g>
     <g id="text_4">
      <!-- 2017-01-01 -->
      <g transform="translate(189.076367 275.671986)rotate(-45)scale(0.1 -0.1)">
       <defs>
        <path d="M 525 4666 
L 3525 4666 
L 3525 4397 
L 1831 0 
L 1172 0 
L 2766 4134 
L 525 4134 
L 525 4666 
z
" id="DejaVuSans-37" transform="scale(0.015625)"/>
       </defs>
       <use xlink:href="#DejaVuSans-32"/>
       <use x="63.623047" xlink:href="#DejaVuSans-30"/>
       <use x="127.246094" xlink:href="#DejaVuSans-31"/>
       <use x="190.869141" xlink:href="#DejaVuSans-37"/>
       <use x="254.492188" xlink:href="#DejaVuSans-2d"/>
       <use x="290.576172" xlink:href="#DejaVuSans-30"/>
       <use x="354.199219" xlink:href="#DejaVuSans-31"/>
       <use x="417.822266" xlink:href="#DejaVuSans-2d"/>
       <use x="453.90625" xlink:href="#DejaVuSans-30"/>
       <use x="517.529297" xlink:href="#DejaVuSans-31"/>
      </g>
     </g>
    </g>
    <g id="xtick_5">
     <g id="line2d_5">
      <g>
       <use style="stroke:#000000;stroke-width:0.8;" x="254.128802" xlink:href="#m0577832d43" y="222.205127"/>
      </g>
     </g>
     <g id="text_5">
      <!-- 2018-01-01 -->
      <g transform="translate(235.532998 275.671986)rotate(-45)scale(0.1 -0.1)">
       <defs>
        <path d="M 2034 2216 
Q 1584 2216 1326 1975 
Q 1069 1734 1069 1313 
Q 1069 891 1326 650 
Q 1584 409 2034 409 
Q 2484 409 2743 651 
Q 3003 894 3003 1313 
Q 3003 1734 2745 1975 
Q 2488 2216 2034 2216 
z
M 1403 2484 
Q 997 2584 770 2862 
Q 544 3141 544 3541 
Q 544 4100 942 4425 
Q 1341 4750 2034 4750 
Q 2731 4750 3128 4425 
Q 3525 4100 3525 3541 
Q 3525 3141 3298 2862 
Q 3072 2584 2669 2484 
Q 3125 2378 3379 2068 
Q 3634 1759 3634 1313 
Q 3634 634 3220 271 
Q 2806 -91 2034 -91 
Q 1263 -91 848 271 
Q 434 634 434 1313 
Q 434 1759 690 2068 
Q 947 2378 1403 2484 
z
M 1172 3481 
Q 1172 3119 1398 2916 
Q 1625 2713 2034 2713 
Q 2441 2713 2670 2916 
Q 2900 3119 2900 3481 
Q 2900 3844 2670 4047 
Q 2441 4250 2034 4250 
Q 1625 4250 1398 4047 
Q 1172 3844 1172 3481 
z
" id="DejaVuSans-38" transform="scale(0.015625)"/>
       </defs>
       <use xlink:href="#DejaVuSans-32"/>
       <use x="63.623047" xlink:href="#DejaVuSans-30"/>
       <use x="127.246094" xlink:href="#DejaVuSans-31"/>
       <use x="190.869141" xlink:href="#DejaVuSans-38"/>
       <use x="254.492188" xlink:href="#DejaVuSans-2d"/>
       <use x="290.576172" xlink:href="#DejaVuSans-30"/>
       <use x="354.199219" xlink:href="#DejaVuSans-31"/>
       <use x="417.822266" xlink:href="#DejaVuSans-2d"/>
       <use x="453.90625" xlink:href="#DejaVuSans-30"/>
       <use x="517.529297" xlink:href="#DejaVuSans-31"/>
      </g>
     </g>
    </g>
    <g id="xtick_6">
     <g id="line2d_6">
      <g>
       <use style="stroke:#000000;stroke-width:0.8;" x="300.585432" xlink:href="#m0577832d43" y="222.205127"/>
      </g>
     </g>
     <g id="text_6">
      <!-- 2019-01-01 -->
      <g transform="translate(281.989629 275.671986)rotate(-45)scale(0.1 -0.1)">
       <defs>
        <path d="M 703 97 
L 703 672 
Q 941 559 1184 500 
Q 1428 441 1663 441 
Q 2288 441 2617 861 
Q 2947 1281 2994 2138 
Q 2813 1869 2534 1725 
Q 2256 1581 1919 1581 
Q 1219 1581 811 2004 
Q 403 2428 403 3163 
Q 403 3881 828 4315 
Q 1253 4750 1959 4750 
Q 2769 4750 3195 4129 
Q 3622 3509 3622 2328 
Q 3622 1225 3098 567 
Q 2575 -91 1691 -91 
Q 1453 -91 1209 -44 
Q 966 3 703 97 
z
M 1959 2075 
Q 2384 2075 2632 2365 
Q 2881 2656 2881 3163 
Q 2881 3666 2632 3958 
Q 2384 4250 1959 4250 
Q 1534 4250 1286 3958 
Q 1038 3666 1038 3163 
Q 1038 2656 1286 2365 
Q 1534 2075 1959 2075 
z
" id="DejaVuSans-39" transform="scale(0.015625)"/>
       </defs>
       <use xlink:href="#DejaVuSans-32"/>
       <use x="63.623047" xlink:href="#DejaVuSans-30"/>
       <use x="127.246094" xlink:href="#DejaVuSans-31"/>
       <use x="190.869141" xlink:href="#DejaVuSans-39"/>
       <use x="254.492188" xlink:href="#DejaVuSans-2d"/>
       <use x="290.576172" xlink:href="#DejaVuSans-30"/>
       <use x="354.199219" xlink:href="#DejaVuSans-31"/>
       <use x="417.822266" xlink:href="#DejaVuSans-2d"/>
       <use x="453.90625" xlink:href="#DejaVuSans-30"/>
       <use x="517.529297" xlink:href="#DejaVuSans-31"/>
      </g>
     </g>
    </g>
    <g id="xtick_7">
     <g id="line2d_7">
      <g>
       <use style="stroke:#000000;stroke-width:0.8;" x="347.042063" xlink:href="#m0577832d43" y="222.205127"/>
      </g>
     </g>
     <g id="text_7">
      <!-- 2020-01-01 -->
      <g transform="translate(328.44626 275.671986)rotate(-45)scale(0.1 -0.1)">
       <use xlink:href="#DejaVuSans-32"/>
       <use x="63.623047" xlink:href="#DejaVuSans-30"/>
       <use x="127.246094" xlink:href="#DejaVuSans-32"/>
       <use x="190.869141" xlink:href="#DejaVuSans-30"/>
       <use x="254.492188" xlink:href="#DejaVuSans-2d"/>
       <use x="290.576172" xlink:href="#DejaVuSans-30"/>
       <use x="354.199219" xlink:href="#DejaVuSans-31"/>
       <use x="417.822266" xlink:href="#DejaVuSans-2d"/>
       <use x="453.90625" xlink:href="#DejaVuSans-30"/>
       <use x="517.529297" xlink:href="#DejaVuSans-31"/>
      </g>
     </g>
    </g>
    <g id="xtick_8">
     <g id="line2d_8">
      <g>
       <use style="stroke:#000000;stroke-width:0.8;" x="393.625972" xlink:href="#m0577832d43" y="222.205127"/>
      </g>
     </g>
     <g id="text_8">
      <!-- 2021-01-01 -->
      <g transform="translate(375.030169 275.671986)rotate(-45)scale(0.1 -0.1)">
       <use xlink:href="#DejaVuSans-32"/>
       <use x="63.623047" xlink:href="#DejaVuSans-30"/>
       <use x="127.246094" xlink:href="#DejaVuSans-32"/>
       <use x="190.869141" xlink:href="#DejaVuSans-31"/>
       <use x="254.492188" xlink:href="#DejaVuSans-2d"/>
       <use x="290.576172" xlink:href="#DejaVuSans-30"/>
       <use x="354.199219" xlink:href="#DejaVuSans-31"/>
       <use x="417.822266" xlink:href="#DejaVuSans-2d"/>
       <use x="453.90625" xlink:href="#DejaVuSans-30"/>
       <use x="517.529297" xlink:href="#DejaVuSans-31"/>
      </g>
     </g>
    </g>
   </g>
   <g id="matplotlib.axis_2">
    <g id="ytick_1">
     <g id="line2d_9">
      <defs>
       <path d="M 0 0 
L -3.5 0 
" id="m359106d1e8" style="stroke:#000000;stroke-width:0.8;"/>
      </defs>
      <g>
       <use style="stroke:#000000;stroke-width:0.8;" x="68.175" xlink:href="#m359106d1e8" y="215.770676"/>
      </g>
     </g>
     <g id="text_9">
      <!-- 0 -->
      <g transform="translate(54.8125 219.569894)scale(0.1 -0.1)">
       <use xlink:href="#DejaVuSans-30"/>
      </g>
     </g>
    </g>
    <g id="ytick_2">
     <g id="line2d_10">
      <g>
       <use style="stroke:#000000;stroke-width:0.8;" x="68.175" xlink:href="#m359106d1e8" y="177.976541"/>
      </g>
     </g>
     <g id="text_10">
      <!-- 2000 -->
      <g transform="translate(35.725 181.775759)scale(0.1 -0.1)">
       <use xlink:href="#DejaVuSans-32"/>
       <use x="63.623047" xlink:href="#DejaVuSans-30"/>
       <use x="127.246094" xlink:href="#DejaVuSans-30"/>
       <use x="190.869141" xlink:href="#DejaVuSans-30"/>
      </g>
     </g>
    </g>
    <g id="ytick_3">
     <g id="line2d_11">
      <g>
       <use style="stroke:#000000;stroke-width:0.8;" x="68.175" xlink:href="#m359106d1e8" y="140.182405"/>
      </g>
     </g>
     <g id="text_11">
      <!-- 4000 -->
      <g transform="translate(35.725 143.981624)scale(0.1 -0.1)">
       <use xlink:href="#DejaVuSans-34"/>
       <use x="63.623047" xlink:href="#DejaVuSans-30"/>
       <use x="127.246094" xlink:href="#DejaVuSans-30"/>
       <use x="190.869141" xlink:href="#DejaVuSans-30"/>
      </g>
     </g>
    </g>
    <g id="ytick_4">
     <g id="line2d_12">
      <g>
       <use style="stroke:#000000;stroke-width:0.8;" x="68.175" xlink:href="#m359106d1e8" y="102.38827"/>
      </g>
     </g>
     <g id="text_12">
      <!-- 6000 -->
      <g transform="translate(35.725 106.187489)scale(0.1 -0.1)">
       <use xlink:href="#DejaVuSans-36"/>
       <use x="63.623047" xlink:href="#DejaVuSans-30"/>
       <use x="127.246094" xlink:href="#DejaVuSans-30"/>
       <use x="190.869141" xlink:href="#DejaVuSans-30"/>
      </g>
     </g>
    </g>
    <g id="ytick_5">
     <g id="line2d_13">
      <g>
       <use style="stroke:#000000;stroke-width:0.8;" x="68.175" xlink:href="#m359106d1e8" y="64.594135"/>
      </g>
     </g>
     <g id="text_13">
      <!-- 8000 -->
      <g transform="translate(35.725 68.393354)scale(0.1 -0.1)">
       <use xlink:href="#DejaVuSans-38"/>
       <use x="63.623047" xlink:href="#DejaVuSans-30"/>
       <use x="127.246094" xlink:href="#DejaVuSans-30"/>
       <use x="190.869141" xlink:href="#DejaVuSans-30"/>
      </g>
     </g>
    </g>
    <g id="ytick_6">
     <g id="line2d_14">
      <g>
       <use style="stroke:#000000;stroke-width:0.8;" x="68.175" xlink:href="#m359106d1e8" y="26.8"/>
      </g>
     </g>
     <g id="text_14">
      <!-- 10000 -->
      <g transform="translate(29.3625 30.599219)scale(0.1 -0.1)">
       <use xlink:href="#DejaVuSans-31"/>
       <use x="63.623047" xlink:href="#DejaVuSans-30"/>
       <use x="127.246094" xlink:href="#DejaVuSans-30"/>
       <use x="190.869141" xlink:href="#DejaVuSans-30"/>
       <use x="254.492188" xlink:href="#DejaVuSans-30"/>
      </g>
     </g>
    </g>
    <g id="text_15">
     <!-- Tweets / day -->
     <g transform="translate(22.035 174.256314)rotate(-90)scale(0.16 -0.16)">
      <defs>
       <path d="M -19 4666 
L 3928 4666 
L 3928 4134 
L 2272 4134 
L 2272 0 
L 1638 0 
L 1638 4134 
L -19 4134 
L -19 4666 
z
" id="DejaVuSans-54" transform="scale(0.015625)"/>
       <path d="M 269 3500 
L 844 3500 
L 1563 769 
L 2278 3500 
L 2956 3500 
L 3675 769 
L 4391 3500 
L 4966 3500 
L 4050 0 
L 3372 0 
L 2619 2869 
L 1863 0 
L 1184 0 
L 269 3500 
z
" id="DejaVuSans-77" transform="scale(0.015625)"/>
       <path d="M 3597 1894 
L 3597 1613 
L 953 1613 
Q 991 1019 1311 708 
Q 1631 397 2203 397 
Q 2534 397 2845 478 
Q 3156 559 3463 722 
L 3463 178 
Q 3153 47 2828 -22 
Q 2503 -91 2169 -91 
Q 1331 -91 842 396 
Q 353 884 353 1716 
Q 353 2575 817 3079 
Q 1281 3584 2069 3584 
Q 2775 3584 3186 3129 
Q 3597 2675 3597 1894 
z
M 3022 2063 
Q 3016 2534 2758 2815 
Q 2500 3097 2075 3097 
Q 1594 3097 1305 2825 
Q 1016 2553 972 2059 
L 3022 2063 
z
" id="DejaVuSans-65" transform="scale(0.015625)"/>
       <path d="M 1172 4494 
L 1172 3500 
L 2356 3500 
L 2356 3053 
L 1172 3053 
L 1172 1153 
Q 1172 725 1289 603 
Q 1406 481 1766 481 
L 2356 481 
L 2356 0 
L 1766 0 
Q 1100 0 847 248 
Q 594 497 594 1153 
L 594 3053 
L 172 3053 
L 172 3500 
L 594 3500 
L 594 4494 
L 1172 4494 
z
" id="DejaVuSans-74" transform="scale(0.015625)"/>
       <path d="M 2834 3397 
L 2834 2853 
Q 2591 2978 2328 3040 
Q 2066 3103 1784 3103 
Q 1356 3103 1142 2972 
Q 928 2841 928 2578 
Q 928 2378 1081 2264 
Q 1234 2150 1697 2047 
L 1894 2003 
Q 2506 1872 2764 1633 
Q 3022 1394 3022 966 
Q 3022 478 2636 193 
Q 2250 -91 1575 -91 
Q 1294 -91 989 -36 
Q 684 19 347 128 
L 347 722 
Q 666 556 975 473 
Q 1284 391 1588 391 
Q 1994 391 2212 530 
Q 2431 669 2431 922 
Q 2431 1156 2273 1281 
Q 2116 1406 1581 1522 
L 1381 1569 
Q 847 1681 609 1914 
Q 372 2147 372 2553 
Q 372 3047 722 3315 
Q 1072 3584 1716 3584 
Q 2034 3584 2315 3537 
Q 2597 3491 2834 3397 
z
" id="DejaVuSans-73" transform="scale(0.015625)"/>
       <path id="DejaVuSans-20" transform="scale(0.015625)"/>
       <path d="M 1625 4666 
L 2156 4666 
L 531 -594 
L 0 -594 
L 1625 4666 
z
" id="DejaVuSans-2f" transform="scale(0.015625)"/>
       <path d="M 2906 2969 
L 2906 4863 
L 3481 4863 
L 3481 0 
L 2906 0 
L 2906 525 
Q 2725 213 2448 61 
Q 2172 -91 1784 -91 
Q 1150 -91 751 415 
Q 353 922 353 1747 
Q 353 2572 751 3078 
Q 1150 3584 1784 3584 
Q 2172 3584 2448 3432 
Q 2725 3281 2906 2969 
z
M 947 1747 
Q 947 1113 1208 752 
Q 1469 391 1925 391 
Q 2381 391 2643 752 
Q 2906 1113 2906 1747 
Q 2906 2381 2643 2742 
Q 2381 3103 1925 3103 
Q 1469 3103 1208 2742 
Q 947 2381 947 1747 
z
" id="DejaVuSans-64" transform="scale(0.015625)"/>
       <path d="M 2194 1759 
Q 1497 1759 1228 1600 
Q 959 1441 959 1056 
Q 959 750 1161 570 
Q 1363 391 1709 391 
Q 2188 391 2477 730 
Q 2766 1069 2766 1631 
L 2766 1759 
L 2194 1759 
z
M 3341 1997 
L 3341 0 
L 2766 0 
L 2766 531 
Q 2569 213 2275 61 
Q 1981 -91 1556 -91 
Q 1019 -91 701 211 
Q 384 513 384 1019 
Q 384 1609 779 1909 
Q 1175 2209 1959 2209 
L 2766 2209 
L 2766 2266 
Q 2766 2663 2505 2880 
Q 2244 3097 1772 3097 
Q 1472 3097 1187 3025 
Q 903 2953 641 2809 
L 641 3341 
Q 956 3463 1253 3523 
Q 1550 3584 1831 3584 
Q 2591 3584 2966 3190 
Q 3341 2797 3341 1997 
z
" id="DejaVuSans-61" transform="scale(0.015625)"/>
       <path d="M 2059 -325 
Q 1816 -950 1584 -1140 
Q 1353 -1331 966 -1331 
L 506 -1331 
L 506 -850 
L 844 -850 
Q 1081 -850 1212 -737 
Q 1344 -625 1503 -206 
L 1606 56 
L 191 3500 
L 800 3500 
L 1894 763 
L 2988 3500 
L 3597 3500 
L 2059 -325 
z
" id="DejaVuSans-79" transform="scale(0.015625)"/>
      </defs>
      <use xlink:href="#DejaVuSans-54"/>
      <use x="44.583984" xlink:href="#DejaVuSans-77"/>
      <use x="126.371094" xlink:href="#DejaVuSans-65"/>
      <use x="187.894531" xlink:href="#DejaVuSans-65"/>
      <use x="249.417969" xlink:href="#DejaVuSans-74"/>
      <use x="288.626953" xlink:href="#DejaVuSans-73"/>
      <use x="340.726562" xlink:href="#DejaVuSans-20"/>
      <use x="372.513672" xlink:href="#DejaVuSans-2f"/>
      <use x="406.205078" xlink:href="#DejaVuSans-20"/>
      <use x="437.992188" xlink:href="#DejaVuSans-64"/>
      <use x="501.46875" xlink:href="#DejaVuSans-61"/>
      <use x="562.748047" xlink:href="#DejaVuSans-79"/>
     </g>
    </g>
   </g>
   <g id="line2d_15">
    <path clip-path="url(#pc7a7319137)" d="M 68.047722 215.732882 
L 68.556835 215.052587 
L 68.811392 215.222661 
L 68.938671 211.084203 
L 69.065949 212.218027 
L 69.193228 214.844719 
L 69.320506 214.617955 
L 69.447784 215.373837 
L 69.575063 215.449426 
L 69.82962 212.917219 
L 70.084177 214.636852 
L 70.211455 214.504572 
L 70.466012 215.203764 
L 70.59329 215.090381 
L 70.720569 214.542366 
L 70.847847 214.806925 
L 70.975126 214.655749 
L 71.102404 214.939205 
L 71.229683 214.750234 
L 71.356961 214.976999 
L 71.484239 212.97391 
L 71.738796 214.788028 
L 71.866075 212.97391 
L 71.993353 213.332954 
L 72.120632 215.128175 
L 72.375189 214.71244 
L 72.502467 214.939205 
L 72.757024 214.088837 
L 72.884302 214.25891 
L 73.011581 215.222661 
L 73.266138 214.523469 
L 73.393416 214.636852 
L 73.647973 214.958102 
L 73.775251 213.918763 
L 73.90253 214.976999 
L 74.029808 215.071484 
L 74.157087 214.221116 
L 74.538922 213.994351 
L 74.6662 215.014793 
L 74.793479 214.71244 
L 74.920757 215.03369 
L 75.048036 214.750234 
L 75.175314 214.958102 
L 75.302593 214.71244 
L 75.429871 214.882514 
L 75.55715 214.674646 
L 75.684428 213.786484 
L 76.066263 214.863616 
L 76.193542 213.332954 
L 76.448099 214.863616 
L 76.702656 215.241558 
L 76.829934 212.992807 
L 76.957212 212.84163 
L 77.084491 213.93766 
L 77.211769 212.803836 
L 77.593605 214.769131 
L 77.720883 214.107734 
L 77.97544 214.958102 
L 78.102718 214.731337 
L 78.229997 214.806925 
L 78.357275 215.581705 
L 78.611832 214.939205 
L 78.866389 175.746687 
L 79.120946 213.181777 
L 79.248224 213.29516 
L 79.375503 214.240013 
L 79.502781 212.84163 
L 79.757338 213.862072 
L 80.011895 214.39119 
L 80.139173 214.750234 
L 80.266452 214.674646 
L 80.521009 213.030601 
L 80.648287 213.200675 
L 81.030122 214.958102 
L 81.157401 214.769131 
L 81.284679 213.540822 
L 81.539236 214.71244 
L 81.666515 212.425895 
L 82.04835 214.920308 
L 82.302907 207.682731 
L 82.557464 213.880969 
L 82.684742 214.58016 
L 82.812021 214.428984 
L 82.939299 214.731337 
L 83.066578 213.068395 
L 83.193856 214.504572 
L 83.321134 214.39119 
L 83.448413 214.06994 
L 83.70297 215.468323 
L 83.830248 215.260455 
L 83.957527 214.599058 
L 84.084805 214.750234 
L 84.212084 213.767587 
L 84.339362 214.088837 
L 84.46664 214.107734 
L 84.593919 213.257366 
L 84.721197 214.561263 
L 84.848476 213.635307 
L 84.975754 213.862072 
L 85.230311 213.61641 
L 85.357589 208.778761 
L 85.484868 214.71244 
L 85.612146 214.844719 
L 85.739425 213.29516 
L 86.12126 214.599058 
L 86.248539 214.126631 
L 86.375817 215.298249 
L 86.503095 215.260455 
L 86.757652 214.599058 
L 86.884931 214.051043 
L 87.012209 214.882514 
L 87.139488 214.353396 
L 87.394045 215.071484 
L 87.77588 213.370748 
L 88.030437 214.088837 
L 88.157715 215.128175 
L 88.284994 214.504572 
L 88.412272 215.109278 
L 88.53955 214.447881 
L 88.666829 214.825822 
L 88.794107 214.655749 
L 88.921386 214.240013 
L 89.048664 214.844719 
L 89.303221 213.824278 
L 89.4305 214.202219 
L 89.685056 213.503028 
L 89.939613 214.769131 
L 90.066892 213.654204 
L 90.19417 214.221116 
L 90.321449 212.350306 
L 90.448727 212.803836 
L 90.703284 214.542366 
L 90.957841 215.222661 
L 91.085119 215.03369 
L 91.212398 214.202219 
L 91.339676 214.958102 
L 91.466955 214.750234 
L 91.721511 215.506117 
L 91.84879 215.35494 
L 92.103347 214.636852 
L 92.230625 214.542366 
L 92.357904 211.292071 
L 92.485182 212.444792 
L 92.612461 215.071484 
L 92.739739 215.279352 
L 92.867017 214.71244 
L 92.994296 215.052587 
L 93.248853 213.503028 
L 93.50341 215.109278 
L 93.630688 215.16597 
L 93.885245 214.655749 
L 94.012523 214.523469 
L 94.139802 215.03369 
L 94.26708 213.767587 
L 94.521637 215.203764 
L 95.030751 213.673101 
L 95.285308 215.03369 
L 95.412586 214.939205 
L 95.667143 213.351851 
L 95.794422 214.882514 
L 96.048978 215.052587 
L 96.303535 215.506117 
L 96.685371 215.090381 
L 96.812649 215.090381 
L 96.939928 214.410087 
L 97.067206 215.506117 
L 97.194484 215.241558 
L 97.321763 214.542366 
L 97.449041 214.466778 
L 97.57632 214.750234 
L 97.703598 214.088837 
L 97.958155 215.241558 
L 98.085434 214.995896 
L 98.212712 212.898321 
L 98.33999 214.504572 
L 98.467269 214.561263 
L 98.594547 214.806925 
L 98.721826 182.776396 
L 98.849104 209.969276 
L 98.976383 213.068395 
L 99.103661 213.16288 
L 99.230939 208.91104 
L 99.485496 212.747145 
L 99.612775 213.106189 
L 99.867332 212.539277 
L 99.99461 213.427439 
L 100.249167 211.915674 
L 100.376445 214.372293 
L 100.503724 213.729792 
L 100.631002 195.361843 
L 100.885559 209.742511 
L 101.012838 209.062217 
L 101.140116 212.331409 
L 101.267395 212.671557 
L 101.521951 215.071484 
L 101.64923 207.248098 
L 101.776508 208.608687 
L 101.903787 212.860527 
L 102.031065 213.370748 
L 102.158344 214.372293 
L 102.285622 213.843175 
L 102.412901 215.222661 
L 102.540179 214.617955 
L 102.667457 214.844719 
L 102.794736 213.465233 
L 102.922014 213.446336 
L 103.049293 214.372293 
L 103.176571 214.353396 
L 103.30385 208.58979 
L 103.558406 213.673101 
L 103.685685 210.366114 
L 103.812963 210.592879 
L 103.940242 210.536188 
L 104.194799 214.39119 
L 104.322077 214.315602 
L 104.449356 213.994351 
L 104.576634 212.312512 
L 104.703912 212.293615 
L 104.831191 214.485675 
L 104.958469 214.25891 
L 105.085748 214.523469 
L 105.213026 214.485675 
L 105.594862 213.786484 
L 105.72214 214.561263 
L 105.849418 214.25891 
L 106.103975 215.128175 
L 106.231254 214.315602 
L 106.485811 214.485675 
L 106.613089 213.899866 
L 106.867646 214.693543 
L 107.122203 214.863616 
L 107.504038 213.956557 
L 107.631317 213.918763 
L 107.758595 214.523469 
L 107.885873 214.504572 
L 108.013152 214.315602 
L 108.14043 213.276263 
L 108.394987 213.654204 
L 108.522266 213.314057 
L 108.649544 213.824278 
L 108.776823 215.014793 
L 108.904101 214.599058 
L 109.158658 210.744056 
L 109.285936 212.218027 
L 109.413215 208.684275 
L 109.667772 214.825822 
L 109.79505 214.693543 
L 109.922328 213.635307 
L 110.049607 214.06994 
L 110.176885 210.989718 
L 110.431442 215.052587 
L 110.685999 213.635307 
L 110.940556 214.561263 
L 111.067834 214.523469 
L 111.195113 214.315602 
L 111.322391 215.241558 
L 111.44967 215.241558 
L 111.576948 214.542366 
L 111.704227 214.466778 
L 111.831505 214.806925 
L 112.086062 214.183322 
L 112.340619 215.090381 
L 112.722454 214.428984 
L 112.849733 214.504572 
L 113.231568 215.543911 
L 113.358846 213.899866 
L 113.613403 215.147072 
L 113.86796 215.468323 
L 114.377074 214.504572 
L 114.631631 215.525014 
L 114.758909 214.542366 
L 114.886188 215.279352 
L 115.013466 215.222661 
L 115.140745 214.806925 
L 115.268023 214.882514 
L 115.395301 214.353396 
L 115.777137 214.995896 
L 115.904415 215.203764 
L 116.158972 214.240013 
L 116.286251 214.126631 
L 116.668086 215.298249 
L 116.795364 215.279352 
L 117.049921 214.088837 
L 117.304478 214.372293 
L 117.431756 214.013248 
L 117.686313 215.16597 
L 118.068149 214.107734 
L 118.195427 214.599058 
L 118.322706 214.485675 
L 118.577262 215.35494 
L 118.831819 214.277807 
L 118.959098 210.989718 
L 119.086376 214.25891 
L 119.213655 213.087292 
L 119.468212 214.202219 
L 119.59549 213.257366 
L 119.850047 213.200675 
L 119.977325 207.569348 
L 120.104604 214.806925 
L 120.231882 214.523469 
L 120.359161 215.052587 
L 120.486439 214.71244 
L 120.613717 214.882514 
L 120.740996 214.088837 
L 120.868274 214.032146 
L 120.995553 214.277807 
L 121.122831 213.16288 
L 121.25011 214.920308 
L 121.631945 214.353396 
L 121.886502 214.25891 
L 122.01378 214.636852 
L 122.395616 214.410087 
L 122.522894 214.013248 
L 122.650173 214.032146 
L 122.777451 214.39119 
L 122.904729 213.030601 
L 123.032008 214.863616 
L 123.286565 213.540822 
L 123.795679 214.958102 
L 123.922957 214.882514 
L 124.177514 214.315602 
L 124.304792 214.353396 
L 124.432071 213.597513 
L 124.559349 214.164425 
L 124.686628 214.183322 
L 124.813906 214.39119 
L 125.068463 213.276263 
L 125.195741 211.991262 
L 125.32302 208.306334 
L 125.577577 212.633763 
L 125.704855 212.180233 
L 125.832134 209.04332 
L 126.08669 212.936116 
L 126.213969 211.896777 
L 126.468526 213.786484 
L 126.595804 213.918763 
L 126.97764 211.670012 
L 127.232196 214.447881 
L 127.359475 215.03369 
L 127.486753 214.958102 
L 127.614032 214.06994 
L 127.74131 214.485675 
L 127.868589 214.088837 
L 128.123145 214.410087 
L 128.377702 215.222661 
L 128.504981 214.655749 
L 128.632259 213.332954 
L 128.759538 210.706262 
L 129.141373 215.090381 
L 129.268651 214.863616 
L 129.39593 214.296704 
L 129.523208 212.784939 
L 129.650487 213.843175 
L 129.777765 212.180233 
L 130.032322 214.447881 
L 130.286879 214.466778 
L 130.414157 213.521925 
L 130.541436 213.843175 
L 130.668714 213.446336 
L 130.923271 214.750234 
L 131.05055 214.844719 
L 131.177828 213.880969 
L 131.686942 214.806925 
L 131.81422 214.71244 
L 131.941499 215.392734 
L 132.068777 213.956557 
L 132.196056 213.918763 
L 132.323334 212.406998 
L 132.705169 214.976999 
L 132.832448 214.825822 
L 132.959726 214.939205 
L 133.214283 212.633763 
L 133.341562 212.255821 
L 133.596118 214.372293 
L 133.850675 213.125086 
L 133.977954 212.690454 
L 134.105232 211.594424 
L 134.487068 214.58016 
L 134.614346 214.920308 
L 134.741624 214.126631 
L 134.868903 214.447881 
L 134.996181 213.767587 
L 135.12346 214.674646 
L 135.250738 213.975454 
L 135.505295 215.090381 
L 135.632573 214.296704 
L 135.759852 214.410087 
L 135.88713 212.690454 
L 136.141687 214.655749 
L 136.396244 215.317146 
L 136.523523 214.561263 
L 136.650801 214.636852 
L 136.778079 213.635307 
L 137.032636 213.880969 
L 137.159915 212.803836 
L 137.287193 214.277807 
L 137.414472 214.051043 
L 137.54175 211.499938 
L 137.669029 213.729792 
L 137.796307 213.61641 
L 137.923585 214.013248 
L 138.178142 215.03369 
L 138.559978 214.25891 
L 138.687256 214.71244 
L 138.814534 214.277807 
L 139.069091 214.863616 
L 139.450927 213.181777 
L 139.578205 214.466778 
L 139.705484 214.523469 
L 139.96004 215.147072 
L 140.087319 213.597513 
L 140.214597 214.39119 
L 140.341876 213.578616 
L 140.469154 214.315602 
L 140.596433 214.334499 
L 140.723711 215.222661 
L 140.978268 214.126631 
L 141.232825 215.260455 
L 141.487382 214.277807 
L 141.61466 215.16597 
L 141.741939 215.241558 
L 141.869217 214.939205 
L 141.996496 214.958102 
L 142.123774 214.06994 
L 142.251052 214.844719 
L 142.378331 214.693543 
L 142.505609 215.430529 
L 142.760166 214.183322 
L 142.887445 214.693543 
L 143.014723 214.06994 
L 143.26928 214.636852 
L 143.396558 213.484131 
L 143.778394 214.901411 
L 144.032951 214.693543 
L 144.287507 215.430529 
L 144.669343 214.523469 
L 144.796621 213.805381 
L 145.178457 215.090381 
L 145.433013 215.03369 
L 145.560292 214.25891 
L 145.68757 214.523469 
L 145.814849 214.353396 
L 145.942127 213.521925 
L 146.069406 214.693543 
L 146.196684 214.410087 
L 146.323962 214.58016 
L 146.451241 214.315602 
L 146.705798 212.65266 
L 146.960355 215.109278 
L 147.087633 214.995896 
L 147.214912 214.485675 
L 147.34219 212.19913 
L 147.596747 213.899866 
L 147.851304 214.466778 
L 147.978582 214.806925 
L 148.233139 211.23538 
L 148.360418 212.728248 
L 148.487696 211.027512 
L 148.742253 214.126631 
L 149.124088 212.766042 
L 149.251367 213.370748 
L 149.378645 212.085748 
L 149.505923 212.577071 
L 149.633202 214.240013 
L 149.76048 214.334499 
L 149.887759 211.87788 
L 150.142316 212.955013 
L 150.269594 209.496849 
L 150.524151 214.25891 
L 150.651429 214.39119 
L 151.033265 211.783394 
L 151.160543 211.651115 
L 151.287822 213.710895 
L 151.4151 213.654204 
L 151.542379 211.934571 
L 151.669657 211.972365 
L 151.796935 212.747145 
L 151.924214 212.369204 
L 152.051492 213.314057 
L 152.178771 212.879424 
L 152.306049 214.277807 
L 152.687885 213.597513 
L 152.815163 213.748689 
L 152.942441 213.484131 
L 153.06972 213.484131 
L 153.324277 214.825822 
L 153.451555 213.843175 
L 153.578834 211.55663 
L 153.706112 211.688909 
L 153.83339 210.762953 
L 153.960669 210.914129 
L 154.087947 214.334499 
L 154.342504 212.595968 
L 154.469783 211.575527 
L 154.72434 213.106189 
L 154.851618 213.61641 
L 154.978896 214.995896 
L 155.106175 214.372293 
L 155.233453 212.633763 
L 155.48801 213.691998 
L 155.615289 212.595968 
L 155.742567 213.200675 
L 155.869846 214.617955 
L 155.997124 213.125086 
L 156.124402 192.86743 
L 156.378959 210.687365 
L 156.506238 211.367659 
L 156.633516 211.310968 
L 156.760795 213.238469 
L 157.14263 202.637214 
L 157.269908 207.153613 
L 157.397187 207.002436 
L 157.524465 191.525738 
L 157.779022 209.648026 
L 157.906301 204.489126 
L 158.033579 209.893688 
L 158.160857 207.682731 
L 158.288136 212.104645 
L 158.415414 211.084203 
L 158.669971 214.240013 
L 158.79725 213.408542 
L 158.924528 213.994351 
L 159.051807 212.803836 
L 159.179085 214.051043 
L 159.306363 214.088837 
L 159.433642 215.279352 
L 159.688199 214.06994 
L 159.942756 215.014793 
L 160.070034 214.976999 
L 160.197313 215.317146 
L 160.324591 215.222661 
L 160.451869 215.298249 
L 160.706426 214.617955 
L 160.833705 211.537733 
L 160.960983 214.277807 
L 161.088262 214.542366 
L 161.21554 214.06994 
L 161.342818 214.958102 
L 161.470097 214.466778 
L 161.597375 214.731337 
L 161.851932 213.465233 
L 161.979211 213.314057 
L 162.106489 214.674646 
L 162.233768 214.731337 
L 162.361046 214.58016 
L 162.488324 214.693543 
L 162.615603 214.958102 
L 162.742881 214.428984 
L 162.87016 214.58016 
L 163.124717 215.392734 
L 163.379274 215.109278 
L 163.63383 213.880969 
L 163.761109 213.994351 
L 164.015666 214.674646 
L 164.142944 213.862072 
L 164.270223 214.25891 
L 164.397501 214.051043 
L 164.652058 214.769131 
L 164.906615 214.976999 
L 165.033893 214.107734 
L 165.161172 214.750234 
L 165.28845 214.542366 
L 165.415729 214.561263 
L 165.543007 214.334499 
L 165.797564 215.090381 
L 165.924842 214.788028 
L 166.052121 214.844719 
L 166.306678 214.561263 
L 166.433956 214.976999 
L 166.561235 214.183322 
L 166.688513 214.825822 
L 166.815791 214.599058 
L 167.070348 213.408542 
L 167.197627 214.353396 
L 167.324905 214.410087 
L 167.452184 214.939205 
L 167.579462 214.599058 
L 167.70674 213.559719 
L 167.834019 214.466778 
L 167.961297 213.93766 
L 168.088576 214.25891 
L 168.215854 213.181777 
L 168.343133 214.844719 
L 168.470411 215.014793 
L 168.724968 213.61641 
L 168.852246 214.126631 
L 169.106803 213.93766 
L 169.234082 213.843175 
L 169.488639 212.312512 
L 169.743196 214.296704 
L 169.870474 211.197585 
L 170.125031 214.636852 
L 170.506866 213.219572 
L 170.634145 213.691998 
L 170.761423 213.710895 
L 171.143258 214.655749 
L 171.270537 214.523469 
L 171.397815 214.107734 
L 171.525094 214.145528 
L 172.034207 215.071484 
L 172.161486 214.939205 
L 172.288764 213.181777 
L 172.416043 213.219572 
L 172.797878 214.504572 
L 172.925157 212.236924 
L 173.179713 213.521925 
L 173.306992 213.351851 
L 173.561549 214.58016 
L 173.688827 214.939205 
L 173.943384 213.918763 
L 174.070663 214.296704 
L 174.197941 213.880969 
L 174.325219 214.750234 
L 174.452498 214.183322 
L 174.579776 214.920308 
L 174.707055 214.844719 
L 174.834333 213.408542 
L 174.961612 213.521925 
L 175.08889 213.484131 
L 175.216168 213.200675 
L 175.343447 210.044864 
L 175.598004 214.561263 
L 175.725282 213.994351 
L 175.852561 214.523469 
L 176.107118 213.691998 
L 176.234396 214.013248 
L 176.488953 214.920308 
L 176.616231 214.636852 
L 176.74351 213.767587 
L 177.379902 215.373837 
L 177.50718 214.882514 
L 177.634459 212.690454 
L 177.889016 213.408542 
L 178.270851 214.958102 
L 178.398129 214.410087 
L 178.525408 214.428984 
L 178.652686 213.805381 
L 178.779965 212.52038 
L 178.907243 214.145528 
L 179.034522 214.126631 
L 179.1618 214.334499 
L 179.416357 211.121997 
L 179.670914 214.183322 
L 179.798192 213.805381 
L 180.052749 214.71244 
L 180.307306 213.899866 
L 180.434585 214.06994 
L 180.81642 215.147072 
L 181.070977 214.542366 
L 181.198255 214.693543 
L 181.452812 214.06994 
L 181.580091 214.221116 
L 181.707369 215.109278 
L 181.834647 214.599058 
L 181.961926 214.882514 
L 182.216483 212.123542 
L 182.598318 215.279352 
L 182.852875 214.428984 
L 182.980153 214.542366 
L 183.107432 214.39119 
L 183.361989 214.863616 
L 183.489267 215.16597 
L 183.616546 215.071484 
L 183.743824 214.806925 
L 183.871102 213.786484 
L 184.380216 215.090381 
L 184.634773 214.939205 
L 185.016608 213.767587 
L 185.143887 213.956557 
L 185.398444 215.052587 
L 185.525722 214.844719 
L 185.653001 213.465233 
L 185.780279 214.58016 
L 185.907557 214.107734 
L 186.162114 215.449426 
L 186.54395 214.202219 
L 186.798507 214.693543 
L 186.925785 214.731337 
L 187.180342 215.35494 
L 187.30762 214.447881 
L 187.434899 214.523469 
L 187.689456 212.955013 
L 187.944013 215.222661 
L 188.453126 214.032146 
L 188.580405 213.351851 
L 188.707683 214.372293 
L 188.834962 214.25891 
L 188.96224 215.222661 
L 189.089519 214.599058 
L 189.216797 215.203764 
L 189.344075 214.995896 
L 189.471354 214.561263 
L 189.598632 214.655749 
L 189.725911 215.128175 
L 189.980468 214.731337 
L 190.107746 214.013248 
L 190.362303 214.674646 
L 190.489581 214.788028 
L 190.744138 211.273174 
L 191.635087 215.128175 
L 191.762366 212.803836 
L 192.016923 214.825822 
L 192.144201 214.523469 
L 192.27148 214.542366 
L 192.398758 215.16597 
L 192.526036 214.882514 
L 192.653315 214.145528 
L 192.780593 214.788028 
L 193.03515 214.032146 
L 193.162429 214.145528 
L 193.416985 215.16597 
L 193.544264 214.693543 
L 193.671542 213.767587 
L 193.798821 213.691998 
L 193.926099 212.633763 
L 194.180656 214.750234 
L 194.307935 214.485675 
L 194.562491 211.953468 
L 194.817048 213.351851 
L 194.944327 213.559719 
L 195.198884 214.240013 
L 195.580719 209.591335 
L 195.707997 211.972365 
L 195.962554 210.214938 
L 196.089833 213.125086 
L 196.217111 213.200675 
L 196.34439 213.729792 
L 196.471668 211.065306 
L 196.853503 214.806925 
L 196.980782 214.674646 
L 197.10806 214.372293 
L 197.235339 214.750234 
L 197.489896 213.597513 
L 197.617174 213.540822 
L 197.744452 214.976999 
L 197.871731 214.920308 
L 197.999009 214.428984 
L 198.126288 212.425895 
L 198.253566 206.85126 
L 198.508123 213.446336 
L 198.76268 214.995896 
L 198.889958 213.408542 
L 199.017237 213.93766 
L 199.144515 211.934571 
L 199.399072 214.410087 
L 199.653629 215.298249 
L 199.780908 214.39119 
L 199.908186 214.315602 
L 200.035464 213.805381 
L 200.162743 213.862072 
L 200.290021 210.592879 
L 200.4173 213.29516 
L 200.544578 212.822733 
L 200.926413 215.014793 
L 201.053692 214.051043 
L 201.18097 214.504572 
L 201.308249 214.39119 
L 201.562806 213.805381 
L 201.817363 214.06994 
L 201.944641 213.899866 
L 202.071919 212.350306 
L 202.326476 215.16597 
L 202.453755 213.956557 
L 202.708312 214.731337 
L 202.83559 214.447881 
L 202.962869 214.561263 
L 203.090147 215.128175 
L 203.217425 214.825822 
L 203.344704 213.370748 
L 203.471982 214.769131 
L 203.599261 212.84163 
L 204.108374 215.109278 
L 204.235653 214.428984 
L 204.362931 214.39119 
L 204.617488 214.655749 
L 204.744767 214.561263 
L 204.872045 215.03369 
L 204.999324 214.674646 
L 205.126602 214.655749 
L 205.25388 214.334499 
L 205.381159 212.898321 
L 205.508437 213.011704 
L 205.762994 215.279352 
L 205.890273 215.090381 
L 206.14483 214.126631 
L 206.653943 215.336043 
L 206.781222 215.506117 
L 207.035779 215.35494 
L 207.163057 214.334499 
L 207.290336 215.109278 
L 207.417614 214.901411 
L 207.544892 215.392734 
L 207.672171 215.241558 
L 207.926728 214.202219 
L 208.054006 214.221116 
L 208.181285 214.655749 
L 208.308563 214.39119 
L 208.56312 215.373837 
L 208.817677 214.542366 
L 208.944955 214.599058 
L 209.072234 215.222661 
L 209.326791 214.617955 
L 209.454069 214.693543 
L 209.581347 214.561263 
L 209.708626 214.599058 
L 209.835904 213.521925 
L 209.963183 214.296704 
L 210.090461 214.315602 
L 210.345018 215.35494 
L 210.599575 213.918763 
L 210.854132 215.03369 
L 210.98141 214.428984 
L 211.235967 215.449426 
L 211.363246 214.617955 
L 211.490524 214.788028 
L 211.617802 214.731337 
L 211.745081 214.051043 
L 211.872359 214.296704 
L 211.999638 215.279352 
L 212.254195 214.410087 
L 212.381473 214.844719 
L 212.508752 214.466778 
L 212.63603 214.617955 
L 212.763308 214.466778 
L 212.890587 215.260455 
L 213.272422 214.523469 
L 213.526979 214.410087 
L 213.908814 215.35494 
L 214.29065 213.880969 
L 214.417928 214.145528 
L 214.545207 214.088837 
L 214.799763 215.071484 
L 215.05432 213.880969 
L 215.181599 211.651115 
L 215.308877 214.202219 
L 215.436156 214.183322 
L 215.563434 214.353396 
L 215.690713 211.783394 
L 215.817991 214.693543 
L 215.945269 214.750234 
L 216.072548 214.599058 
L 216.199826 213.011704 
L 216.454383 215.090381 
L 216.581662 215.298249 
L 216.70894 212.97391 
L 216.836219 212.766042 
L 216.963497 213.805381 
L 217.090775 213.578616 
L 217.345332 214.863616 
L 217.472611 215.071484 
L 217.599889 214.636852 
L 217.727168 213.748689 
L 217.854446 214.410087 
L 217.981725 214.296704 
L 218.109003 213.654204 
L 218.236281 214.863616 
L 218.490838 213.61641 
L 218.618117 213.729792 
L 218.745395 214.636852 
L 218.872674 214.202219 
L 219.12723 215.052587 
L 219.254509 214.939205 
L 219.381787 213.994351 
L 219.509066 214.315602 
L 219.636344 213.975454 
L 219.890901 214.183322 
L 220.145458 214.901411 
L 220.272736 214.901411 
L 220.400015 214.051043 
L 220.78185 215.071484 
L 220.909129 214.920308 
L 221.036407 215.336043 
L 221.163686 214.806925 
L 221.290964 212.406998 
L 221.418242 212.747145 
L 221.545521 214.126631 
L 221.672799 213.805381 
L 221.800078 214.051043 
L 221.927356 214.71244 
L 222.054635 213.93766 
L 222.181913 213.918763 
L 222.309191 214.221116 
L 222.43647 213.484131 
L 222.563748 213.767587 
L 222.818305 215.128175 
L 222.945584 214.901411 
L 223.072862 212.06685 
L 223.327419 214.013248 
L 223.454697 214.126631 
L 223.581976 215.35494 
L 223.709254 215.35494 
L 223.836533 214.126631 
L 224.09109 214.599058 
L 224.218368 214.334499 
L 224.345647 214.39119 
L 224.472925 215.16597 
L 224.727482 214.428984 
L 224.85476 214.39119 
L 225.109317 212.955013 
L 225.491152 215.147072 
L 225.745709 213.16288 
L 225.872988 213.29516 
L 226.000266 213.729792 
L 226.127545 214.788028 
L 226.382102 214.844719 
L 226.763937 214.032146 
L 227.018494 210.630673 
L 227.273051 214.561263 
L 227.400329 213.465233 
L 227.527608 214.353396 
L 227.654886 213.843175 
L 227.782164 213.862072 
L 227.909443 214.088837 
L 228.036721 215.128175 
L 228.164 214.466778 
L 228.291278 209.836997 
L 228.545835 212.709351 
L 228.800392 214.466778 
L 228.92767 214.882514 
L 229.054949 214.863616 
L 229.309506 213.710895 
L 229.436784 214.693543 
L 229.564063 214.107734 
L 229.691341 214.164425 
L 229.818619 211.405453 
L 229.945898 213.691998 
L 230.073176 212.728248 
L 230.327733 214.06994 
L 230.455012 213.578616 
L 230.836847 214.976999 
L 230.964125 214.145528 
L 231.091404 214.561263 
L 231.345961 213.824278 
L 231.473239 213.729792 
L 231.727796 214.674646 
L 231.855075 214.06994 
L 231.982353 214.051043 
L 232.23691 214.39119 
L 232.364188 214.410087 
L 232.618745 215.071484 
L 232.873302 213.200675 
L 233.127859 214.013248 
L 233.382416 215.014793 
L 233.509694 214.731337 
L 233.636973 213.673101 
L 233.764251 214.051043 
L 233.89153 213.93766 
L 234.018808 214.088837 
L 234.273365 214.920308 
L 234.400643 209.251187 
L 234.6552 212.728248 
L 234.782479 211.046409 
L 234.909757 212.085748 
L 235.037036 214.39119 
L 235.291592 214.939205 
L 235.546149 210.498394 
L 235.800706 214.410087 
L 235.927985 213.314057 
L 236.182542 214.769131 
L 236.437098 214.107734 
L 236.564377 214.523469 
L 236.691655 214.542366 
L 236.818934 214.769131 
L 236.946212 215.298249 
L 237.073491 215.298249 
L 237.200769 214.315602 
L 237.455326 214.958102 
L 237.582604 214.447881 
L 237.709883 214.693543 
L 237.96444 214.617955 
L 238.091718 213.918763 
L 238.218997 214.447881 
L 238.346275 214.164425 
L 238.473553 214.277807 
L 238.600832 214.844719 
L 238.72811 214.882514 
L 238.855389 215.128175 
L 238.982667 214.504572 
L 239.237224 214.561263 
L 239.364503 214.750234 
L 239.491781 213.559719 
L 239.619059 214.296704 
L 239.746338 187.935295 
L 240.000895 212.218027 
L 240.128173 213.408542 
L 240.255452 213.465233 
L 240.38273 213.899866 
L 240.510008 214.844719 
L 240.891844 213.880969 
L 241.019122 209.175599 
L 241.146401 210.177144 
L 241.273679 213.899866 
L 241.528236 214.504572 
L 241.655514 213.16288 
L 241.782793 213.16288 
L 241.910071 212.992807 
L 242.164628 214.145528 
L 242.291907 214.485675 
L 242.419185 213.824278 
L 242.546464 214.788028 
L 242.673742 214.277807 
L 242.80102 213.29516 
L 242.928299 213.484131 
L 243.182856 214.202219 
L 243.310134 213.559719 
L 243.564691 213.843175 
L 243.691969 213.93766 
L 243.819248 214.25891 
L 243.946526 214.221116 
L 244.073805 215.03369 
L 244.201083 213.918763 
L 244.328362 213.786484 
L 244.45564 212.65266 
L 244.964754 214.769131 
L 245.092032 214.674646 
L 245.219311 214.731337 
L 245.346589 214.334499 
L 245.473868 214.334499 
L 245.728425 212.747145 
L 245.982981 214.750234 
L 246.237538 214.39119 
L 246.364817 214.617955 
L 246.492095 212.97391 
L 246.619374 214.145528 
L 247.001209 213.011704 
L 247.128487 213.691998 
L 247.255766 212.84163 
L 247.383044 209.855894 
L 247.510323 210.422806 
L 247.637601 213.824278 
L 247.76488 213.276263 
L 247.892158 210.668467 
L 248.146715 212.633763 
L 248.273993 212.539277 
L 248.401272 212.898321 
L 248.52855 214.145528 
L 248.910386 212.614865 
L 249.037664 212.331409 
L 249.292221 214.599058 
L 249.419499 214.71244 
L 249.674056 214.315602 
L 249.801335 212.312512 
L 249.928613 213.446336 
L 250.18317 212.633763 
L 250.437727 214.939205 
L 250.565005 213.786484 
L 250.692284 213.729792 
L 250.819562 213.068395 
L 250.946841 213.389645 
L 251.074119 212.218027 
L 251.201397 213.106189 
L 251.328676 212.879424 
L 251.455954 211.896777 
L 251.583233 207.342584 
L 251.710511 210.762953 
L 251.83779 209.23229 
L 252.219625 214.164425 
L 252.346903 214.013248 
L 252.60146 212.955013 
L 252.728739 213.918763 
L 252.856017 213.710895 
L 252.983296 213.824278 
L 253.110574 212.539277 
L 253.237853 214.731337 
L 253.492409 214.25891 
L 253.619688 214.06994 
L 253.746966 214.542366 
L 253.874245 214.372293 
L 254.001523 215.279352 
L 254.510637 214.051043 
L 254.637915 213.786484 
L 254.765194 214.296704 
L 254.892472 211.87788 
L 255.019751 212.65266 
L 255.147029 211.55663 
L 255.274308 211.840086 
L 255.401586 207.304789 
L 255.656143 213.824278 
L 255.783421 214.013248 
L 255.9107 212.955013 
L 256.037978 213.389645 
L 256.165257 212.029056 
L 256.292535 213.748689 
L 256.419814 212.992807 
L 256.67437 214.051043 
L 256.801649 212.860527 
L 256.928927 213.332954 
L 257.056206 211.443247 
L 257.183484 211.972365 
L 257.310763 211.7456 
L 257.438041 210.233835 
L 257.56532 212.860527 
L 257.692598 212.388101 
L 257.819876 213.143983 
L 258.201712 210.914129 
L 258.32899 212.955013 
L 258.456269 209.855894 
L 258.583547 210.479497 
L 258.838104 209.912585 
L 258.965382 212.992807 
L 259.092661 212.425895 
L 259.347218 214.466778 
L 259.474496 212.388101 
L 259.601775 212.747145 
L 259.729053 213.540822 
L 259.856331 212.671557 
L 260.238167 214.769131 
L 260.365445 212.595968 
L 260.492724 212.577071 
L 260.620002 213.446336 
L 261.001837 212.84163 
L 261.129116 213.824278 
L 261.256394 213.93766 
L 261.510951 212.992807 
L 261.63823 213.332954 
L 261.765508 213.030601 
L 261.892786 213.862072 
L 262.020065 213.93766 
L 262.274622 209.270084 
L 262.4019 211.821189 
L 262.656457 212.406998 
L 262.783736 213.503028 
L 262.911014 213.408542 
L 263.038292 212.898321 
L 263.165571 213.503028 
L 263.292849 213.125086 
L 263.420128 213.257366 
L 263.547406 213.578616 
L 263.674685 214.277807 
L 263.929242 212.671557 
L 264.05652 212.218027 
L 264.438355 213.276263 
L 264.565634 213.654204 
L 264.692912 210.668467 
L 264.820191 211.972365 
L 264.947469 211.670012 
L 265.329304 213.446336 
L 265.583861 214.39119 
L 265.71114 214.051043 
L 266.092975 211.216482 
L 266.220253 212.123542 
L 266.347532 214.277807 
L 266.602089 211.896777 
L 266.729367 212.142439 
L 266.856646 209.572438 
L 267.111203 212.180233 
L 267.238481 214.088837 
L 267.493038 212.19913 
L 267.620316 213.087292 
L 267.747595 212.388101 
L 268.002152 212.917219 
L 268.12943 214.523469 
L 268.256709 213.729792 
L 268.383987 211.953468 
L 268.511265 212.501483 
L 268.638544 211.896777 
L 268.765822 213.257366 
L 268.893101 212.482586 
L 269.020379 213.465233 
L 269.147658 210.252732 
L 269.402214 213.351851 
L 269.529493 212.501483 
L 269.656771 213.257366 
L 269.78405 212.312512 
L 270.038607 214.428984 
L 270.165885 212.728248 
L 270.293164 213.824278 
L 270.420442 211.140894 
L 270.802277 214.107734 
L 270.929556 214.088837 
L 271.311391 212.180233 
L 271.43867 211.953468 
L 271.820505 214.221116 
L 271.947783 214.183322 
L 272.075062 213.862072 
L 272.20234 213.087292 
L 272.329619 213.314057 
L 272.456897 212.388101 
L 272.584175 214.06994 
L 272.711454 214.183322 
L 272.966011 212.010159 
L 273.093289 211.821189 
L 273.220568 212.97391 
L 273.347846 211.575527 
L 273.602403 213.276263 
L 273.729681 212.029056 
L 273.85696 209.421261 
L 274.111517 213.125086 
L 274.238795 211.065306 
L 274.366074 213.389645 
L 274.493352 213.597513 
L 274.747909 211.896777 
L 274.875187 211.87788 
L 275.002466 212.085748 
L 275.129744 210.233835 
L 275.257023 213.16288 
L 275.384301 212.19913 
L 275.638858 207.266995 
L 275.893415 212.255821 
L 276.147972 213.276263 
L 276.27525 213.484131 
L 276.529807 208.287437 
L 276.657086 211.764497 
L 276.784364 211.991262 
L 277.038921 213.994351 
L 277.166199 213.975454 
L 277.420756 212.369204 
L 277.548035 212.803836 
L 277.675313 212.331409 
L 277.802592 210.366114 
L 278.057148 213.956557 
L 278.311705 212.047953 
L 278.566262 212.97391 
L 278.693541 212.84163 
L 278.820819 213.521925 
L 278.948098 213.540822 
L 279.075376 213.106189 
L 279.202654 211.688909 
L 279.329933 211.55663 
L 279.58449 212.218027 
L 279.839047 213.862072 
L 279.966325 212.766042 
L 280.220882 213.61641 
L 280.34816 212.955013 
L 280.475439 212.97391 
L 280.602717 213.257366 
L 280.729996 212.728248 
L 280.857274 212.97391 
L 280.984553 213.61641 
L 281.111831 211.632218 
L 281.239109 211.537733 
L 281.366388 209.68582 
L 281.620945 213.918763 
L 281.748223 213.521925 
L 281.875502 205.604053 
L 282.00278 209.515746 
L 282.130059 209.836997 
L 282.257337 205.188318 
L 282.511894 213.29516 
L 282.639172 210.592879 
L 282.893729 212.539277 
L 283.021008 212.406998 
L 283.275564 214.315602 
L 283.402843 212.709351 
L 283.530121 207.871701 
L 283.6574 207.266995 
L 284.039235 211.726703 
L 284.293792 212.671557 
L 284.42107 210.611776 
L 284.675627 176.880511 
L 284.930184 205.774127 
L 285.057463 212.350306 
L 285.184741 211.23538 
L 285.31202 211.216482 
L 285.439298 211.518836 
L 285.566576 210.857438 
L 285.693855 206.756774 
L 285.948412 210.914129 
L 286.07569 212.19913 
L 286.202969 211.707806 
L 286.330247 208.91104 
L 286.584804 211.575527 
L 286.712082 209.270084 
L 287.221196 212.19913 
L 287.475753 210.00707 
L 287.603031 210.233835 
L 287.857588 212.917219 
L 287.984867 207.81501 
L 288.112145 209.496849 
L 288.239424 207.871701 
L 288.366702 210.196041 
L 288.493981 208.230746 
L 288.621259 212.104645 
L 288.748537 212.236924 
L 288.875816 211.197585 
L 289.003094 212.425895 
L 289.257651 209.893688 
L 289.639487 214.296704 
L 289.894043 210.196041 
L 290.021322 209.326776 
L 290.275879 211.651115 
L 290.403157 211.613321 
L 290.530436 212.879424 
L 290.657714 210.744056 
L 290.784992 203.10964 
L 290.912271 205.717436 
L 291.039549 206.000892 
L 291.421385 211.783394 
L 291.675942 209.345673 
L 291.80322 207.663834 
L 291.930498 208.665378 
L 292.185055 212.803836 
L 292.312334 212.709351 
L 292.566891 206.227657 
L 292.821448 212.293615 
L 292.948726 212.236924 
L 293.203283 212.917219 
L 293.330561 212.747145 
L 293.45784 211.613321 
L 293.585118 211.953468 
L 293.712397 211.254277 
L 293.839675 201.69236 
L 294.094232 212.236924 
L 294.22151 211.537733 
L 294.476067 208.816555 
L 294.603346 205.358391 
L 294.857903 210.555085 
L 294.985181 211.953468 
L 295.112459 210.592879 
L 295.239738 210.441703 
L 295.367016 211.953468 
L 295.494295 210.725159 
L 295.87613 213.087292 
L 296.003409 206.492216 
L 296.130687 208.438614 
L 296.257965 207.852804 
L 296.385244 211.670012 
L 296.512522 211.537733 
L 296.639801 212.52038 
L 296.767079 212.010159 
L 296.894358 212.085748 
L 297.148915 212.614865 
L 297.276193 210.158247 
L 297.403471 210.630673 
L 297.53075 212.728248 
L 297.658028 207.909496 
L 297.785307 208.740967 
L 297.912585 207.380378 
L 298.039864 207.852804 
L 298.167142 210.706262 
L 298.29442 209.591335 
L 298.421699 213.484131 
L 298.548977 213.465233 
L 298.676256 210.744056 
L 298.930813 212.936116 
L 299.058091 212.142439 
L 299.312648 214.240013 
L 299.439926 214.145528 
L 299.694483 214.920308 
L 299.94904 214.032146 
L 300.076319 213.673101 
L 300.203597 214.221116 
L 300.458154 210.914129 
L 300.712711 213.61641 
L 300.967268 213.068395 
L 301.221825 214.051043 
L 301.476381 211.537733 
L 301.60366 213.011704 
L 301.730938 211.726703 
L 301.858217 213.257366 
L 301.985495 208.174055 
L 302.112774 208.079569 
L 302.240052 208.457511 
L 302.494609 211.707806 
L 302.749166 211.840086 
L 302.876444 213.805381 
L 303.003723 213.654204 
L 303.131001 212.142439 
L 303.385558 212.879424 
L 303.512837 211.443247 
L 303.767393 212.690454 
L 303.894672 212.52038 
L 304.02195 211.934571 
L 304.149229 211.915674 
L 304.276507 210.271629 
L 304.403786 211.499938 
L 304.531064 210.933026 
L 304.785621 213.559719 
L 304.912899 211.632218 
L 305.040178 211.953468 
L 305.294735 210.725159 
L 305.422013 208.249643 
L 305.67657 213.351851 
L 305.931127 202.59942 
L 306.185684 210.592879 
L 306.312962 210.252732 
L 306.440241 210.64957 
L 306.567519 211.821189 
L 306.694798 211.443247 
L 306.822076 208.003981 
L 307.076633 211.42435 
L 307.203911 209.288982 
L 307.458468 212.255821 
L 307.585747 208.703172 
L 307.713025 208.495305 
L 307.840304 206.662289 
L 308.09486 211.613321 
L 308.222139 211.972365 
L 308.349417 211.953468 
L 308.603974 209.591335 
L 308.858531 205.452877 
L 309.113088 212.293615 
L 309.240366 212.595968 
L 309.494923 208.646481 
L 309.622202 210.309423 
L 309.74948 203.997803 
L 310.004037 209.024423 
L 310.131315 208.438614 
L 310.258594 208.514202 
L 310.385872 207.059128 
L 310.513151 204.054494 
L 310.640429 207.437069 
L 310.767708 207.040231 
L 310.894986 210.044864 
L 311.022265 208.892143 
L 311.276821 203.714347 
L 311.531378 208.344128 
L 311.658657 208.438614 
L 311.785935 207.437069 
L 311.913214 210.385011 
L 312.16777 205.811921 
L 312.295049 206.416627 
L 312.422327 205.547362 
L 312.549606 206.492216 
L 312.676884 209.55354 
L 312.804163 208.778761 
L 312.931441 204.753685 
L 313.05872 205.150524 
L 313.185998 205.944201 
L 313.313276 205.226112 
L 313.440555 206.813466 
L 313.567833 210.857438 
L 313.695112 211.159791 
L 313.949669 209.081114 
L 314.076947 208.967731 
L 314.204226 206.832363 
L 314.586061 211.443247 
L 314.713339 209.515746 
L 314.840618 209.496849 
L 314.967896 209.723614 
L 315.095175 206.832363 
L 315.47701 211.726703 
L 315.731567 208.363025 
L 315.858845 209.874791 
L 315.986124 209.496849 
L 316.113402 208.703172 
L 316.240681 211.084203 
L 316.367959 210.32832 
L 316.495237 204.923759 
L 316.749794 207.512657 
L 316.877073 203.260817 
L 317.13163 211.651115 
L 317.258908 212.614865 
L 317.386187 210.555085 
L 317.513465 210.32832 
L 317.640743 206.435524 
L 317.768022 207.607143 
L 317.8953 204.640303 
L 318.022579 209.005526 
L 318.149857 203.960008 
L 318.277136 204.810377 
L 318.404414 208.400819 
L 318.658971 204.262362 
L 318.786249 208.533099 
L 318.913528 207.663834 
L 319.040806 203.771038 
L 319.168085 207.871701 
L 319.295363 207.153613 
L 319.422642 207.663834 
L 319.54992 209.68582 
L 319.677198 203.676552 
L 319.931755 211.084203 
L 320.186312 208.476408 
L 320.313591 201.125448 
L 320.695426 210.309423 
L 320.822704 210.630673 
L 320.949983 205.585156 
L 321.20454 208.533099 
L 321.331818 208.759864 
L 321.459097 209.629129 
L 321.586375 209.100011 
L 321.713654 211.858983 
L 321.96821 208.797658 
L 322.222767 205.056038 
L 322.604603 211.726703 
L 323.113716 199.689271 
L 323.240995 205.963098 
L 323.368273 205.75523 
L 323.495552 209.610232 
L 323.62283 208.91104 
L 323.877387 195.909858 
L 324.004665 196.854711 
L 324.131944 198.895594 
L 324.386501 209.591335 
L 324.641058 197.89405 
L 325.022893 209.836997 
L 325.27745 212.19913 
L 325.532007 207.796113 
L 325.659285 208.533099 
L 325.786564 210.290526 
L 325.913842 208.627584 
L 326.168399 210.895232 
L 326.295677 208.26854 
L 326.422956 203.260817 
L 326.550234 204.753685 
L 326.677513 207.94729 
L 326.804791 205.698539 
L 326.93207 211.216482 
L 327.186626 206.454421 
L 327.313905 206.964642 
L 327.441183 206.548907 
L 327.568462 209.515746 
L 327.69574 209.572438 
L 327.950297 212.331409 
L 328.077576 207.342584 
L 328.204854 208.816555 
L 328.332132 206.813466 
L 328.586689 206.794569 
L 328.713968 210.517291 
L 328.841246 210.970821 
L 329.095803 206.322142 
L 329.223082 208.797658 
L 329.35036 205.056038 
L 329.732195 211.481041 
L 329.986752 208.26854 
L 330.114031 209.855894 
L 330.241309 204.923759 
L 330.368587 207.777216 
L 330.495866 204.810377 
L 330.623144 209.591335 
L 330.750423 206.359936 
L 330.877701 199.538095 
L 331.00498 208.363025 
L 331.132258 204.564715 
L 331.259537 207.852804 
L 331.386815 203.808832 
L 331.514093 208.91104 
L 331.76865 206.794569 
L 331.895929 201.18214 
L 332.150486 209.591335 
L 332.277764 209.440158 
L 332.532321 204.20567 
L 332.786878 207.607143 
L 332.914156 204.753685 
L 333.168713 209.383467 
L 333.295992 209.36457 
L 333.42327 204.508023 
L 333.550549 187.179412 
L 333.805105 199.689271 
L 333.932384 190.958826 
L 334.059662 172.893229 
L 334.186941 196.571255 
L 334.314219 194.73824 
L 334.568776 150.991528 
L 334.696054 192.640665 
L 334.823333 193.793386 
L 335.07789 203.525376 
L 335.332447 201.352213 
L 335.587004 204.092288 
L 335.714282 203.88442 
L 335.84156 207.94729 
L 335.968839 208.363025 
L 336.096117 203.808832 
L 336.223396 204.545818 
L 336.350674 198.328682 
L 336.605231 203.525376 
L 336.73251 202.750596 
L 336.859788 208.892143 
L 336.987066 206.189862 
L 337.114345 195.324049 
L 337.368902 204.829274 
L 337.49618 205.245009 
L 337.750737 208.363025 
L 338.259851 199.745962 
L 338.387129 198.649932 
L 338.514408 201.560081 
L 338.641686 208.117363 
L 338.768965 206.378833 
L 339.1508 187.06603 
L 339.278078 189.012428 
L 339.532635 204.791479 
L 339.659914 199.065668 
L 339.914471 204.640303 
L 340.041749 201.144345 
L 340.169027 202.882876 
L 340.296306 207.191407 
L 340.550863 205.245009 
L 340.678141 205.811921 
L 340.80542 205.698539 
L 340.932698 206.133171 
L 341.059976 201.465596 
L 341.187255 202.59942 
L 341.314533 204.923759 
L 341.441812 177.088378 
L 341.56909 181.151248 
L 341.823647 199.878242 
L 341.950926 199.405815 
L 342.078204 203.978906 
L 342.205482 203.733244 
L 342.460039 197.497211 
L 342.587318 199.216845 
L 342.714596 198.782212 
L 342.841875 201.030963 
L 342.969153 208.797658 
L 343.096432 206.85126 
L 343.22371 86.684807 
L 343.478267 180.149703 
L 343.605545 185.667647 
L 343.732824 184.817279 
L 343.860102 193.906769 
L 343.987381 194.568166 
L 344.114659 199.481403 
L 344.241938 195.834269 
L 344.369216 184.628308 
L 344.623773 203.090743 
L 344.751051 204.545818 
L 344.87833 196.193314 
L 345.514722 205.377289 
L 345.769279 210.101555 
L 345.896557 211.23538 
L 346.023836 210.366114 
L 346.151114 210.876335 
L 346.405671 208.703172 
L 346.532949 210.120453 
L 346.660228 207.002436 
L 346.787506 207.248098 
L 346.914785 209.213393 
L 347.042063 209.175599 
L 347.29662 176.426981 
L 347.423899 207.644937 
L 347.551177 208.438614 
L 347.678455 206.53001 
L 347.805734 206.681186 
L 347.933012 203.714347 
L 348.187569 182.398454 
L 348.314848 204.678097 
L 348.442126 204.470229 
L 348.569404 191.979268 
L 348.696683 200.426257 
L 348.823961 193.925666 
L 348.95124 197.157064 
L 349.078518 195.475225 
L 349.333075 203.24192 
L 349.587632 195.985446 
L 349.71491 191.695812 
L 349.842189 194.341401 
L 349.969467 188.899046 
L 350.096746 201.465596 
L 350.224024 195.399637 
L 350.351303 200.841992 
L 350.478581 195.815372 
L 350.60586 196.684637 
L 350.987695 206.435524 
L 351.114973 205.566259 
L 351.36953 199.821551 
L 351.496809 192.640665 
L 351.624087 194.039048 
L 351.751366 194.020151 
L 351.878644 198.253094 
L 352.005922 191.790297 
L 352.260479 202.126993 
L 352.387758 187.19831 
L 352.515036 186.177868 
L 352.769593 197.89405 
L 352.896871 202.070302 
L 353.02415 197.742873 
L 353.151428 186.669192 
L 353.405985 198.253094 
L 353.533264 194.624857 
L 353.660542 194.757137 
L 353.787821 200.180595 
L 353.915099 195.38074 
L 354.042377 201.106551 
L 354.296934 198.234197 
L 354.424213 198.347579 
L 354.67877 205.471774 
L 354.806048 201.635669 
L 354.933327 201.295522 
L 355.060605 196.174417 
L 355.315162 203.771038 
L 355.569719 207.248098 
L 355.696997 203.10964 
L 355.824276 187.670736 
L 356.206111 208.155157 
L 356.460668 211.7456 
L 356.587946 211.688909 
L 356.715225 210.78185 
L 356.842503 212.425895 
L 356.969782 212.406998 
L 357.09706 211.764497 
L 357.224338 213.106189 
L 357.351617 211.575527 
L 357.478895 211.821189 
L 357.606174 211.821189 
L 357.860731 211.121997 
L 357.988009 211.915674 
L 358.115288 210.00707 
L 358.242566 212.955013 
L 358.369844 211.273174 
L 358.497123 213.351851 
L 358.624401 210.630673 
L 358.75168 211.254277 
L 358.878958 211.121997 
L 359.006237 213.408542 
L 359.133515 213.503028 
L 359.260793 211.651115 
L 359.51535 212.312512 
L 359.642629 210.025967 
L 359.897186 213.578616 
L 360.024464 212.65266 
L 360.151743 212.614865 
L 360.406299 210.13935 
L 360.533578 209.648026 
L 360.660856 208.26854 
L 360.788135 182.379557 
L 360.915413 209.062217 
L 361.042692 211.386556 
L 361.16997 209.629129 
L 361.297249 198.612138 
L 361.424527 206.567804 
L 361.551805 207.248098 
L 361.679084 200.08611 
L 361.806362 208.986628 
L 361.933641 209.307879 
L 362.060919 209.194496 
L 362.315476 207.380378 
L 362.570033 212.350306 
L 362.697311 211.197585 
L 362.82459 203.808832 
L 362.951868 203.638758 
L 363.079147 207.94729 
L 363.206425 201.408904 
L 363.333704 208.174055 
L 363.460982 204.262362 
L 363.58826 211.065306 
L 363.715539 202.996258 
L 363.842817 207.966187 
L 363.970096 206.605598 
L 364.097374 209.591335 
L 364.224653 208.363025 
L 364.351931 210.233835 
L 364.861045 203.468685 
L 364.988323 207.49376 
L 365.115602 207.701628 
L 365.24288 211.670012 
L 365.370159 211.121997 
L 365.624716 208.155157 
L 365.751994 197.931844 
L 365.879272 206.511113 
L 366.006551 204.451332 
L 366.261108 212.06685 
L 366.515665 206.038686 
L 366.642943 176.899408 
L 366.770221 204.810377 
L 366.8975 192.035959 
L 367.152057 207.796113 
L 367.279335 198.933389 
L 367.406614 204.035597 
L 367.533892 204.035597 
L 367.788449 210.64957 
L 367.915727 208.892143 
L 368.043006 210.025967 
L 368.170284 204.848171 
L 368.297563 206.057583 
L 368.55212 203.071846 
L 368.806677 207.928393 
L 368.933955 207.720525 
L 369.061233 201.04986 
L 369.188512 204.810377 
L 369.443069 198.593241 
L 369.570347 201.106551 
L 369.697626 207.890599 
L 369.824904 206.246554 
L 369.952182 193.850077 
L 370.079461 199.783757 
L 370.206739 199.651477 
L 370.334018 198.876697 
L 370.588575 209.818099 
L 370.715853 209.137805 
L 370.843132 207.720525 
L 370.97041 193.887871 
L 371.097688 198.612138 
L 371.224967 195.05949 
L 371.479524 207.323687 
L 371.606802 209.383467 
L 371.988638 199.878242 
L 372.370473 209.307879 
L 372.497751 208.476408 
L 372.62503 208.929937 
L 372.879587 203.657655 
L 373.006865 202.901773 
L 373.134144 203.846626 
L 373.261422 210.366114 
L 373.3887 209.68582 
L 373.515979 200.180595 
L 373.897814 207.474863 
L 374.025093 199.783757 
L 374.279649 208.608687 
L 374.534206 202.807287 
L 374.916042 208.740967 
L 375.04332 208.363025 
L 375.170599 206.870157 
L 375.297877 207.248098 
L 375.425155 203.034052 
L 375.806991 206.53001 
L 375.934269 209.818099 
L 376.188826 206.133171 
L 376.443383 208.948834 
L 376.570661 205.774127 
L 376.69794 206.246554 
L 376.825218 209.440158 
L 376.952497 208.58979 
L 377.079775 206.964642 
L 377.207054 201.125448 
L 377.334332 207.928393 
L 377.46161 205.226112 
L 377.588889 187.538457 
L 377.843446 208.325231 
L 377.970724 203.789935 
L 378.098003 204.904862 
L 378.225281 195.626402 
L 378.35256 198.801109 
L 378.479838 198.952286 
L 378.734395 209.137805 
L 378.988952 200.766404 
L 379.11623 199.764859 
L 379.370787 203.336405 
L 379.498066 204.867068 
L 379.625344 204.470229 
L 379.752622 205.074935 
L 379.879901 203.752141 
L 380.261736 197.327138 
L 380.389015 205.3017 
L 380.516293 203.374199 
L 380.643572 199.708168 
L 380.77085 200.615228 
L 381.025407 187.595148 
L 381.279964 204.715891 
L 381.534521 203.260817 
L 381.661799 203.978906 
L 381.789077 200.974272 
L 381.916356 200.898684 
L 382.170913 204.6592 
L 382.298191 206.265451 
L 382.42547 200.917581 
L 382.552748 189.276987 
L 382.680027 199.141256 
L 382.934583 199.991624 
L 383.061862 205.641848 
L 383.316419 202.070302 
L 383.443697 193.868974 
L 383.570976 154.07175 
L 383.698254 202.580523 
L 384.080089 209.55354 
L 384.207368 201.730155 
L 384.334646 164.635211 
L 384.589203 185.875515 
L 384.716482 189.862796 
L 384.971038 205.226112 
L 385.098317 204.281259 
L 385.225595 204.375744 
L 385.352874 194.643754 
L 385.480152 193.755592 
L 385.734709 205.377289 
L 385.861988 205.037141 
L 385.989266 191.544635 
L 386.116544 195.286254 
L 386.243823 203.487582 
L 386.371101 198.366476 
L 386.752937 208.400819 
L 386.880215 201.975816 
L 387.007494 201.352213 
L 387.134772 201.635669 
L 387.26205 196.930299 
L 387.389329 197.062579 
L 387.643886 207.418172 
L 387.771164 194.870519 
L 387.898443 196.287799 
L 388.152999 202.372655 
L 388.280278 200.426257 
L 388.407556 203.846626 
L 388.662113 198.612138 
L 388.789392 202.202581 
L 388.91667 200.577433 
L 389.043949 203.714347 
L 389.171227 203.24192 
L 389.298505 206.832363 
L 389.553062 201.862434 
L 389.680341 202.013611 
L 389.807619 201.484493 
L 389.934898 193.302062 
L 390.062176 196.004343 
L 390.189455 205.452877 
L 390.316733 204.942656 
L 390.444011 198.328682 
L 390.57129 198.045226 
L 390.698568 188.237648 
L 390.953125 200.237286 
L 391.080404 189.636031 
L 391.207682 199.878242 
L 391.334961 197.100373 
L 391.462239 190.864341 
L 391.589517 197.043682 
L 391.716796 197.402726 
L 391.971353 205.547362 
L 392.098631 204.602509 
L 392.353188 200.331772 
L 392.480466 203.676552 
L 392.735023 212.19913 
L 392.862302 209.912585 
L 392.98958 209.629129 
L 393.116859 206.189862 
L 393.244137 207.644937 
L 393.371416 207.777216 
L 393.498694 209.04332 
L 393.625972 212.06685 
L 394.007808 202.032508 
L 394.135086 205.793024 
L 394.262365 186.42353 
L 394.389643 200.350669 
L 394.516922 197.516108 
L 394.771478 208.665378 
L 394.898757 194.020151 
L 395.026035 196.231108 
L 395.153314 91.994883 
L 395.407871 198.120815 
L 395.535149 206.284348 
L 395.662427 204.243464 
L 395.916984 194.114636 
L 396.044263 203.10964 
L 396.171541 200.501845 
L 396.29882 190.618679 
L 396.553377 204.602509 
L 396.680655 177.447423 
L 396.935212 195.853166 
L 397.189769 189.673825 
L 397.317047 192.470591 
L 397.444326 200.993169 
L 397.571604 193.453239 
L 397.698883 194.133533 
L 397.826161 196.325593 
L 397.953439 190.807649 
L 398.207996 200.879786 
L 398.335275 201.465596 
L 398.589832 176.124628 
L 398.71711 193.755592 
L 398.844388 192.791842 
L 398.971667 188.351031 
L 399.226224 206.152068 
L 399.608059 194.700445 
L 399.735338 195.040593 
L 399.862616 198.706624 
L 399.989894 205.944201 
L 400.244451 199.972727 
L 400.37173 199.708168 
L 400.499008 195.494122 
L 400.753565 197.799564 
L 401.008122 205.377289 
L 401.389957 196.457873 
L 401.517236 200.577433 
L 401.644514 150.405719 
L 401.771793 197.89405 
L 401.899071 194.473681 
L 402.02635 196.816917 
L 402.280906 182.190587 
L 402.535463 194.92721 
L 402.79002 201.201037 
L 402.917299 196.949196 
L 403.171855 177.239555 
L 403.680969 202.334861 
L 403.808248 156.774031 
L 403.935526 183.607867 
L 404.062805 182.436249 
L 404.317361 191.298973 
L 404.44464 200.27508 
L 404.571918 199.651477 
L 404.699197 191.31787 
L 404.826475 193.925666 
L 404.953754 193.283165 
L 405.081032 183.607867 
L 405.335589 203.317508 
L 405.590146 199.519198 
L 405.717424 171.834994 
L 405.844703 184.533823 
L 405.971981 157.492119 
L 406.226538 190.864341 
L 406.353816 195.56971 
L 406.608373 184.590514 
L 406.735652 181.359116 
L 406.86293 185.346397 
L 406.990209 184.080293 
L 407.117487 200.482948 
L 407.244766 195.002798 
L 407.372044 172.912126 
L 407.499322 174.669554 
L 407.626601 171.230287 
L 407.753879 128.447326 
L 408.008436 189.295884 
L 408.135715 193.906769 
L 408.262993 182.965366 
L 408.390272 183.362205 
L 408.51755 190.958826 
L 408.644828 184.911764 
L 408.772107 187.859707 
L 409.026664 200.558536 
L 409.281221 184.571617 
L 409.408499 181.944925 
L 409.535778 153.315867 
L 409.663056 165.277711 
L 409.917613 192.300518 
L 410.044891 182.511837 
L 410.17217 182.606322 
L 410.299448 171.759405 
L 410.554005 180.792204 
L 410.681283 199.991624 
L 410.808562 201.994713 
L 411.063119 182.190587 
L 411.190397 177.46632 
L 411.444954 189.636031 
L 411.572233 192.678459 
L 411.699511 200.993169 
L 411.954068 187.160515 
L 412.081346 169.132713 
L 412.208625 184.892867 
L 412.335903 179.563894 
L 412.59046 200.501845 
L 412.717739 185.270809 
L 412.845017 190.316326 
L 412.972295 190.467502 
L 413.099574 186.234559 
L 413.481409 198.612138 
L 413.608688 190.99662 
L 413.735966 150.424616 
L 413.990523 183.305514 
L 414.117801 183.45669 
L 414.24508 189.050222 
L 414.372358 188.766766 
L 414.499637 190.448605 
L 414.626915 189.843899 
L 414.754194 187.236104 
L 414.881472 171.589332 
L 415.136029 196.627946 
L 415.263307 198.498756 
L 415.390586 179.393821 
L 415.517864 189.088016 
L 415.645143 188.067575 
L 415.8997 178.259997 
L 416.026978 153.315867 
L 416.154256 189.069119 
L 416.281535 191.903679 
L 416.536092 186.026691 
L 416.66337 166.052491 
L 416.917927 194.001254 
L 417.045205 198.53655 
L 417.172484 195.531916 
L 417.299762 187.330589 
L 417.299762 187.330589 
" style="fill:none;stroke:#7fbf7b;stroke-linecap:square;"/>
   </g>
   <g id="patch_3">
    <path d="M 68.175 222.205127 
L 68.175 26.8 
" style="fill:none;stroke:#000000;stroke-linecap:square;stroke-linejoin:miter;stroke-width:0.8;"/>
   </g>
   <g id="patch_4">
    <path d="M 68.175 222.205127 
L 417.427041 222.205127 
" style="fill:none;stroke:#000000;stroke-linecap:square;stroke-linejoin:miter;stroke-width:0.8;"/>
   </g>
   <g id="patch_5">
    <path d="M 272.952642 161.492788 
Q 278.988311 167.028696 283.033351 173.433663 
" style="fill:none;stroke:#000000;stroke-linecap:round;"/>
    <path d="M 282.588457 168.983712 
L 283.033351 173.433663 
L 279.206454 171.119607 
" style="fill:none;stroke:#000000;stroke-linecap:round;"/>
   </g>
   <g id="text_16">
    <!-- France's environmental activist Hulot -->
    <g transform="translate(154.675627 144.889021)scale(0.1 -0.1)">
     <defs>
      <path d="M 628 4666 
L 3309 4666 
L 3309 4134 
L 1259 4134 
L 1259 2759 
L 3109 2759 
L 3109 2228 
L 1259 2228 
L 1259 0 
L 628 0 
L 628 4666 
z
" id="DejaVuSans-46" transform="scale(0.015625)"/>
      <path d="M 2631 2963 
Q 2534 3019 2420 3045 
Q 2306 3072 2169 3072 
Q 1681 3072 1420 2755 
Q 1159 2438 1159 1844 
L 1159 0 
L 581 0 
L 581 3500 
L 1159 3500 
L 1159 2956 
Q 1341 3275 1631 3429 
Q 1922 3584 2338 3584 
Q 2397 3584 2469 3576 
Q 2541 3569 2628 3553 
L 2631 2963 
z
" id="DejaVuSans-72" transform="scale(0.015625)"/>
      <path d="M 3513 2113 
L 3513 0 
L 2938 0 
L 2938 2094 
Q 2938 2591 2744 2837 
Q 2550 3084 2163 3084 
Q 1697 3084 1428 2787 
Q 1159 2491 1159 1978 
L 1159 0 
L 581 0 
L 581 3500 
L 1159 3500 
L 1159 2956 
Q 1366 3272 1645 3428 
Q 1925 3584 2291 3584 
Q 2894 3584 3203 3211 
Q 3513 2838 3513 2113 
z
" id="DejaVuSans-6e" transform="scale(0.015625)"/>
      <path d="M 3122 3366 
L 3122 2828 
Q 2878 2963 2633 3030 
Q 2388 3097 2138 3097 
Q 1578 3097 1268 2742 
Q 959 2388 959 1747 
Q 959 1106 1268 751 
Q 1578 397 2138 397 
Q 2388 397 2633 464 
Q 2878 531 3122 666 
L 3122 134 
Q 2881 22 2623 -34 
Q 2366 -91 2075 -91 
Q 1284 -91 818 406 
Q 353 903 353 1747 
Q 353 2603 823 3093 
Q 1294 3584 2113 3584 
Q 2378 3584 2631 3529 
Q 2884 3475 3122 3366 
z
" id="DejaVuSans-63" transform="scale(0.015625)"/>
      <path d="M 1147 4666 
L 1147 2931 
L 616 2931 
L 616 4666 
L 1147 4666 
z
" id="DejaVuSans-27" transform="scale(0.015625)"/>
      <path d="M 191 3500 
L 800 3500 
L 1894 563 
L 2988 3500 
L 3597 3500 
L 2284 0 
L 1503 0 
L 191 3500 
z
" id="DejaVuSans-76" transform="scale(0.015625)"/>
      <path d="M 603 3500 
L 1178 3500 
L 1178 0 
L 603 0 
L 603 3500 
z
M 603 4863 
L 1178 4863 
L 1178 4134 
L 603 4134 
L 603 4863 
z
" id="DejaVuSans-69" transform="scale(0.015625)"/>
      <path d="M 1959 3097 
Q 1497 3097 1228 2736 
Q 959 2375 959 1747 
Q 959 1119 1226 758 
Q 1494 397 1959 397 
Q 2419 397 2687 759 
Q 2956 1122 2956 1747 
Q 2956 2369 2687 2733 
Q 2419 3097 1959 3097 
z
M 1959 3584 
Q 2709 3584 3137 3096 
Q 3566 2609 3566 1747 
Q 3566 888 3137 398 
Q 2709 -91 1959 -91 
Q 1206 -91 779 398 
Q 353 888 353 1747 
Q 353 2609 779 3096 
Q 1206 3584 1959 3584 
z
" id="DejaVuSans-6f" transform="scale(0.015625)"/>
      <path d="M 3328 2828 
Q 3544 3216 3844 3400 
Q 4144 3584 4550 3584 
Q 5097 3584 5394 3201 
Q 5691 2819 5691 2113 
L 5691 0 
L 5113 0 
L 5113 2094 
Q 5113 2597 4934 2840 
Q 4756 3084 4391 3084 
Q 3944 3084 3684 2787 
Q 3425 2491 3425 1978 
L 3425 0 
L 2847 0 
L 2847 2094 
Q 2847 2600 2669 2842 
Q 2491 3084 2119 3084 
Q 1678 3084 1418 2786 
Q 1159 2488 1159 1978 
L 1159 0 
L 581 0 
L 581 3500 
L 1159 3500 
L 1159 2956 
Q 1356 3278 1631 3431 
Q 1906 3584 2284 3584 
Q 2666 3584 2933 3390 
Q 3200 3197 3328 2828 
z
" id="DejaVuSans-6d" transform="scale(0.015625)"/>
      <path d="M 603 4863 
L 1178 4863 
L 1178 0 
L 603 0 
L 603 4863 
z
" id="DejaVuSans-6c" transform="scale(0.015625)"/>
      <path d="M 628 4666 
L 1259 4666 
L 1259 2753 
L 3553 2753 
L 3553 4666 
L 4184 4666 
L 4184 0 
L 3553 0 
L 3553 2222 
L 1259 2222 
L 1259 0 
L 628 0 
L 628 4666 
z
" id="DejaVuSans-48" transform="scale(0.015625)"/>
      <path d="M 544 1381 
L 544 3500 
L 1119 3500 
L 1119 1403 
Q 1119 906 1312 657 
Q 1506 409 1894 409 
Q 2359 409 2629 706 
Q 2900 1003 2900 1516 
L 2900 3500 
L 3475 3500 
L 3475 0 
L 2900 0 
L 2900 538 
Q 2691 219 2414 64 
Q 2138 -91 1772 -91 
Q 1169 -91 856 284 
Q 544 659 544 1381 
z
M 1991 3584 
L 1991 3584 
z
" id="DejaVuSans-75" transform="scale(0.015625)"/>
     </defs>
     <use xlink:href="#DejaVuSans-46"/>
     <use x="50.269531" xlink:href="#DejaVuSans-72"/>
     <use x="91.382812" xlink:href="#DejaVuSans-61"/>
     <use x="152.662109" xlink:href="#DejaVuSans-6e"/>
     <use x="216.041016" xlink:href="#DejaVuSans-63"/>
     <use x="271.021484" xlink:href="#DejaVuSans-65"/>
     <use x="332.544922" xlink:href="#DejaVuSans-27"/>
     <use x="360.035156" xlink:href="#DejaVuSans-73"/>
     <use x="412.134766" xlink:href="#DejaVuSans-20"/>
     <use x="443.921875" xlink:href="#DejaVuSans-65"/>
     <use x="505.445312" xlink:href="#DejaVuSans-6e"/>
     <use x="568.824219" xlink:href="#DejaVuSans-76"/>
     <use x="628.003906" xlink:href="#DejaVuSans-69"/>
     <use x="655.787109" xlink:href="#DejaVuSans-72"/>
     <use x="694.650391" xlink:href="#DejaVuSans-6f"/>
     <use x="755.832031" xlink:href="#DejaVuSans-6e"/>
     <use x="819.210938" xlink:href="#DejaVuSans-6d"/>
     <use x="916.623047" xlink:href="#DejaVuSans-65"/>
     <use x="978.146484" xlink:href="#DejaVuSans-6e"/>
     <use x="1041.525391" xlink:href="#DejaVuSans-74"/>
     <use x="1080.734375" xlink:href="#DejaVuSans-61"/>
     <use x="1142.013672" xlink:href="#DejaVuSans-6c"/>
     <use x="1169.796875" xlink:href="#DejaVuSans-20"/>
     <use x="1201.583984" xlink:href="#DejaVuSans-61"/>
     <use x="1262.863281" xlink:href="#DejaVuSans-63"/>
     <use x="1317.84375" xlink:href="#DejaVuSans-74"/>
     <use x="1357.052734" xlink:href="#DejaVuSans-69"/>
     <use x="1384.835938" xlink:href="#DejaVuSans-76"/>
     <use x="1444.015625" xlink:href="#DejaVuSans-69"/>
     <use x="1471.798828" xlink:href="#DejaVuSans-73"/>
     <use x="1523.898438" xlink:href="#DejaVuSans-74"/>
     <use x="1563.107422" xlink:href="#DejaVuSans-20"/>
     <use x="1594.894531" xlink:href="#DejaVuSans-48"/>
     <use x="1670.089844" xlink:href="#DejaVuSans-75"/>
     <use x="1733.46875" xlink:href="#DejaVuSans-6c"/>
     <use x="1761.251953" xlink:href="#DejaVuSans-6f"/>
     <use x="1822.433594" xlink:href="#DejaVuSans-74"/>
    </g>
    <!-- quits as ecology minister -->
    <g transform="translate(154.675627 156.086834)scale(0.1 -0.1)">
     <defs>
      <path d="M 947 1747 
Q 947 1113 1208 752 
Q 1469 391 1925 391 
Q 2381 391 2643 752 
Q 2906 1113 2906 1747 
Q 2906 2381 2643 2742 
Q 2381 3103 1925 3103 
Q 1469 3103 1208 2742 
Q 947 2381 947 1747 
z
M 2906 525 
Q 2725 213 2448 61 
Q 2172 -91 1784 -91 
Q 1150 -91 751 415 
Q 353 922 353 1747 
Q 353 2572 751 3078 
Q 1150 3584 1784 3584 
Q 2172 3584 2448 3432 
Q 2725 3281 2906 2969 
L 2906 3500 
L 3481 3500 
L 3481 -1331 
L 2906 -1331 
L 2906 525 
z
" id="DejaVuSans-71" transform="scale(0.015625)"/>
      <path d="M 2906 1791 
Q 2906 2416 2648 2759 
Q 2391 3103 1925 3103 
Q 1463 3103 1205 2759 
Q 947 2416 947 1791 
Q 947 1169 1205 825 
Q 1463 481 1925 481 
Q 2391 481 2648 825 
Q 2906 1169 2906 1791 
z
M 3481 434 
Q 3481 -459 3084 -895 
Q 2688 -1331 1869 -1331 
Q 1566 -1331 1297 -1286 
Q 1028 -1241 775 -1147 
L 775 -588 
Q 1028 -725 1275 -790 
Q 1522 -856 1778 -856 
Q 2344 -856 2625 -561 
Q 2906 -266 2906 331 
L 2906 616 
Q 2728 306 2450 153 
Q 2172 0 1784 0 
Q 1141 0 747 490 
Q 353 981 353 1791 
Q 353 2603 747 3093 
Q 1141 3584 1784 3584 
Q 2172 3584 2450 3431 
Q 2728 3278 2906 2969 
L 2906 3500 
L 3481 3500 
L 3481 434 
z
" id="DejaVuSans-67" transform="scale(0.015625)"/>
     </defs>
     <use xlink:href="#DejaVuSans-71"/>
     <use x="63.476562" xlink:href="#DejaVuSans-75"/>
     <use x="126.855469" xlink:href="#DejaVuSans-69"/>
     <use x="154.638672" xlink:href="#DejaVuSans-74"/>
     <use x="193.847656" xlink:href="#DejaVuSans-73"/>
     <use x="245.947266" xlink:href="#DejaVuSans-20"/>
     <use x="277.734375" xlink:href="#DejaVuSans-61"/>
     <use x="339.013672" xlink:href="#DejaVuSans-73"/>
     <use x="391.113281" xlink:href="#DejaVuSans-20"/>
     <use x="422.900391" xlink:href="#DejaVuSans-65"/>
     <use x="484.423828" xlink:href="#DejaVuSans-63"/>
     <use x="539.404297" xlink:href="#DejaVuSans-6f"/>
     <use x="600.585938" xlink:href="#DejaVuSans-6c"/>
     <use x="628.369141" xlink:href="#DejaVuSans-6f"/>
     <use x="689.550781" xlink:href="#DejaVuSans-67"/>
     <use x="753.027344" xlink:href="#DejaVuSans-79"/>
     <use x="812.207031" xlink:href="#DejaVuSans-20"/>
     <use x="843.994141" xlink:href="#DejaVuSans-6d"/>
     <use x="941.40625" xlink:href="#DejaVuSans-69"/>
     <use x="969.189453" xlink:href="#DejaVuSans-6e"/>
     <use x="1032.568359" xlink:href="#DejaVuSans-69"/>
     <use x="1060.351562" xlink:href="#DejaVuSans-73"/>
     <use x="1112.451172" xlink:href="#DejaVuSans-74"/>
     <use x="1151.660156" xlink:href="#DejaVuSans-65"/>
     <use x="1213.183594" xlink:href="#DejaVuSans-72"/>
    </g>
   </g>
   <g id="patch_6">
    <path d="M 305.911864 105.65379 
Q 320.397872 91.153097 340.159015 87.262619 
" style="fill:none;stroke:#000000;stroke-linecap:round;"/>
    <path d="M 335.848017 86.072956 
L 340.159015 87.262619 
L 336.620686 89.997619 
" style="fill:none;stroke:#000000;stroke-linecap:round;"/>
   </g>
   <g id="text_17">
    <!-- COP25 Madrid -->
    <g transform="translate(263.22371 116.684807)scale(0.1 -0.1)">
     <defs>
      <path d="M 4122 4306 
L 4122 3641 
Q 3803 3938 3442 4084 
Q 3081 4231 2675 4231 
Q 1875 4231 1450 3742 
Q 1025 3253 1025 2328 
Q 1025 1406 1450 917 
Q 1875 428 2675 428 
Q 3081 428 3442 575 
Q 3803 722 4122 1019 
L 4122 359 
Q 3791 134 3420 21 
Q 3050 -91 2638 -91 
Q 1578 -91 968 557 
Q 359 1206 359 2328 
Q 359 3453 968 4101 
Q 1578 4750 2638 4750 
Q 3056 4750 3426 4639 
Q 3797 4528 4122 4306 
z
" id="DejaVuSans-43" transform="scale(0.015625)"/>
      <path d="M 2522 4238 
Q 1834 4238 1429 3725 
Q 1025 3213 1025 2328 
Q 1025 1447 1429 934 
Q 1834 422 2522 422 
Q 3209 422 3611 934 
Q 4013 1447 4013 2328 
Q 4013 3213 3611 3725 
Q 3209 4238 2522 4238 
z
M 2522 4750 
Q 3503 4750 4090 4092 
Q 4678 3434 4678 2328 
Q 4678 1225 4090 567 
Q 3503 -91 2522 -91 
Q 1538 -91 948 565 
Q 359 1222 359 2328 
Q 359 3434 948 4092 
Q 1538 4750 2522 4750 
z
" id="DejaVuSans-4f" transform="scale(0.015625)"/>
      <path d="M 1259 4147 
L 1259 2394 
L 2053 2394 
Q 2494 2394 2734 2622 
Q 2975 2850 2975 3272 
Q 2975 3691 2734 3919 
Q 2494 4147 2053 4147 
L 1259 4147 
z
M 628 4666 
L 2053 4666 
Q 2838 4666 3239 4311 
Q 3641 3956 3641 3272 
Q 3641 2581 3239 2228 
Q 2838 1875 2053 1875 
L 1259 1875 
L 1259 0 
L 628 0 
L 628 4666 
z
" id="DejaVuSans-50" transform="scale(0.015625)"/>
      <path d="M 628 4666 
L 1569 4666 
L 2759 1491 
L 3956 4666 
L 4897 4666 
L 4897 0 
L 4281 0 
L 4281 4097 
L 3078 897 
L 2444 897 
L 1241 4097 
L 1241 0 
L 628 0 
L 628 4666 
z
" id="DejaVuSans-4d" transform="scale(0.015625)"/>
     </defs>
     <use xlink:href="#DejaVuSans-43"/>
     <use x="69.824219" xlink:href="#DejaVuSans-4f"/>
     <use x="148.535156" xlink:href="#DejaVuSans-50"/>
     <use x="208.837891" xlink:href="#DejaVuSans-32"/>
     <use x="272.460938" xlink:href="#DejaVuSans-35"/>
     <use x="336.083984" xlink:href="#DejaVuSans-20"/>
     <use x="367.871094" xlink:href="#DejaVuSans-4d"/>
     <use x="454.150391" xlink:href="#DejaVuSans-61"/>
     <use x="515.429688" xlink:href="#DejaVuSans-64"/>
     <use x="578.90625" xlink:href="#DejaVuSans-72"/>
     <use x="620.019531" xlink:href="#DejaVuSans-69"/>
     <use x="647.802734" xlink:href="#DejaVuSans-64"/>
    </g>
   </g>
   <g id="patch_7">
    <path d="M 383.463882 68.565506 
Q 391.178404 78.27182 394.358494 89.922152 
" style="fill:none;stroke:#000000;stroke-linecap:round;"/>
    <path d="M 395.234597 85.536671 
L 394.358494 89.922152 
L 391.375771 86.589981 
" style="fill:none;stroke:#000000;stroke-linecap:round;"/>
   </g>
   <g id="text_18">
    <!-- Greenwashing report -->
    <g transform="translate(315.153314 51.741924)scale(0.1 -0.1)">
     <defs>
      <path d="M 3809 666 
L 3809 1919 
L 2778 1919 
L 2778 2438 
L 4434 2438 
L 4434 434 
Q 4069 175 3628 42 
Q 3188 -91 2688 -91 
Q 1594 -91 976 548 
Q 359 1188 359 2328 
Q 359 3472 976 4111 
Q 1594 4750 2688 4750 
Q 3144 4750 3555 4637 
Q 3966 4525 4313 4306 
L 4313 3634 
Q 3963 3931 3569 4081 
Q 3175 4231 2741 4231 
Q 1884 4231 1454 3753 
Q 1025 3275 1025 2328 
Q 1025 1384 1454 906 
Q 1884 428 2741 428 
Q 3075 428 3337 486 
Q 3600 544 3809 666 
z
" id="DejaVuSans-47" transform="scale(0.015625)"/>
      <path d="M 3513 2113 
L 3513 0 
L 2938 0 
L 2938 2094 
Q 2938 2591 2744 2837 
Q 2550 3084 2163 3084 
Q 1697 3084 1428 2787 
Q 1159 2491 1159 1978 
L 1159 0 
L 581 0 
L 581 4863 
L 1159 4863 
L 1159 2956 
Q 1366 3272 1645 3428 
Q 1925 3584 2291 3584 
Q 2894 3584 3203 3211 
Q 3513 2838 3513 2113 
z
" id="DejaVuSans-68" transform="scale(0.015625)"/>
      <path d="M 1159 525 
L 1159 -1331 
L 581 -1331 
L 581 3500 
L 1159 3500 
L 1159 2969 
Q 1341 3281 1617 3432 
Q 1894 3584 2278 3584 
Q 2916 3584 3314 3078 
Q 3713 2572 3713 1747 
Q 3713 922 3314 415 
Q 2916 -91 2278 -91 
Q 1894 -91 1617 61 
Q 1341 213 1159 525 
z
M 3116 1747 
Q 3116 2381 2855 2742 
Q 2594 3103 2138 3103 
Q 1681 3103 1420 2742 
Q 1159 2381 1159 1747 
Q 1159 1113 1420 752 
Q 1681 391 2138 391 
Q 2594 391 2855 752 
Q 3116 1113 3116 1747 
z
" id="DejaVuSans-70" transform="scale(0.015625)"/>
     </defs>
     <use xlink:href="#DejaVuSans-47"/>
     <use x="77.490234" xlink:href="#DejaVuSans-72"/>
     <use x="116.353516" xlink:href="#DejaVuSans-65"/>
     <use x="177.876953" xlink:href="#DejaVuSans-65"/>
     <use x="239.400391" xlink:href="#DejaVuSans-6e"/>
     <use x="302.779297" xlink:href="#DejaVuSans-77"/>
     <use x="384.566406" xlink:href="#DejaVuSans-61"/>
     <use x="445.845703" xlink:href="#DejaVuSans-73"/>
     <use x="497.945312" xlink:href="#DejaVuSans-68"/>
     <use x="561.324219" xlink:href="#DejaVuSans-69"/>
     <use x="589.107422" xlink:href="#DejaVuSans-6e"/>
     <use x="652.486328" xlink:href="#DejaVuSans-67"/>
     <use x="715.962891" xlink:href="#DejaVuSans-20"/>
     <use x="747.75" xlink:href="#DejaVuSans-72"/>
     <use x="786.613281" xlink:href="#DejaVuSans-65"/>
     <use x="848.136719" xlink:href="#DejaVuSans-70"/>
     <use x="911.613281" xlink:href="#DejaVuSans-6f"/>
     <use x="972.794922" xlink:href="#DejaVuSans-72"/>
     <use x="1013.908203" xlink:href="#DejaVuSans-74"/>
    </g>
    <!-- tackling Blackrock -->
    <g transform="translate(315.153314 62.939737)scale(0.1 -0.1)">
     <defs>
      <path d="M 581 4863 
L 1159 4863 
L 1159 1991 
L 2875 3500 
L 3609 3500 
L 1753 1863 
L 3688 0 
L 2938 0 
L 1159 1709 
L 1159 0 
L 581 0 
L 581 4863 
z
" id="DejaVuSans-6b" transform="scale(0.015625)"/>
      <path d="M 1259 2228 
L 1259 519 
L 2272 519 
Q 2781 519 3026 730 
Q 3272 941 3272 1375 
Q 3272 1813 3026 2020 
Q 2781 2228 2272 2228 
L 1259 2228 
z
M 1259 4147 
L 1259 2741 
L 2194 2741 
Q 2656 2741 2882 2914 
Q 3109 3088 3109 3444 
Q 3109 3797 2882 3972 
Q 2656 4147 2194 4147 
L 1259 4147 
z
M 628 4666 
L 2241 4666 
Q 2963 4666 3353 4366 
Q 3744 4066 3744 3513 
Q 3744 3084 3544 2831 
Q 3344 2578 2956 2516 
Q 3422 2416 3680 2098 
Q 3938 1781 3938 1306 
Q 3938 681 3513 340 
Q 3088 0 2303 0 
L 628 0 
L 628 4666 
z
" id="DejaVuSans-42" transform="scale(0.015625)"/>
     </defs>
     <use xlink:href="#DejaVuSans-74"/>
     <use x="39.208984" xlink:href="#DejaVuSans-61"/>
     <use x="100.488281" xlink:href="#DejaVuSans-63"/>
     <use x="155.46875" xlink:href="#DejaVuSans-6b"/>
     <use x="213.378906" xlink:href="#DejaVuSans-6c"/>
     <use x="241.162109" xlink:href="#DejaVuSans-69"/>
     <use x="268.945312" xlink:href="#DejaVuSans-6e"/>
     <use x="332.324219" xlink:href="#DejaVuSans-67"/>
     <use x="395.800781" xlink:href="#DejaVuSans-20"/>
     <use x="427.587891" xlink:href="#DejaVuSans-42"/>
     <use x="496.191406" xlink:href="#DejaVuSans-6c"/>
     <use x="523.974609" xlink:href="#DejaVuSans-61"/>
     <use x="585.253906" xlink:href="#DejaVuSans-63"/>
     <use x="640.234375" xlink:href="#DejaVuSans-6b"/>
     <use x="698.144531" xlink:href="#DejaVuSans-72"/>
     <use x="737.007812" xlink:href="#DejaVuSans-6f"/>
     <use x="798.189453" xlink:href="#DejaVuSans-63"/>
     <use x="853.169922" xlink:href="#DejaVuSans-6b"/>
    </g>
   </g>
   <g id="text_19">
    <!-- Greenwashing Tweets (n=943,225) -->
    <g transform="translate(137.262895 20.8)scale(0.12 -0.12)">
     <defs>
      <path d="M 1984 4856 
Q 1566 4138 1362 3434 
Q 1159 2731 1159 2009 
Q 1159 1288 1364 580 
Q 1569 -128 1984 -844 
L 1484 -844 
Q 1016 -109 783 600 
Q 550 1309 550 2009 
Q 550 2706 781 3412 
Q 1013 4119 1484 4856 
L 1984 4856 
z
" id="DejaVuSans-28" transform="scale(0.015625)"/>
      <path d="M 678 2906 
L 4684 2906 
L 4684 2381 
L 678 2381 
L 678 2906 
z
M 678 1631 
L 4684 1631 
L 4684 1100 
L 678 1100 
L 678 1631 
z
" id="DejaVuSans-3d" transform="scale(0.015625)"/>
      <path d="M 2597 2516 
Q 3050 2419 3304 2112 
Q 3559 1806 3559 1356 
Q 3559 666 3084 287 
Q 2609 -91 1734 -91 
Q 1441 -91 1130 -33 
Q 819 25 488 141 
L 488 750 
Q 750 597 1062 519 
Q 1375 441 1716 441 
Q 2309 441 2620 675 
Q 2931 909 2931 1356 
Q 2931 1769 2642 2001 
Q 2353 2234 1838 2234 
L 1294 2234 
L 1294 2753 
L 1863 2753 
Q 2328 2753 2575 2939 
Q 2822 3125 2822 3475 
Q 2822 3834 2567 4026 
Q 2313 4219 1838 4219 
Q 1578 4219 1281 4162 
Q 984 4106 628 3988 
L 628 4550 
Q 988 4650 1302 4700 
Q 1616 4750 1894 4750 
Q 2613 4750 3031 4423 
Q 3450 4097 3450 3541 
Q 3450 3153 3228 2886 
Q 3006 2619 2597 2516 
z
" id="DejaVuSans-33" transform="scale(0.015625)"/>
      <path d="M 750 794 
L 1409 794 
L 1409 256 
L 897 -744 
L 494 -744 
L 750 256 
L 750 794 
z
" id="DejaVuSans-2c" transform="scale(0.015625)"/>
      <path d="M 513 4856 
L 1013 4856 
Q 1481 4119 1714 3412 
Q 1947 2706 1947 2009 
Q 1947 1309 1714 600 
Q 1481 -109 1013 -844 
L 513 -844 
Q 928 -128 1133 580 
Q 1338 1288 1338 2009 
Q 1338 2731 1133 3434 
Q 928 4138 513 4856 
z
" id="DejaVuSans-29" transform="scale(0.015625)"/>
     </defs>
     <use xlink:href="#DejaVuSans-47"/>
     <use x="77.490234" xlink:href="#DejaVuSans-72"/>
     <use x="116.353516" xlink:href="#DejaVuSans-65"/>
     <use x="177.876953" xlink:href="#DejaVuSans-65"/>
     <use x="239.400391" xlink:href="#DejaVuSans-6e"/>
     <use x="302.779297" xlink:href="#DejaVuSans-77"/>
     <use x="384.566406" xlink:href="#DejaVuSans-61"/>
     <use x="445.845703" xlink:href="#DejaVuSans-73"/>
     <use x="497.945312" xlink:href="#DejaVuSans-68"/>
     <use x="561.324219" xlink:href="#DejaVuSans-69"/>
     <use x="589.107422" xlink:href="#DejaVuSans-6e"/>
     <use x="652.486328" xlink:href="#DejaVuSans-67"/>
     <use x="715.962891" xlink:href="#DejaVuSans-20"/>
     <use x="747.75" xlink:href="#DejaVuSans-54"/>
     <use x="792.333984" xlink:href="#DejaVuSans-77"/>
     <use x="874.121094" xlink:href="#DejaVuSans-65"/>
     <use x="935.644531" xlink:href="#DejaVuSans-65"/>
     <use x="997.167969" xlink:href="#DejaVuSans-74"/>
     <use x="1036.376953" xlink:href="#DejaVuSans-73"/>
     <use x="1088.476562" xlink:href="#DejaVuSans-20"/>
     <use x="1120.263672" xlink:href="#DejaVuSans-28"/>
     <use x="1159.277344" xlink:href="#DejaVuSans-6e"/>
     <use x="1222.65625" xlink:href="#DejaVuSans-3d"/>
     <use x="1306.445312" xlink:href="#DejaVuSans-39"/>
     <use x="1370.068359" xlink:href="#DejaVuSans-34"/>
     <use x="1433.691406" xlink:href="#DejaVuSans-33"/>
     <use x="1497.314453" xlink:href="#DejaVuSans-2c"/>
     <use x="1529.101562" xlink:href="#DejaVuSans-32"/>
     <use x="1592.724609" xlink:href="#DejaVuSans-32"/>
     <use x="1656.347656" xlink:href="#DejaVuSans-35"/>
     <use x="1719.970703" xlink:href="#DejaVuSans-29"/>
    </g>
   </g>
  </g>
 </g>
 <defs>
  <clipPath id="pc7a7319137">
   <rect height="195.405127" width="349.252041" x="68.175" y="26.8"/>
  </clipPath>
 </defs>
</svg>
