<?xml version="1.0" encoding="utf-8" standalone="no"?>
<!DOCTYPE svg PUBLIC "-//W3C//DTD SVG 1.1//EN"
  "http://www.w3.org/Graphics/SVG/1.1/DTD/svg11.dtd">
<svg height="288pt" version="1.1" viewBox="0 0 432 288" width="432pt" xmlns="http://www.w3.org/2000/svg" xmlns:xlink="http://www.w3.org/1999/xlink">
 <metadata>
  <rdf:RDF xmlns:cc="http://creativecommons.org/ns#" xmlns:dc="http://purl.org/dc/elements/1.1/" xmlns:rdf="http://www.w3.org/1999/02/22-rdf-syntax-ns#">
   <cc:Work>
    <dc:type rdf:resource="http://purl.org/dc/dcmitype/StillImage"/>
    <dc:date>2021-07-08T10:29:27.436213</dc:date>
    <dc:format>image/svg+xml</dc:format>
    <dc:creator>
     <cc:Agent>
      <dc:title>Matplotlib v3.4.2, https://matplotlib.org/</dc:title>
     </cc:Agent>
    </dc:creator>
   </cc:Work>
  </rdf:RDF>
 </metadata>
 <defs>
  <style type="text/css">*{stroke-linecap:butt;stroke-linejoin:round;}</style>
 </defs>
 <g id="figure_1">
  <g id="patch_1">
   <path d="M 0 288 
L 432 288 
L 432 0 
L 0 0 
z
" style="fill:none;"/>
  </g>
  <g id="axes_1">
   <g id="patch_2">
    <path d="M 55.645234 222.205127 
L 420.018744 222.205127 
L 420.018744 26.8 
L 55.645234 26.8 
z
" style="fill:#ffffff;"/>
   </g>
   <g id="matplotlib.axis_1">
    <g id="xtick_1">
     <g id="line2d_1">
      <defs>
       <path d="M 0 0 
L 0 3.5 
" id="mff48f2d1f4" style="stroke:#000000;stroke-width:0.8;"/>
      </defs>
      <g>
       <use style="stroke:#000000;stroke-width:0.8;" x="55.645234" xlink:href="#mff48f2d1f4" y="222.205127"/>
      </g>
     </g>
     <g id="text_1">
      <!-- 2014-01-01 -->
      <g transform="translate(37.049431 275.671986)rotate(-45)scale(0.1 -0.1)">
       <defs>
        <path d="M 1228 531 
L 3431 531 
L 3431 0 
L 469 0 
L 469 531 
Q 828 903 1448 1529 
Q 2069 2156 2228 2338 
Q 2531 2678 2651 2914 
Q 2772 3150 2772 3378 
Q 2772 3750 2511 3984 
Q 2250 4219 1831 4219 
Q 1534 4219 1204 4116 
Q 875 4013 500 3803 
L 500 4441 
Q 881 4594 1212 4672 
Q 1544 4750 1819 4750 
Q 2544 4750 2975 4387 
Q 3406 4025 3406 3419 
Q 3406 3131 3298 2873 
Q 3191 2616 2906 2266 
Q 2828 2175 2409 1742 
Q 1991 1309 1228 531 
z
" id="DejaVuSans-32" transform="scale(0.015625)"/>
        <path d="M 2034 4250 
Q 1547 4250 1301 3770 
Q 1056 3291 1056 2328 
Q 1056 1369 1301 889 
Q 1547 409 2034 409 
Q 2525 409 2770 889 
Q 3016 1369 3016 2328 
Q 3016 3291 2770 3770 
Q 2525 4250 2034 4250 
z
M 2034 4750 
Q 2819 4750 3233 4129 
Q 3647 3509 3647 2328 
Q 3647 1150 3233 529 
Q 2819 -91 2034 -91 
Q 1250 -91 836 529 
Q 422 1150 422 2328 
Q 422 3509 836 4129 
Q 1250 4750 2034 4750 
z
" id="DejaVuSans-30" transform="scale(0.015625)"/>
        <path d="M 794 531 
L 1825 531 
L 1825 4091 
L 703 3866 
L 703 4441 
L 1819 4666 
L 2450 4666 
L 2450 531 
L 3481 531 
L 3481 0 
L 794 0 
L 794 531 
z
" id="DejaVuSans-31" transform="scale(0.015625)"/>
        <path d="M 2419 4116 
L 825 1625 
L 2419 1625 
L 2419 4116 
z
M 2253 4666 
L 3047 4666 
L 3047 1625 
L 3713 1625 
L 3713 1100 
L 3047 1100 
L 3047 0 
L 2419 0 
L 2419 1100 
L 313 1100 
L 313 1709 
L 2253 4666 
z
" id="DejaVuSans-34" transform="scale(0.015625)"/>
        <path d="M 313 2009 
L 1997 2009 
L 1997 1497 
L 313 1497 
L 313 2009 
z
" id="DejaVuSans-2d" transform="scale(0.015625)"/>
       </defs>
       <use xlink:href="#DejaVuSans-32"/>
       <use x="63.623047" xlink:href="#DejaVuSans-30"/>
       <use x="127.246094" xlink:href="#DejaVuSans-31"/>
       <use x="190.869141" xlink:href="#DejaVuSans-34"/>
       <use x="254.492188" xlink:href="#DejaVuSans-2d"/>
       <use x="290.576172" xlink:href="#DejaVuSans-30"/>
       <use x="354.199219" xlink:href="#DejaVuSans-31"/>
       <use x="417.822266" xlink:href="#DejaVuSans-2d"/>
       <use x="453.90625" xlink:href="#DejaVuSans-30"/>
       <use x="517.529297" xlink:href="#DejaVuSans-31"/>
      </g>
     </g>
    </g>
    <g id="xtick_2">
     <g id="line2d_2">
      <g>
       <use style="stroke:#000000;stroke-width:0.8;" x="104.113285" xlink:href="#mff48f2d1f4" y="222.205127"/>
      </g>
     </g>
     <g id="text_2">
      <!-- 2015-01-01 -->
      <g transform="translate(85.517482 275.671986)rotate(-45)scale(0.1 -0.1)">
       <defs>
        <path d="M 691 4666 
L 3169 4666 
L 3169 4134 
L 1269 4134 
L 1269 2991 
Q 1406 3038 1543 3061 
Q 1681 3084 1819 3084 
Q 2600 3084 3056 2656 
Q 3513 2228 3513 1497 
Q 3513 744 3044 326 
Q 2575 -91 1722 -91 
Q 1428 -91 1123 -41 
Q 819 9 494 109 
L 494 744 
Q 775 591 1075 516 
Q 1375 441 1709 441 
Q 2250 441 2565 725 
Q 2881 1009 2881 1497 
Q 2881 1984 2565 2268 
Q 2250 2553 1709 2553 
Q 1456 2553 1204 2497 
Q 953 2441 691 2322 
L 691 4666 
z
" id="DejaVuSans-35" transform="scale(0.015625)"/>
       </defs>
       <use xlink:href="#DejaVuSans-32"/>
       <use x="63.623047" xlink:href="#DejaVuSans-30"/>
       <use x="127.246094" xlink:href="#DejaVuSans-31"/>
       <use x="190.869141" xlink:href="#DejaVuSans-35"/>
       <use x="254.492188" xlink:href="#DejaVuSans-2d"/>
       <use x="290.576172" xlink:href="#DejaVuSans-30"/>
       <use x="354.199219" xlink:href="#DejaVuSans-31"/>
       <use x="417.822266" xlink:href="#DejaVuSans-2d"/>
       <use x="453.90625" xlink:href="#DejaVuSans-30"/>
       <use x="517.529297" xlink:href="#DejaVuSans-31"/>
      </g>
     </g>
    </g>
    <g id="xtick_3">
     <g id="line2d_3">
      <g>
       <use style="stroke:#000000;stroke-width:0.8;" x="152.581336" xlink:href="#mff48f2d1f4" y="222.205127"/>
      </g>
     </g>
     <g id="text_3">
      <!-- 2016-01-01 -->
      <g transform="translate(133.985532 275.671986)rotate(-45)scale(0.1 -0.1)">
       <defs>
        <path d="M 2113 2584 
Q 1688 2584 1439 2293 
Q 1191 2003 1191 1497 
Q 1191 994 1439 701 
Q 1688 409 2113 409 
Q 2538 409 2786 701 
Q 3034 994 3034 1497 
Q 3034 2003 2786 2293 
Q 2538 2584 2113 2584 
z
M 3366 4563 
L 3366 3988 
Q 3128 4100 2886 4159 
Q 2644 4219 2406 4219 
Q 1781 4219 1451 3797 
Q 1122 3375 1075 2522 
Q 1259 2794 1537 2939 
Q 1816 3084 2150 3084 
Q 2853 3084 3261 2657 
Q 3669 2231 3669 1497 
Q 3669 778 3244 343 
Q 2819 -91 2113 -91 
Q 1303 -91 875 529 
Q 447 1150 447 2328 
Q 447 3434 972 4092 
Q 1497 4750 2381 4750 
Q 2619 4750 2861 4703 
Q 3103 4656 3366 4563 
z
" id="DejaVuSans-36" transform="scale(0.015625)"/>
       </defs>
       <use xlink:href="#DejaVuSans-32"/>
       <use x="63.623047" xlink:href="#DejaVuSans-30"/>
       <use x="127.246094" xlink:href="#DejaVuSans-31"/>
       <use x="190.869141" xlink:href="#DejaVuSans-36"/>
       <use x="254.492188" xlink:href="#DejaVuSans-2d"/>
       <use x="290.576172" xlink:href="#DejaVuSans-30"/>
       <use x="354.199219" xlink:href="#DejaVuSans-31"/>
       <use x="417.822266" xlink:href="#DejaVuSans-2d"/>
       <use x="453.90625" xlink:href="#DejaVuSans-30"/>
       <use x="517.529297" xlink:href="#DejaVuSans-31"/>
      </g>
     </g>
    </g>
    <g id="xtick_4">
     <g id="line2d_4">
      <g>
       <use style="stroke:#000000;stroke-width:0.8;" x="201.182176" xlink:href="#mff48f2d1f4" y="222.205127"/>
      </g>
     </g>
     <g id="text_4">
      <!-- 2017-01-01 -->
      <g transform="translate(182.586372 275.671986)rotate(-45)scale(0.1 -0.1)">
       <defs>
        <path d="M 525 4666 
L 3525 4666 
L 3525 4397 
L 1831 0 
L 1172 0 
L 2766 4134 
L 525 4134 
L 525 4666 
z
" id="DejaVuSans-37" transform="scale(0.015625)"/>
       </defs>
       <use xlink:href="#DejaVuSans-32"/>
       <use x="63.623047" xlink:href="#DejaVuSans-30"/>
       <use x="127.246094" xlink:href="#DejaVuSans-31"/>
       <use x="190.869141" xlink:href="#DejaVuSans-37"/>
       <use x="254.492188" xlink:href="#DejaVuSans-2d"/>
       <use x="290.576172" xlink:href="#DejaVuSans-30"/>
       <use x="354.199219" xlink:href="#DejaVuSans-31"/>
       <use x="417.822266" xlink:href="#DejaVuSans-2d"/>
       <use x="453.90625" xlink:href="#DejaVuSans-30"/>
       <use x="517.529297" xlink:href="#DejaVuSans-31"/>
      </g>
     </g>
    </g>
    <g id="xtick_5">
     <g id="line2d_5">
      <g>
       <use style="stroke:#000000;stroke-width:0.8;" x="249.650226" xlink:href="#mff48f2d1f4" y="222.205127"/>
      </g>
     </g>
     <g id="text_5">
      <!-- 2018-01-01 -->
      <g transform="translate(231.054423 275.671986)rotate(-45)scale(0.1 -0.1)">
       <defs>
        <path d="M 2034 2216 
Q 1584 2216 1326 1975 
Q 1069 1734 1069 1313 
Q 1069 891 1326 650 
Q 1584 409 2034 409 
Q 2484 409 2743 651 
Q 3003 894 3003 1313 
Q 3003 1734 2745 1975 
Q 2488 2216 2034 2216 
z
M 1403 2484 
Q 997 2584 770 2862 
Q 544 3141 544 3541 
Q 544 4100 942 4425 
Q 1341 4750 2034 4750 
Q 2731 4750 3128 4425 
Q 3525 4100 3525 3541 
Q 3525 3141 3298 2862 
Q 3072 2584 2669 2484 
Q 3125 2378 3379 2068 
Q 3634 1759 3634 1313 
Q 3634 634 3220 271 
Q 2806 -91 2034 -91 
Q 1263 -91 848 271 
Q 434 634 434 1313 
Q 434 1759 690 2068 
Q 947 2378 1403 2484 
z
M 1172 3481 
Q 1172 3119 1398 2916 
Q 1625 2713 2034 2713 
Q 2441 2713 2670 2916 
Q 2900 3119 2900 3481 
Q 2900 3844 2670 4047 
Q 2441 4250 2034 4250 
Q 1625 4250 1398 4047 
Q 1172 3844 1172 3481 
z
" id="DejaVuSans-38" transform="scale(0.015625)"/>
       </defs>
       <use xlink:href="#DejaVuSans-32"/>
       <use x="63.623047" xlink:href="#DejaVuSans-30"/>
       <use x="127.246094" xlink:href="#DejaVuSans-31"/>
       <use x="190.869141" xlink:href="#DejaVuSans-38"/>
       <use x="254.492188" xlink:href="#DejaVuSans-2d"/>
       <use x="290.576172" xlink:href="#DejaVuSans-30"/>
       <use x="354.199219" xlink:href="#DejaVuSans-31"/>
       <use x="417.822266" xlink:href="#DejaVuSans-2d"/>
       <use x="453.90625" xlink:href="#DejaVuSans-30"/>
       <use x="517.529297" xlink:href="#DejaVuSans-31"/>
      </g>
     </g>
    </g>
    <g id="xtick_6">
     <g id="line2d_6">
      <g>
       <use style="stroke:#000000;stroke-width:0.8;" x="298.118277" xlink:href="#mff48f2d1f4" y="222.205127"/>
      </g>
     </g>
     <g id="text_6">
      <!-- 2019-01-01 -->
      <g transform="translate(279.522474 275.671986)rotate(-45)scale(0.1 -0.1)">
       <defs>
        <path d="M 703 97 
L 703 672 
Q 941 559 1184 500 
Q 1428 441 1663 441 
Q 2288 441 2617 861 
Q 2947 1281 2994 2138 
Q 2813 1869 2534 1725 
Q 2256 1581 1919 1581 
Q 1219 1581 811 2004 
Q 403 2428 403 3163 
Q 403 3881 828 4315 
Q 1253 4750 1959 4750 
Q 2769 4750 3195 4129 
Q 3622 3509 3622 2328 
Q 3622 1225 3098 567 
Q 2575 -91 1691 -91 
Q 1453 -91 1209 -44 
Q 966 3 703 97 
z
M 1959 2075 
Q 2384 2075 2632 2365 
Q 2881 2656 2881 3163 
Q 2881 3666 2632 3958 
Q 2384 4250 1959 4250 
Q 1534 4250 1286 3958 
Q 1038 3666 1038 3163 
Q 1038 2656 1286 2365 
Q 1534 2075 1959 2075 
z
" id="DejaVuSans-39" transform="scale(0.015625)"/>
       </defs>
       <use xlink:href="#DejaVuSans-32"/>
       <use x="63.623047" xlink:href="#DejaVuSans-30"/>
       <use x="127.246094" xlink:href="#DejaVuSans-31"/>
       <use x="190.869141" xlink:href="#DejaVuSans-39"/>
       <use x="254.492188" xlink:href="#DejaVuSans-2d"/>
       <use x="290.576172" xlink:href="#DejaVuSans-30"/>
       <use x="354.199219" xlink:href="#DejaVuSans-31"/>
       <use x="417.822266" xlink:href="#DejaVuSans-2d"/>
       <use x="453.90625" xlink:href="#DejaVuSans-30"/>
       <use x="517.529297" xlink:href="#DejaVuSans-31"/>
      </g>
     </g>
    </g>
    <g id="xtick_7">
     <g id="line2d_7">
      <g>
       <use style="stroke:#000000;stroke-width:0.8;" x="346.586328" xlink:href="#mff48f2d1f4" y="222.205127"/>
      </g>
     </g>
     <g id="text_7">
      <!-- 2020-01-01 -->
      <g transform="translate(327.990524 275.671986)rotate(-45)scale(0.1 -0.1)">
       <use xlink:href="#DejaVuSans-32"/>
       <use x="63.623047" xlink:href="#DejaVuSans-30"/>
       <use x="127.246094" xlink:href="#DejaVuSans-32"/>
       <use x="190.869141" xlink:href="#DejaVuSans-30"/>
       <use x="254.492188" xlink:href="#DejaVuSans-2d"/>
       <use x="290.576172" xlink:href="#DejaVuSans-30"/>
       <use x="354.199219" xlink:href="#DejaVuSans-31"/>
       <use x="417.822266" xlink:href="#DejaVuSans-2d"/>
       <use x="453.90625" xlink:href="#DejaVuSans-30"/>
       <use x="517.529297" xlink:href="#DejaVuSans-31"/>
      </g>
     </g>
    </g>
    <g id="xtick_8">
     <g id="line2d_8">
      <g>
       <use style="stroke:#000000;stroke-width:0.8;" x="395.187168" xlink:href="#mff48f2d1f4" y="222.205127"/>
      </g>
     </g>
     <g id="text_8">
      <!-- 2021-01-01 -->
      <g transform="translate(376.591364 275.671986)rotate(-45)scale(0.1 -0.1)">
       <use xlink:href="#DejaVuSans-32"/>
       <use x="63.623047" xlink:href="#DejaVuSans-30"/>
       <use x="127.246094" xlink:href="#DejaVuSans-32"/>
       <use x="190.869141" xlink:href="#DejaVuSans-31"/>
       <use x="254.492188" xlink:href="#DejaVuSans-2d"/>
       <use x="290.576172" xlink:href="#DejaVuSans-30"/>
       <use x="354.199219" xlink:href="#DejaVuSans-31"/>
       <use x="417.822266" xlink:href="#DejaVuSans-2d"/>
       <use x="453.90625" xlink:href="#DejaVuSans-30"/>
       <use x="517.529297" xlink:href="#DejaVuSans-31"/>
      </g>
     </g>
    </g>
   </g>
   <g id="matplotlib.axis_2">
    <g id="ytick_1">
     <g id="line2d_9">
      <defs>
       <path d="M 0 0 
L -3.5 0 
" id="m7ca8a3dfb6" style="stroke:#000000;stroke-width:0.8;"/>
      </defs>
      <g>
       <use style="stroke:#000000;stroke-width:0.8;" x="55.645234" xlink:href="#m7ca8a3dfb6" y="214.283921"/>
      </g>
     </g>
     <g id="text_9">
      <!-- $\mathdefault{10^{0}}$ -->
      <g transform="translate(31.045234 218.08314)scale(0.1 -0.1)">
       <use transform="translate(0 0.765625)" xlink:href="#DejaVuSans-31"/>
       <use transform="translate(63.623047 0.765625)" xlink:href="#DejaVuSans-30"/>
       <use transform="translate(128.203125 39.046875)scale(0.7)" xlink:href="#DejaVuSans-30"/>
      </g>
     </g>
    </g>
    <g id="ytick_2">
     <g id="line2d_10">
      <g>
       <use style="stroke:#000000;stroke-width:0.8;" x="55.645234" xlink:href="#m7ca8a3dfb6" y="167.412941"/>
      </g>
     </g>
     <g id="text_10">
      <!-- $\mathdefault{10^{1}}$ -->
      <g transform="translate(31.045234 171.21216)scale(0.1 -0.1)">
       <use transform="translate(0 0.684375)" xlink:href="#DejaVuSans-31"/>
       <use transform="translate(63.623047 0.684375)" xlink:href="#DejaVuSans-30"/>
       <use transform="translate(128.203125 38.965625)scale(0.7)" xlink:href="#DejaVuSans-31"/>
      </g>
     </g>
    </g>
    <g id="ytick_3">
     <g id="line2d_11">
      <g>
       <use style="stroke:#000000;stroke-width:0.8;" x="55.645234" xlink:href="#m7ca8a3dfb6" y="120.541961"/>
      </g>
     </g>
     <g id="text_11">
      <!-- $\mathdefault{10^{2}}$ -->
      <g transform="translate(31.045234 124.341179)scale(0.1 -0.1)">
       <use transform="translate(0 0.765625)" xlink:href="#DejaVuSans-31"/>
       <use transform="translate(63.623047 0.765625)" xlink:href="#DejaVuSans-30"/>
       <use transform="translate(128.203125 39.046875)scale(0.7)" xlink:href="#DejaVuSans-32"/>
      </g>
     </g>
    </g>
    <g id="ytick_4">
     <g id="line2d_12">
      <g>
       <use style="stroke:#000000;stroke-width:0.8;" x="55.645234" xlink:href="#m7ca8a3dfb6" y="73.67098"/>
      </g>
     </g>
     <g id="text_12">
      <!-- $\mathdefault{10^{3}}$ -->
      <g transform="translate(31.045234 77.470199)scale(0.1 -0.1)">
       <defs>
        <path d="M 2597 2516 
Q 3050 2419 3304 2112 
Q 3559 1806 3559 1356 
Q 3559 666 3084 287 
Q 2609 -91 1734 -91 
Q 1441 -91 1130 -33 
Q 819 25 488 141 
L 488 750 
Q 750 597 1062 519 
Q 1375 441 1716 441 
Q 2309 441 2620 675 
Q 2931 909 2931 1356 
Q 2931 1769 2642 2001 
Q 2353 2234 1838 2234 
L 1294 2234 
L 1294 2753 
L 1863 2753 
Q 2328 2753 2575 2939 
Q 2822 3125 2822 3475 
Q 2822 3834 2567 4026 
Q 2313 4219 1838 4219 
Q 1578 4219 1281 4162 
Q 984 4106 628 3988 
L 628 4550 
Q 988 4650 1302 4700 
Q 1616 4750 1894 4750 
Q 2613 4750 3031 4423 
Q 3450 4097 3450 3541 
Q 3450 3153 3228 2886 
Q 3006 2619 2597 2516 
z
" id="DejaVuSans-33" transform="scale(0.015625)"/>
       </defs>
       <use transform="translate(0 0.765625)" xlink:href="#DejaVuSans-31"/>
       <use transform="translate(63.623047 0.765625)" xlink:href="#DejaVuSans-30"/>
       <use transform="translate(128.203125 39.046875)scale(0.7)" xlink:href="#DejaVuSans-33"/>
      </g>
     </g>
    </g>
    <g id="ytick_5">
     <g id="line2d_13">
      <g>
       <use style="stroke:#000000;stroke-width:0.8;" x="55.645234" xlink:href="#m7ca8a3dfb6" y="26.8"/>
      </g>
     </g>
     <g id="text_13">
      <!-- $\mathdefault{10^{4}}$ -->
      <g transform="translate(31.045234 30.599219)scale(0.1 -0.1)">
       <use transform="translate(0 0.684375)" xlink:href="#DejaVuSans-31"/>
       <use transform="translate(63.623047 0.684375)" xlink:href="#DejaVuSans-30"/>
       <use transform="translate(128.203125 38.965625)scale(0.7)" xlink:href="#DejaVuSans-34"/>
      </g>
     </g>
    </g>
    <g id="ytick_6">
     <g id="line2d_14">
      <defs>
       <path d="M 0 0 
L -2 0 
" id="m7f2043af77" style="stroke:#000000;stroke-width:0.6;"/>
      </defs>
      <g>
       <use style="stroke:#000000;stroke-width:0.6;" x="55.645234" xlink:href="#m7f2043af77" y="221.544328"/>
      </g>
     </g>
    </g>
    <g id="ytick_7">
     <g id="line2d_15">
      <g>
       <use style="stroke:#000000;stroke-width:0.6;" x="55.645234" xlink:href="#m7f2043af77" y="218.826189"/>
      </g>
     </g>
    </g>
    <g id="ytick_8">
     <g id="line2d_16">
      <g>
       <use style="stroke:#000000;stroke-width:0.6;" x="55.645234" xlink:href="#m7f2043af77" y="216.42862"/>
      </g>
     </g>
    </g>
    <g id="ytick_9">
     <g id="line2d_17">
      <g>
       <use style="stroke:#000000;stroke-width:0.6;" x="55.645234" xlink:href="#m7f2043af77" y="200.17435"/>
      </g>
     </g>
    </g>
    <g id="ytick_10">
     <g id="line2d_18">
      <g>
       <use style="stroke:#000000;stroke-width:0.6;" x="55.645234" xlink:href="#m7f2043af77" y="191.92078"/>
      </g>
     </g>
    </g>
    <g id="ytick_11">
     <g id="line2d_19">
      <g>
       <use style="stroke:#000000;stroke-width:0.6;" x="55.645234" xlink:href="#m7f2043af77" y="186.064779"/>
      </g>
     </g>
    </g>
    <g id="ytick_12">
     <g id="line2d_20">
      <g>
       <use style="stroke:#000000;stroke-width:0.6;" x="55.645234" xlink:href="#m7f2043af77" y="181.522512"/>
      </g>
     </g>
    </g>
    <g id="ytick_13">
     <g id="line2d_21">
      <g>
       <use style="stroke:#000000;stroke-width:0.6;" x="55.645234" xlink:href="#m7f2043af77" y="177.811209"/>
      </g>
     </g>
    </g>
    <g id="ytick_14">
     <g id="line2d_22">
      <g>
       <use style="stroke:#000000;stroke-width:0.6;" x="55.645234" xlink:href="#m7f2043af77" y="174.673348"/>
      </g>
     </g>
    </g>
    <g id="ytick_15">
     <g id="line2d_23">
      <g>
       <use style="stroke:#000000;stroke-width:0.6;" x="55.645234" xlink:href="#m7f2043af77" y="171.955208"/>
      </g>
     </g>
    </g>
    <g id="ytick_16">
     <g id="line2d_24">
      <g>
       <use style="stroke:#000000;stroke-width:0.6;" x="55.645234" xlink:href="#m7f2043af77" y="169.557639"/>
      </g>
     </g>
    </g>
    <g id="ytick_17">
     <g id="line2d_25">
      <g>
       <use style="stroke:#000000;stroke-width:0.6;" x="55.645234" xlink:href="#m7f2043af77" y="153.30337"/>
      </g>
     </g>
    </g>
    <g id="ytick_18">
     <g id="line2d_26">
      <g>
       <use style="stroke:#000000;stroke-width:0.6;" x="55.645234" xlink:href="#m7f2043af77" y="145.0498"/>
      </g>
     </g>
    </g>
    <g id="ytick_19">
     <g id="line2d_27">
      <g>
       <use style="stroke:#000000;stroke-width:0.6;" x="55.645234" xlink:href="#m7f2043af77" y="139.193799"/>
      </g>
     </g>
    </g>
    <g id="ytick_20">
     <g id="line2d_28">
      <g>
       <use style="stroke:#000000;stroke-width:0.6;" x="55.645234" xlink:href="#m7f2043af77" y="134.651532"/>
      </g>
     </g>
    </g>
    <g id="ytick_21">
     <g id="line2d_29">
      <g>
       <use style="stroke:#000000;stroke-width:0.6;" x="55.645234" xlink:href="#m7f2043af77" y="130.940229"/>
      </g>
     </g>
    </g>
    <g id="ytick_22">
     <g id="line2d_30">
      <g>
       <use style="stroke:#000000;stroke-width:0.6;" x="55.645234" xlink:href="#m7f2043af77" y="127.802367"/>
      </g>
     </g>
    </g>
    <g id="ytick_23">
     <g id="line2d_31">
      <g>
       <use style="stroke:#000000;stroke-width:0.6;" x="55.645234" xlink:href="#m7f2043af77" y="125.084228"/>
      </g>
     </g>
    </g>
    <g id="ytick_24">
     <g id="line2d_32">
      <g>
       <use style="stroke:#000000;stroke-width:0.6;" x="55.645234" xlink:href="#m7f2043af77" y="122.686659"/>
      </g>
     </g>
    </g>
    <g id="ytick_25">
     <g id="line2d_33">
      <g>
       <use style="stroke:#000000;stroke-width:0.6;" x="55.645234" xlink:href="#m7f2043af77" y="106.43239"/>
      </g>
     </g>
    </g>
    <g id="ytick_26">
     <g id="line2d_34">
      <g>
       <use style="stroke:#000000;stroke-width:0.6;" x="55.645234" xlink:href="#m7f2043af77" y="98.17882"/>
      </g>
     </g>
    </g>
    <g id="ytick_27">
     <g id="line2d_35">
      <g>
       <use style="stroke:#000000;stroke-width:0.6;" x="55.645234" xlink:href="#m7f2043af77" y="92.322819"/>
      </g>
     </g>
    </g>
    <g id="ytick_28">
     <g id="line2d_36">
      <g>
       <use style="stroke:#000000;stroke-width:0.6;" x="55.645234" xlink:href="#m7f2043af77" y="87.780551"/>
      </g>
     </g>
    </g>
    <g id="ytick_29">
     <g id="line2d_37">
      <g>
       <use style="stroke:#000000;stroke-width:0.6;" x="55.645234" xlink:href="#m7f2043af77" y="84.069249"/>
      </g>
     </g>
    </g>
    <g id="ytick_30">
     <g id="line2d_38">
      <g>
       <use style="stroke:#000000;stroke-width:0.6;" x="55.645234" xlink:href="#m7f2043af77" y="80.931387"/>
      </g>
     </g>
    </g>
    <g id="ytick_31">
     <g id="line2d_39">
      <g>
       <use style="stroke:#000000;stroke-width:0.6;" x="55.645234" xlink:href="#m7f2043af77" y="78.213248"/>
      </g>
     </g>
    </g>
    <g id="ytick_32">
     <g id="line2d_40">
      <g>
       <use style="stroke:#000000;stroke-width:0.6;" x="55.645234" xlink:href="#m7f2043af77" y="75.815679"/>
      </g>
     </g>
    </g>
    <g id="ytick_33">
     <g id="line2d_41">
      <g>
       <use style="stroke:#000000;stroke-width:0.6;" x="55.645234" xlink:href="#m7f2043af77" y="59.561409"/>
      </g>
     </g>
    </g>
    <g id="ytick_34">
     <g id="line2d_42">
      <g>
       <use style="stroke:#000000;stroke-width:0.6;" x="55.645234" xlink:href="#m7f2043af77" y="51.307839"/>
      </g>
     </g>
    </g>
    <g id="ytick_35">
     <g id="line2d_43">
      <g>
       <use style="stroke:#000000;stroke-width:0.6;" x="55.645234" xlink:href="#m7f2043af77" y="45.451838"/>
      </g>
     </g>
    </g>
    <g id="ytick_36">
     <g id="line2d_44">
      <g>
       <use style="stroke:#000000;stroke-width:0.6;" x="55.645234" xlink:href="#m7f2043af77" y="40.909571"/>
      </g>
     </g>
    </g>
    <g id="ytick_37">
     <g id="line2d_45">
      <g>
       <use style="stroke:#000000;stroke-width:0.6;" x="55.645234" xlink:href="#m7f2043af77" y="37.198268"/>
      </g>
     </g>
    </g>
    <g id="ytick_38">
     <g id="line2d_46">
      <g>
       <use style="stroke:#000000;stroke-width:0.6;" x="55.645234" xlink:href="#m7f2043af77" y="34.060407"/>
      </g>
     </g>
    </g>
    <g id="ytick_39">
     <g id="line2d_47">
      <g>
       <use style="stroke:#000000;stroke-width:0.6;" x="55.645234" xlink:href="#m7f2043af77" y="31.342267"/>
      </g>
     </g>
    </g>
    <g id="ytick_40">
     <g id="line2d_48">
      <g>
       <use style="stroke:#000000;stroke-width:0.6;" x="55.645234" xlink:href="#m7f2043af77" y="28.944698"/>
      </g>
     </g>
    </g>
    <g id="text_14">
     <!-- log(Tweets) / day -->
     <g transform="translate(23.717734 192.695064)rotate(-90)scale(0.16 -0.16)">
      <defs>
       <path d="M 603 4863 
L 1178 4863 
L 1178 0 
L 603 0 
L 603 4863 
z
" id="DejaVuSans-6c" transform="scale(0.015625)"/>
       <path d="M 1959 3097 
Q 1497 3097 1228 2736 
Q 959 2375 959 1747 
Q 959 1119 1226 758 
Q 1494 397 1959 397 
Q 2419 397 2687 759 
Q 2956 1122 2956 1747 
Q 2956 2369 2687 2733 
Q 2419 3097 1959 3097 
z
M 1959 3584 
Q 2709 3584 3137 3096 
Q 3566 2609 3566 1747 
Q 3566 888 3137 398 
Q 2709 -91 1959 -91 
Q 1206 -91 779 398 
Q 353 888 353 1747 
Q 353 2609 779 3096 
Q 1206 3584 1959 3584 
z
" id="DejaVuSans-6f" transform="scale(0.015625)"/>
       <path d="M 2906 1791 
Q 2906 2416 2648 2759 
Q 2391 3103 1925 3103 
Q 1463 3103 1205 2759 
Q 947 2416 947 1791 
Q 947 1169 1205 825 
Q 1463 481 1925 481 
Q 2391 481 2648 825 
Q 2906 1169 2906 1791 
z
M 3481 434 
Q 3481 -459 3084 -895 
Q 2688 -1331 1869 -1331 
Q 1566 -1331 1297 -1286 
Q 1028 -1241 775 -1147 
L 775 -588 
Q 1028 -725 1275 -790 
Q 1522 -856 1778 -856 
Q 2344 -856 2625 -561 
Q 2906 -266 2906 331 
L 2906 616 
Q 2728 306 2450 153 
Q 2172 0 1784 0 
Q 1141 0 747 490 
Q 353 981 353 1791 
Q 353 2603 747 3093 
Q 1141 3584 1784 3584 
Q 2172 3584 2450 3431 
Q 2728 3278 2906 2969 
L 2906 3500 
L 3481 3500 
L 3481 434 
z
" id="DejaVuSans-67" transform="scale(0.015625)"/>
       <path d="M 1984 4856 
Q 1566 4138 1362 3434 
Q 1159 2731 1159 2009 
Q 1159 1288 1364 580 
Q 1569 -128 1984 -844 
L 1484 -844 
Q 1016 -109 783 600 
Q 550 1309 550 2009 
Q 550 2706 781 3412 
Q 1013 4119 1484 4856 
L 1984 4856 
z
" id="DejaVuSans-28" transform="scale(0.015625)"/>
       <path d="M -19 4666 
L 3928 4666 
L 3928 4134 
L 2272 4134 
L 2272 0 
L 1638 0 
L 1638 4134 
L -19 4134 
L -19 4666 
z
" id="DejaVuSans-54" transform="scale(0.015625)"/>
       <path d="M 269 3500 
L 844 3500 
L 1563 769 
L 2278 3500 
L 2956 3500 
L 3675 769 
L 4391 3500 
L 4966 3500 
L 4050 0 
L 3372 0 
L 2619 2869 
L 1863 0 
L 1184 0 
L 269 3500 
z
" id="DejaVuSans-77" transform="scale(0.015625)"/>
       <path d="M 3597 1894 
L 3597 1613 
L 953 1613 
Q 991 1019 1311 708 
Q 1631 397 2203 397 
Q 2534 397 2845 478 
Q 3156 559 3463 722 
L 3463 178 
Q 3153 47 2828 -22 
Q 2503 -91 2169 -91 
Q 1331 -91 842 396 
Q 353 884 353 1716 
Q 353 2575 817 3079 
Q 1281 3584 2069 3584 
Q 2775 3584 3186 3129 
Q 3597 2675 3597 1894 
z
M 3022 2063 
Q 3016 2534 2758 2815 
Q 2500 3097 2075 3097 
Q 1594 3097 1305 2825 
Q 1016 2553 972 2059 
L 3022 2063 
z
" id="DejaVuSans-65" transform="scale(0.015625)"/>
       <path d="M 1172 4494 
L 1172 3500 
L 2356 3500 
L 2356 3053 
L 1172 3053 
L 1172 1153 
Q 1172 725 1289 603 
Q 1406 481 1766 481 
L 2356 481 
L 2356 0 
L 1766 0 
Q 1100 0 847 248 
Q 594 497 594 1153 
L 594 3053 
L 172 3053 
L 172 3500 
L 594 3500 
L 594 4494 
L 1172 4494 
z
" id="DejaVuSans-74" transform="scale(0.015625)"/>
       <path d="M 2834 3397 
L 2834 2853 
Q 2591 2978 2328 3040 
Q 2066 3103 1784 3103 
Q 1356 3103 1142 2972 
Q 928 2841 928 2578 
Q 928 2378 1081 2264 
Q 1234 2150 1697 2047 
L 1894 2003 
Q 2506 1872 2764 1633 
Q 3022 1394 3022 966 
Q 3022 478 2636 193 
Q 2250 -91 1575 -91 
Q 1294 -91 989 -36 
Q 684 19 347 128 
L 347 722 
Q 666 556 975 473 
Q 1284 391 1588 391 
Q 1994 391 2212 530 
Q 2431 669 2431 922 
Q 2431 1156 2273 1281 
Q 2116 1406 1581 1522 
L 1381 1569 
Q 847 1681 609 1914 
Q 372 2147 372 2553 
Q 372 3047 722 3315 
Q 1072 3584 1716 3584 
Q 2034 3584 2315 3537 
Q 2597 3491 2834 3397 
z
" id="DejaVuSans-73" transform="scale(0.015625)"/>
       <path d="M 513 4856 
L 1013 4856 
Q 1481 4119 1714 3412 
Q 1947 2706 1947 2009 
Q 1947 1309 1714 600 
Q 1481 -109 1013 -844 
L 513 -844 
Q 928 -128 1133 580 
Q 1338 1288 1338 2009 
Q 1338 2731 1133 3434 
Q 928 4138 513 4856 
z
" id="DejaVuSans-29" transform="scale(0.015625)"/>
       <path id="DejaVuSans-20" transform="scale(0.015625)"/>
       <path d="M 1625 4666 
L 2156 4666 
L 531 -594 
L 0 -594 
L 1625 4666 
z
" id="DejaVuSans-2f" transform="scale(0.015625)"/>
       <path d="M 2906 2969 
L 2906 4863 
L 3481 4863 
L 3481 0 
L 2906 0 
L 2906 525 
Q 2725 213 2448 61 
Q 2172 -91 1784 -91 
Q 1150 -91 751 415 
Q 353 922 353 1747 
Q 353 2572 751 3078 
Q 1150 3584 1784 3584 
Q 2172 3584 2448 3432 
Q 2725 3281 2906 2969 
z
M 947 1747 
Q 947 1113 1208 752 
Q 1469 391 1925 391 
Q 2381 391 2643 752 
Q 2906 1113 2906 1747 
Q 2906 2381 2643 2742 
Q 2381 3103 1925 3103 
Q 1469 3103 1208 2742 
Q 947 2381 947 1747 
z
" id="DejaVuSans-64" transform="scale(0.015625)"/>
       <path d="M 2194 1759 
Q 1497 1759 1228 1600 
Q 959 1441 959 1056 
Q 959 750 1161 570 
Q 1363 391 1709 391 
Q 2188 391 2477 730 
Q 2766 1069 2766 1631 
L 2766 1759 
L 2194 1759 
z
M 3341 1997 
L 3341 0 
L 2766 0 
L 2766 531 
Q 2569 213 2275 61 
Q 1981 -91 1556 -91 
Q 1019 -91 701 211 
Q 384 513 384 1019 
Q 384 1609 779 1909 
Q 1175 2209 1959 2209 
L 2766 2209 
L 2766 2266 
Q 2766 2663 2505 2880 
Q 2244 3097 1772 3097 
Q 1472 3097 1187 3025 
Q 903 2953 641 2809 
L 641 3341 
Q 956 3463 1253 3523 
Q 1550 3584 1831 3584 
Q 2591 3584 2966 3190 
Q 3341 2797 3341 1997 
z
" id="DejaVuSans-61" transform="scale(0.015625)"/>
       <path d="M 2059 -325 
Q 1816 -950 1584 -1140 
Q 1353 -1331 966 -1331 
L 506 -1331 
L 506 -850 
L 844 -850 
Q 1081 -850 1212 -737 
Q 1344 -625 1503 -206 
L 1606 56 
L 191 3500 
L 800 3500 
L 1894 763 
L 2988 3500 
L 3597 3500 
L 2059 -325 
z
" id="DejaVuSans-79" transform="scale(0.015625)"/>
      </defs>
      <use xlink:href="#DejaVuSans-6c"/>
      <use x="27.783203" xlink:href="#DejaVuSans-6f"/>
      <use x="88.964844" xlink:href="#DejaVuSans-67"/>
      <use x="152.441406" xlink:href="#DejaVuSans-28"/>
      <use x="191.455078" xlink:href="#DejaVuSans-54"/>
      <use x="236.039062" xlink:href="#DejaVuSans-77"/>
      <use x="317.826172" xlink:href="#DejaVuSans-65"/>
      <use x="379.349609" xlink:href="#DejaVuSans-65"/>
      <use x="440.873047" xlink:href="#DejaVuSans-74"/>
      <use x="480.082031" xlink:href="#DejaVuSans-73"/>
      <use x="532.181641" xlink:href="#DejaVuSans-29"/>
      <use x="571.195312" xlink:href="#DejaVuSans-20"/>
      <use x="602.982422" xlink:href="#DejaVuSans-2f"/>
      <use x="636.673828" xlink:href="#DejaVuSans-20"/>
      <use x="668.460938" xlink:href="#DejaVuSans-64"/>
      <use x="731.9375" xlink:href="#DejaVuSans-61"/>
      <use x="793.216797" xlink:href="#DejaVuSans-79"/>
     </g>
    </g>
   </g>
   <g id="line2d_49">
    <path clip-path="url(#p461cfe904b)" d="M 55.512445 207.023515 
L 56.043602 159.550841 
L 56.30918 150.841282 
L 56.574759 124.369916 
L 56.840337 122.302576 
L 57.105915 123.24349 
L 57.238705 121.372925 
L 57.504283 128.179726 
L 58.03544 126.359226 
L 58.168229 128.478141 
L 58.433807 134.944426 
L 58.566596 135.003514 
L 58.699386 136.412147 
L 58.964964 134.593455 
L 59.230542 126.948152 
L 59.363331 126.908356 
L 59.62891 120.953203 
L 59.761699 121.55549 
L 59.894488 121.222029 
L 60.160066 126.749944 
L 60.292856 125.900053 
L 60.558434 130.461247 
L 60.691223 130.699329 
L 60.824012 131.233123 
L 61.089591 129.993277 
L 61.22238 130.89182 
L 61.355169 133.247126 
L 61.620747 131.630322 
L 61.753537 131.882566 
L 62.019115 129.854958 
L 62.284693 126.436772 
L 62.417483 128.824631 
L 62.550272 128.22209 
L 62.683061 128.13745 
L 62.948639 131.381166 
L 63.214218 135.543169 
L 63.347007 134.477797 
L 63.612585 129.445554 
L 63.878164 128.737454 
L 64.143742 124.546158 
L 64.276531 124.903286 
L 64.542109 130.319723 
L 64.807688 122.946801 
L 64.940477 124.021945 
L 65.338845 118.443843 
L 65.471634 117.798392 
L 65.737212 122.081829 
L 65.870001 123.850165 
L 66.268369 133.965316 
L 66.401158 134.885509 
L 66.533947 137.654138 
L 66.799525 86.230109 
L 67.065104 83.718485 
L 67.463471 82.444389 
L 67.596261 89.547509 
L 67.861839 117.370892 
L 68.392996 123.21031 
L 68.924152 120.658613 
L 69.189731 121.132025 
L 69.32252 121.042418 
L 69.588098 125.78686 
L 69.853677 122.081829 
L 69.986466 121.86345 
L 70.119255 122.113218 
L 70.517623 107.87838 
L 70.783201 110.068225 
L 71.048779 109.536353 
L 71.181568 112.918408 
L 71.447147 124.65264 
L 71.712725 125.19357 
L 72.243882 132.977509 
L 72.376671 131.282351 
L 72.50946 131.331699 
L 72.642249 129.90096 
L 72.907828 123.815982 
L 73.173406 120.717191 
L 73.306195 120.512902 
L 73.438984 119.799591 
L 73.571774 113.119355 
L 73.837352 115.06755 
L 73.970141 114.671425 
L 74.10293 114.649642 
L 74.368509 117.025452 
L 74.501298 125.488053 
L 74.766876 127.554626 
L 75.032455 133.686082 
L 75.165244 132.137975 
L 75.430822 133.575453 
L 76.360346 124.86729 
L 76.493136 125.414032 
L 76.625925 124.33485 
L 77.024292 129.490638 
L 77.289871 132.137975 
L 77.555449 130.988753 
L 77.821027 127.391125 
L 78.086606 123.310012 
L 78.219395 123.713777 
L 78.352184 123.578297 
L 78.484973 122.366089 
L 78.617763 123.045217 
L 78.883341 118.496374 
L 79.01613 119.301056 
L 79.281708 119.65988 
L 79.680076 127.10812 
L 79.945654 134.248433 
L 80.344022 138.479487 
L 80.476811 137.519776 
L 80.6096 139.121229 
L 80.742389 137.586846 
L 81.007968 122.783823 
L 81.273546 121.925606 
L 81.406335 121.832444 
L 81.539124 122.525743 
L 81.671914 121.987951 
L 82.070281 131.730845 
L 82.20307 131.430754 
L 82.33586 131.680522 
L 82.468649 130.651489 
L 82.601438 131.430754 
L 82.734227 135.911055 
L 82.999805 131.037393 
L 83.132595 131.135023 
L 83.265384 130.89182 
L 83.663751 124.723939 
L 83.92933 127.802367 
L 84.194908 126.243458 
L 84.327697 125.266792 
L 84.726065 130.843527 
L 84.858854 131.430754 
L 84.991643 132.977509 
L 85.124432 136.348832 
L 85.257222 142.934202 
L 85.5228 144.76106 
L 85.655589 141.746443 
L 85.788378 142.847025 
L 85.921167 141.664197 
L 86.186746 136.47566 
L 86.319535 135.36169 
L 86.452324 132.396629 
L 86.585113 132.658612 
L 86.850692 131.282351 
L 86.983481 127.391125 
L 87.11627 127.472711 
L 87.249059 127.06801 
L 87.381848 128.650649 
L 87.514638 97.709307 
L 87.780216 94.3869 
L 87.913005 94.499854 
L 88.178583 91.191649 
L 88.311373 90.455532 
L 88.444162 105.522481 
L 88.576951 107.722873 
L 88.70974 107.293668 
L 88.842529 107.507139 
L 88.975319 110.865899 
L 89.108108 111.011039 
L 89.373686 113.30192 
L 89.639264 95.941278 
L 89.904843 92.815826 
L 90.037632 92.980349 
L 90.170421 92.31555 
L 90.30321 92.468739 
L 90.568789 103.777962 
L 90.701578 103.026277 
L 90.967156 106.446935 
L 91.099945 107.800478 
L 91.232735 107.568545 
L 91.365524 107.691913 
L 91.763891 124.939346 
L 92.02947 125.084228 
L 92.162259 126.090118 
L 92.427837 113.692796 
L 92.560626 112.444076 
L 93.091783 102.78176 
L 93.357362 108.12969 
L 93.490151 108.40015 
L 93.755729 111.752681 
L 94.021307 118.894739 
L 94.286886 119.328435 
L 94.419675 119.65988 
L 94.685253 124.903286 
L 94.950832 125.047911 
L 95.614778 130.413963 
L 95.747567 128.824631 
L 95.880356 129.355682 
L 96.145934 127.760867 
L 96.278723 129.000113 
L 96.411513 129.000113 
L 96.544302 128.13745 
L 96.677091 128.264542 
L 96.942669 126.671198 
L 97.075459 126.128344 
L 97.208248 125.047911 
L 97.473826 121.739707 
L 97.606615 121.252119 
L 97.872194 119.273715 
L 98.137772 120.454908 
L 98.270561 120.138862 
L 98.668929 109.964192 
L 98.801718 108.641812 
L 98.934507 108.480386 
L 99.067296 108.560939 
L 99.200085 109.05107 
L 99.332875 112.191688 
L 99.465664 110.974657 
L 99.731242 119.604263 
L 99.864031 119.164714 
L 99.996821 117.696993 
L 100.262399 119.410791 
L 100.527977 127.472711 
L 100.660766 127.885622 
L 101.059134 132.086636 
L 101.191923 132.764357 
L 101.457501 132.189444 
L 101.72308 131.037393 
L 101.855869 131.831867 
L 101.988658 131.933392 
L 102.121447 130.940229 
L 102.254237 131.086149 
L 102.652604 136.097522 
L 102.785393 133.192916 
L 102.918182 133.853162 
L 103.31655 140.938567 
L 103.449339 140.237915 
L 103.582128 138.905059 
L 103.714918 142.76022 
L 103.847707 141.746443 
L 104.113285 143.375777 
L 104.246074 139.413074 
L 104.511653 139.634736 
L 104.644442 139.56058 
L 104.777231 141.097597 
L 105.042809 134.477797 
L 105.175599 135.36169 
L 105.308388 134.477797 
L 105.441177 134.420213 
L 105.573966 134.021625 
L 105.839544 131.580247 
L 105.972334 131.530294 
L 106.105123 131.730845 
L 106.370701 132.764357 
L 106.63628 132.035427 
L 106.769069 132.189444 
L 106.901858 131.530294 
L 107.167436 128.607385 
L 107.300225 128.349713 
L 107.565804 129.177121 
L 107.698593 129.000113 
L 107.831382 129.535823 
L 107.964171 130.699329 
L 108.09696 130.843527 
L 108.22975 131.331699 
L 108.362539 130.556146 
L 108.495328 130.747282 
L 108.628117 124.056475 
L 108.760906 123.443713 
L 109.292063 115.630835 
L 109.424852 114.433089 
L 109.557641 117.123552 
L 109.690431 109.877902 
L 110.487166 118.313105 
L 110.619955 130.039592 
L 110.752744 128.780996 
L 110.885533 125.862252 
L 111.018322 125.599592 
L 111.151112 125.599592 
L 111.283901 124.831358 
L 111.549479 125.975866 
L 111.682268 125.937924 
L 111.815058 129.132725 
L 112.080636 127.595708 
L 112.213425 127.431877 
L 112.479003 126.051962 
L 112.611793 126.320563 
L 112.744582 123.276724 
L 112.877371 123.815982 
L 113.01016 123.713777 
L 113.142949 122.207677 
L 113.275739 122.176142 
L 113.408528 122.493712 
L 113.541317 123.144112 
L 113.674106 126.828996 
L 113.806895 126.868637 
L 113.939684 127.309864 
L 114.205263 129.90096 
L 115.001998 121.586077 
L 115.798733 103.236451 
L 115.931522 102.600281 
L 116.064311 103.211612 
L 116.32989 106.903065 
L 116.595468 109.317381 
L 116.728257 113.342713 
L 116.861046 113.404057 
L 116.993836 112.076249 
L 117.392203 116.446575 
L 117.657781 119.056294 
L 118.056149 128.349713 
L 118.188938 128.264542 
L 118.321727 128.392432 
L 118.454517 129.000113 
L 118.587306 130.413963 
L 118.720095 127.719452 
L 118.985673 118.681308 
L 119.118462 117.74763 
L 119.251252 117.74763 
L 119.649619 116.116346 
L 119.782408 120.425973 
L 119.915198 119.96852 
L 120.047987 119.912054 
L 120.313565 118.470092 
L 120.446354 118.707865 
L 120.579143 119.771572 
L 120.711933 119.771572 
L 120.977511 122.589957 
L 121.243089 123.713777 
L 121.375878 122.686659 
L 121.641457 125.084228 
L 121.907035 128.956101 
L 122.039824 128.86836 
L 122.172614 130.179176 
L 122.305403 130.366788 
L 122.438192 129.80906 
L 122.70377 122.4298 
L 122.836559 120.397079 
L 122.969349 120.805375 
L 123.102138 119.940267 
L 123.234927 121.464003 
L 123.367716 121.012636 
L 123.500505 121.372925 
L 123.633295 119.996811 
L 123.766084 120.541961 
L 123.898873 119.632052 
L 124.29724 114.154971 
L 124.43003 113.018634 
L 124.562819 113.589204 
L 124.695608 113.261208 
L 124.828397 113.486137 
L 125.359554 122.239261 
L 125.625132 126.436772 
L 125.890711 127.472711 
L 126.0235 127.843952 
L 126.156289 127.760867 
L 126.421867 124.264898 
L 126.554657 125.562345 
L 126.687446 125.711746 
L 127.085813 127.188578 
L 127.218602 129.310895 
L 127.351392 128.956101 
L 127.484181 127.228926 
L 127.749759 121.312433 
L 127.882548 120.512902 
L 128.015337 116.18666 
L 128.148127 116.304392 
L 128.280916 115.999693 
L 128.413705 116.163195 
L 128.679283 120.081923 
L 128.812073 121.252119 
L 129.077651 128.521131 
L 129.343229 131.882566 
L 129.608808 130.988753 
L 129.874386 127.719452 
L 130.139964 125.011658 
L 130.538332 126.359226 
L 130.671121 125.011658 
L 130.936699 126.671198 
L 131.202278 125.975866 
L 131.335067 126.631939 
L 131.467856 125.451009 
L 131.733435 127.188578 
L 131.999013 132.292773 
L 132.264591 131.984345 
L 132.662959 137.319881 
L 132.795748 133.520362 
L 132.928537 133.797316 
L 133.194116 135.911055 
L 133.725272 131.730845 
L 133.990851 130.699329 
L 134.256429 124.723939 
L 134.522007 125.711746 
L 134.787586 127.391125 
L 134.920375 128.264542 
L 135.185953 136.47566 
L 135.318742 138.131516 
L 135.451532 136.79623 
L 135.71711 132.870654 
L 135.982688 130.747282 
L 136.115477 130.603762 
L 136.248267 130.795347 
L 136.381056 130.132541 
L 136.513845 131.984345 
L 136.646634 132.086636 
L 136.912213 128.478141 
L 137.177791 126.128344 
L 137.31058 126.243458 
L 137.443369 124.688258 
L 137.576158 121.708888 
L 137.974526 124.546158 
L 138.107315 124.369916 
L 138.240104 120.775938 
L 138.372894 120.687881 
L 138.638472 123.111094 
L 139.302418 117.222128 
L 139.567996 112.172403 
L 139.700785 111.828353 
L 139.966364 110.56087 
L 140.364731 113.859648 
L 140.49752 113.547915 
L 140.63031 113.672036 
L 140.763099 114.390054 
L 140.895888 113.018634 
L 141.028677 112.818673 
L 141.161466 112.385555 
L 141.294255 109.877902 
L 141.427045 110.155327 
L 141.692623 110.225279 
L 141.958201 112.42455 
L 142.090991 111.249121 
L 142.356569 114.390054 
L 142.489358 113.713578 
L 142.754936 109.809132 
L 142.887726 109.334142 
L 143.020515 109.860687 
L 143.153304 111.434176 
L 143.286093 110.632232 
L 143.418882 111.230708 
L 143.950039 118.575426 
L 144.082828 118.81444 
L 144.215617 119.687745 
L 144.348407 119.604263 
L 144.481196 120.746543 
L 144.613985 120.600203 
L 145.145142 109.655244 
L 145.277931 109.757707 
L 145.543509 107.73837 
L 145.676298 107.753879 
L 145.809088 108.625612 
L 146.207455 114.218815 
L 146.340244 114.95674 
L 146.473034 115.000992 
L 146.738612 118.3653 
L 147.269769 115.112044 
L 147.535347 95.266533 
L 147.800925 93.466662 
L 148.199293 90.803389 
L 148.332082 96.247518 
L 148.59766 93.87053 
L 148.73045 92.134673 
L 148.996028 83.284865 
L 149.128817 83.34558 
L 149.261606 82.915169 
L 149.394395 84.754329 
L 149.527185 84.895165 
L 149.659974 86.305701 
L 149.925552 96.865086 
L 150.058341 99.20254 
L 150.456709 112.541988 
L 150.722287 118.470092 
L 150.987866 122.461731 
L 151.253444 124.617084 
L 151.651812 135.122207 
L 151.784601 134.944426 
L 152.182968 139.858839 
L 152.315757 129.310895 
L 152.979703 122.654374 
L 153.112493 122.848858 
L 153.245282 127.719452 
L 153.51086 123.679822 
L 153.643649 124.795488 
L 153.776438 124.369916 
L 153.909228 124.58159 
L 154.042017 124.510787 
L 154.307595 128.349713 
L 154.573173 132.086636 
L 154.971541 137.386295 
L 156.033854 123.815982 
L 156.565011 128.650649 
L 156.6978 129.221615 
L 156.963379 131.680522 
L 157.096168 131.381166 
L 157.228957 130.272766 
L 157.361746 130.272766 
L 157.494535 130.556146 
L 157.627325 132.344635 
L 157.892903 132.711416 
L 158.025692 132.711416 
L 158.158481 134.593455 
L 158.42406 131.730845 
L 158.556849 131.233123 
L 158.955216 126.243458 
L 159.088006 125.12061 
L 159.220795 126.631939 
L 159.353584 126.166643 
L 159.486373 124.16042 
L 159.751952 125.975866 
L 159.884741 125.78686 
L 160.01753 123.477275 
L 160.150319 123.310012 
L 160.283108 124.056475 
L 160.415897 125.900053 
L 160.548687 124.264898 
L 160.681476 124.617084 
L 160.814265 124.299844 
L 160.947054 125.749268 
L 161.212632 120.571061 
L 161.345422 117.420723 
L 161.478211 117.148152 
L 161.611 117.370892 
L 161.743789 113.880601 
L 161.876578 113.527301 
L 162.142157 115.722425 
L 162.274946 117.722296 
L 162.407735 117.470676 
L 162.540524 116.685776 
L 162.806103 120.775938 
L 162.938892 120.658613 
L 163.20447 122.493712 
L 163.735627 127.472711 
L 164.133994 130.747282 
L 164.532362 125.12061 
L 164.665151 124.65264 
L 164.79794 123.510893 
L 165.063519 116.139757 
L 165.727465 118.339186 
L 165.993043 123.443713 
L 166.391411 126.948152 
L 166.5242 126.128344 
L 166.656989 126.090118 
L 166.789778 127.06801 
L 167.188146 123.781857 
L 167.320935 121.161982 
L 167.586513 112.898422 
L 167.719302 112.600962 
L 167.984881 114.32567 
L 168.250459 115.791389 
L 168.516037 125.084228 
L 168.648827 125.78686 
L 168.781616 127.10812 
L 169.047194 125.266792 
L 169.445562 129.132725 
L 169.71114 130.843527 
L 170.109508 123.815982 
L 170.640664 119.96852 
L 170.906243 124.16042 
L 171.039032 122.589957 
L 171.171821 122.686659 
L 171.30461 122.525743 
L 171.437399 121.494453 
L 171.835767 114.519434 
L 171.968556 116.518041 
L 172.101345 116.092962 
L 172.366924 116.830658 
L 172.499713 118.391447 
L 172.765291 123.679822 
L 172.89808 124.230013 
L 173.163659 127.554626 
L 173.296448 127.513628 
L 173.694815 131.331699 
L 173.960394 129.221615 
L 174.225972 128.912183 
L 174.358761 129.717573 
L 174.49155 127.431877 
L 174.757129 122.176142 
L 175.155496 123.918703 
L 175.288286 123.111094 
L 175.421075 124.65264 
L 175.686653 132.658612 
L 175.819442 133.192916 
L 175.952231 132.870654 
L 176.085021 133.13885 
L 176.21781 134.248433 
L 176.483388 131.430754 
L 176.616177 131.430754 
L 176.881756 130.843527 
L 177.014545 130.747282 
L 177.147334 131.086149 
L 177.412912 133.686082 
L 177.678491 129.000113 
L 177.81128 128.564212 
L 177.944069 128.607385 
L 178.076858 128.392432 
L 178.209648 126.166643 
L 178.475226 127.309864 
L 178.740804 130.039592 
L 179.006383 129.947066 
L 179.139172 131.831867 
L 179.271961 131.781293 
L 179.537539 133.797316 
L 179.670329 133.301481 
L 179.803118 134.305532 
L 179.935907 133.13885 
L 180.068696 134.078091 
L 180.201485 132.189444 
L 180.334274 127.927378 
L 180.732642 126.553647 
L 180.865431 127.148309 
L 180.99822 126.908356 
L 181.13101 127.188578 
L 181.263799 128.053161 
L 181.396588 127.67812 
L 181.529377 125.674293 
L 181.662166 126.205014 
L 181.794955 125.937924 
L 182.060534 129.80906 
L 182.326112 133.797316 
L 182.458901 136.539371 
L 182.59169 135.604024 
L 182.72448 136.035177 
L 182.990058 131.135023 
L 183.255636 131.781293 
L 183.786793 115.290997 
L 184.052371 113.261208 
L 184.185161 112.620658 
L 184.31795 114.347109 
L 184.583528 120.687881 
L 184.716317 121.987951 
L 184.981896 125.525165 
L 185.247474 126.749944 
L 185.380263 126.243458 
L 185.645842 132.035427 
L 186.176998 127.595708 
L 186.309788 128.22209 
L 186.442577 129.490638 
L 186.840944 123.310012 
L 187.106523 123.177184 
L 187.239312 122.019196 
L 187.637679 115.930021 
L 187.770469 116.830658 
L 188.301625 114.304254 
L 188.434414 112.878455 
L 188.699993 108.496471 
L 189.09836 103.063209 
L 189.231149 103.574783 
L 189.496728 106.873327 
L 189.629517 107.248214 
L 189.762306 109.384506 
L 190.027885 115.745387 
L 190.293463 118.601845 
L 190.559041 125.451009 
L 190.69183 125.084228 
L 191.090198 126.013878 
L 191.222987 121.801484 
L 191.355776 112.483185 
L 191.488566 111.175568 
L 191.621355 111.083999 
L 191.754144 110.418894 
L 191.886933 110.489758 
L 192.019722 109.553295 
L 192.152511 110.95649 
L 192.41809 118.417628 
L 192.949247 123.21031 
L 193.082036 123.884405 
L 193.214825 127.595708 
L 193.347614 127.927378 
L 193.613192 118.209116 
L 193.878771 114.240142 
L 194.01156 114.091326 
L 194.277138 115.722425 
L 194.542717 122.946801 
L 194.675506 125.230148 
L 194.808295 125.488053 
L 194.941084 124.903286 
L 195.073873 123.177184 
L 195.206663 122.914101 
L 195.339452 119.493483 
L 195.472241 120.053513 
L 195.60503 121.770572 
L 195.737819 122.019196 
L 196.003398 123.884405 
L 196.136187 124.903286 
L 196.401765 130.508641 
L 196.667344 128.307083 
L 196.800133 129.400568 
L 197.065711 123.645924 
L 197.331289 122.654374 
L 197.464079 123.144112 
L 197.596868 125.084228 
L 197.729657 124.369916 
L 197.995235 130.413963 
L 198.260814 131.630322 
L 198.393603 130.508641 
L 198.526392 131.086149 
L 198.659181 130.940229 
L 198.92476 123.884405 
L 199.057549 123.510893 
L 199.323127 124.723939 
L 199.455916 124.510787 
L 199.588706 124.125713 
L 199.987073 132.924011 
L 200.119862 133.084927 
L 200.252651 134.305532 
L 200.783808 143.375777 
L 200.916597 142.587712 
L 201.049387 142.847025 
L 201.182176 141.664197 
L 201.580543 134.535544 
L 201.978911 131.086149 
L 202.244489 131.580247 
L 202.510067 133.575453 
L 202.775646 136.47566 
L 203.174013 132.344635 
L 203.306803 132.501018 
L 203.572381 127.595708 
L 203.70517 126.671198 
L 204.103538 129.717573 
L 204.236327 128.13745 
L 204.501905 132.086636 
L 204.634694 132.396629 
L 204.767484 132.292773 
L 204.900273 132.553414 
L 205.033062 132.137975 
L 205.29864 135.726281 
L 205.431429 132.764357 
L 205.564219 132.396629 
L 205.697008 132.977509 
L 205.962586 130.366788 
L 206.095375 130.508641 
L 206.228165 129.854958 
L 206.493743 131.730845 
L 206.626532 131.680522 
L 206.89211 132.924011 
L 207.0249 132.035427 
L 207.157689 132.086636 
L 207.290478 131.530294 
L 207.423267 132.553414 
L 207.556056 132.605945 
L 207.821635 134.593455 
L 207.954424 134.078091 
L 208.485581 128.564212 
L 208.883948 126.359226 
L 209.016737 122.239261 
L 209.282316 122.493712 
L 209.415105 121.770572 
L 209.547894 117.001 
L 209.680683 117.123552 
L 209.813472 118.287058 
L 209.946262 122.816314 
L 210.079051 120.864378 
L 210.21184 121.012636 
L 210.344629 122.207677 
L 210.477418 129.132725 
L 210.875786 120.629387 
L 211.141364 121.925606 
L 211.406943 121.191984 
L 211.672521 125.900053 
L 211.938099 128.737454 
L 212.070888 126.828996 
L 212.203678 126.828996 
L 212.469256 123.21031 
L 212.602045 123.177184 
L 212.734834 123.578297 
L 212.867624 123.410205 
L 213.133202 125.377122 
L 213.531569 129.000113 
L 213.664359 127.513628 
L 213.797148 127.391125 
L 214.195515 125.824521 
L 214.328305 127.719452 
L 214.461094 127.148309 
L 214.726672 129.044221 
L 214.99225 131.882566 
L 215.12504 133.084927 
L 215.257829 132.817436 
L 215.523407 125.230148 
L 215.656196 124.33485 
L 215.921775 120.717191 
L 216.187353 118.522691 
L 216.452931 123.177184 
L 216.585721 122.081829 
L 216.71851 122.019196 
L 216.984088 123.578297 
L 217.116877 125.377122 
L 217.382456 121.042418 
L 217.913612 124.33485 
L 218.046402 122.946801 
L 218.31198 129.947066 
L 218.577558 131.430754 
L 218.710347 130.940229 
L 218.843137 129.266206 
L 218.975926 129.993277 
L 219.108715 129.763265 
L 219.507083 123.713777 
L 219.639872 122.979553 
L 219.772661 123.815982 
L 219.90545 123.21031 
L 220.171028 120.658613 
L 220.569396 123.713777 
L 220.702185 123.177184 
L 220.834974 124.056475 
L 221.100553 127.843952 
L 221.233342 124.795488 
L 221.49892 116.733956 
L 221.631709 116.375359 
L 221.764499 115.023154 
L 221.897288 115.06755 
L 222.030077 114.84653 
L 222.162866 116.830658 
L 222.428444 124.125713 
L 222.561234 123.953059 
L 222.826812 115.585194 
L 222.959601 114.26149 
L 223.09239 114.36857 
L 223.22518 114.802612 
L 223.357969 114.519434 
L 223.490758 114.978854 
L 223.756336 122.62214 
L 223.889125 126.320563 
L 224.021915 126.631939 
L 224.154704 126.013878 
L 224.420282 118.313105 
L 224.685861 116.541918 
L 224.951439 115.134327 
L 225.084228 114.890542 
L 225.349806 120.425973 
L 225.615385 124.617084 
L 225.748174 124.44023 
L 225.880963 124.903286 
L 226.013752 124.475478 
L 226.146542 124.723939 
L 226.544909 123.111094 
L 226.677698 123.612082 
L 227.208855 127.719452 
L 227.740012 123.443713 
L 227.872801 123.376753 
L 228.00559 123.679822 
L 228.138379 123.078129 
L 228.271168 123.24349 
L 228.536747 125.047911 
L 228.669536 125.19357 
L 228.802325 125.862252 
L 228.935114 125.674293 
L 229.200693 113.527301 
L 229.333482 112.133887 
L 229.59906 107.676451 
L 229.864639 107.187766 
L 230.130217 114.091326 
L 230.263006 111.733806 
L 230.528584 117.395792 
L 230.794163 115.768375 
L 230.926952 115.562412 
L 231.059741 118.235064 
L 231.32532 125.525165 
L 231.458109 125.78686 
L 231.723687 131.037393 
L 231.856476 132.448757 
L 231.989265 131.984345 
L 232.254844 134.709774 
L 232.520422 134.191494 
L 232.91879 129.626495 
L 233.051579 129.221615 
L 233.317157 127.06801 
L 233.582736 127.843952 
L 234.246682 132.817436 
L 234.51226 128.13745 
L 234.777838 93.823519 
L 235.043417 92.4541 
L 235.176206 91.962529 
L 235.441784 92.301021 
L 235.707362 119.65988 
L 235.840152 122.270894 
L 236.10573 112.463621 
L 236.238519 112.463621 
L 236.371308 111.752681 
L 236.504098 111.677289 
L 236.769676 110.033488 
L 237.168043 118.81444 
L 237.300833 119.301056 
L 237.433622 118.339186 
L 237.6992 122.525743 
L 237.831989 123.045217 
L 238.230357 121.464003 
L 238.363146 121.042418 
L 238.628724 118.948449 
L 239.29267 123.645924 
L 239.42546 123.578297 
L 239.823827 119.029279 
L 239.956616 119.029279 
L 240.089405 118.654786 
L 240.354984 121.191984 
L 240.620562 126.397962 
L 240.753351 126.090118 
L 241.01893 122.557824 
L 241.151719 122.686659 
L 241.284508 122.176142 
L 241.417297 122.270894 
L 241.550086 122.751383 
L 241.682876 122.270894 
L 241.815665 124.759682 
L 242.081243 121.64739 
L 242.745189 109.05107 
L 242.877978 109.150529 
L 243.010767 108.869982 
L 243.276346 105.788391 
L 243.409135 105.63402 
L 243.807502 110.155327 
L 243.940292 110.401216 
L 244.20587 113.180028 
L 244.338659 112.858509 
L 244.869816 117.823821 
L 245.002605 119.632052 
L 245.135394 119.19191 
L 245.268183 120.864378 
L 245.400973 119.96852 
L 245.533762 117.222128 
L 245.666551 116.806439 
L 245.79934 117.470676 
L 245.932129 116.782249 
L 246.064919 118.681308 
L 246.197708 118.15732 
L 246.330497 118.734457 
L 246.463286 118.15732 
L 246.861654 112.018773 
L 247.127232 104.704869 
L 247.39281 101.339311 
L 247.5256 101.013612 
L 247.791178 103.124912 
L 248.322335 117.074443 
L 248.455124 118.787744 
L 248.587913 116.61372 
L 248.853491 118.948449 
L 248.98628 120.893943 
L 249.11907 121.132025 
L 249.384648 123.443713 
L 249.517437 129.000113 
L 249.783016 129.717573 
L 250.048594 129.310895 
L 250.181383 127.595708 
L 250.314172 127.431877 
L 250.579751 117.900299 
L 251.110907 104.465855 
L 251.243697 104.138479 
L 251.376486 105.662001 
L 251.509275 105.88724 
L 251.642064 107.308842 
L 251.774853 107.461207 
L 252.040432 114.912584 
L 252.173221 114.780689 
L 252.30601 114.824559 
L 252.571588 114.649642 
L 252.704378 113.985691 
L 253.235534 106.828801 
L 253.501113 106.316402 
L 253.633902 107.142548 
L 253.766691 106.828801 
L 253.89948 106.186701 
L 254.032269 108.368144 
L 254.430637 102.660594 
L 254.563426 101.069396 
L 254.961794 103.211612 
L 255.227372 108.01936 
L 255.49295 113.859648 
L 255.625739 113.506708 
L 255.891318 114.912584 
L 256.156896 115.516924 
L 256.422475 115.201324 
L 256.555264 115.883706 
L 256.688053 115.448882 
L 256.953631 113.281554 
L 257.21921 115.860587 
L 257.351999 115.313478 
L 257.617577 115.494218 
L 257.750366 116.758088 
L 257.883156 116.903487 
L 258.281523 107.691913 
L 258.547101 106.229843 
L 258.81268 105.564237 
L 258.945469 107.599317 
L 259.211047 112.699633 
L 259.609415 116.233671 
L 259.874993 115.676578 
L 260.140572 113.692796 
L 260.538939 112.230314 
L 260.804518 109.18379 
L 261.070096 108.544803 
L 261.335674 108.869982 
L 261.468463 109.367704 
L 261.734042 115.313478 
L 261.866831 117.123552 
L 261.99962 117.222128 
L 262.265198 113.506708 
L 262.397988 113.568549 
L 262.530777 112.444076 
L 262.929144 106.917951 
L 263.061934 106.534424 
L 263.194723 106.57831 
L 263.460301 106.403331 
L 263.59309 106.636972 
L 263.725879 107.384882 
L 263.991458 111.771572 
L 264.389825 113.445055 
L 264.522615 113.180028 
L 264.788193 112.057072 
L 264.920982 112.522368 
L 265.053771 112.076249 
L 265.18656 111.029255 
L 265.31935 107.925265 
L 265.452139 107.862776 
L 265.717717 109.100739 
L 265.850506 109.100739 
L 265.983296 108.952096 
L 266.116085 109.167153 
L 266.381663 114.154971 
L 266.514452 114.693231 
L 266.780031 112.076249 
L 267.045609 114.133734 
L 267.178398 113.755206 
L 267.311187 114.347109 
L 267.443977 113.322306 
L 267.576766 114.476216 
L 267.709555 114.197512 
L 267.975133 112.878455 
L 268.107922 113.018634 
L 268.50629 116.233671 
L 268.639079 118.002718 
L 268.771868 117.346022 
L 268.904657 117.621274 
L 269.037447 117.570951 
L 269.568603 112.076249 
L 270.09976 108.35216 
L 270.232549 106.273076 
L 270.498128 106.490632 
L 270.630917 106.10069 
L 270.896495 106.932847 
L 271.029284 107.127497 
L 271.162074 109.200441 
L 271.294863 109.133919 
L 271.560441 107.553176 
L 271.69323 107.369651 
L 271.958809 104.268798 
L 272.224387 100.693041 
L 272.357176 100.791989 
L 272.489965 102.480187 
L 272.622755 102.552158 
L 273.153911 105.676006 
L 273.2867 105.480811 
L 273.41949 105.69002 
L 273.685068 106.60762 
L 273.817857 108.336188 
L 274.083436 113.200293 
L 274.216225 113.568549 
L 274.481803 109.655244 
L 274.614592 109.638217 
L 274.880171 108.755578 
L 275.01296 108.512569 
L 275.145749 109.067613 
L 275.411327 111.904307 
L 275.544117 111.490021 
L 275.676906 112.288391 
L 275.809695 111.92334 
L 276.208062 109.485612 
L 276.340852 109.519425 
L 276.473641 109.809132 
L 276.60643 109.502511 
L 277.137587 115.201324 
L 277.270376 114.84653 
L 277.403165 113.568549 
L 277.668743 113.964629 
L 278.1999 106.505219 
L 278.465478 107.893996 
L 278.731057 100.880349 
L 278.863846 99.907753 
L 279.129424 96.801573 
L 279.262214 96.504797 
L 279.395003 95.165969 
L 279.660581 99.87612 
L 279.79337 101.361967 
L 280.058949 110.242804 
L 280.191738 109.706411 
L 280.722895 101.114134 
L 281.121262 99.233142 
L 281.254051 100.769959 
L 281.785208 79.581336 
L 281.917997 79.546377 
L 282.050786 79.253538 
L 282.183576 79.376326 
L 282.316365 83.07147 
L 282.581943 97.671454 
L 282.714732 100.056027 
L 282.847521 99.263791 
L 283.1131 100.066659 
L 283.245889 98.649495 
L 283.378678 98.669345 
L 283.511467 101.373304 
L 284.042624 99.20254 
L 284.175413 101.058227 
L 284.308202 101.013612 
L 284.440992 100.109244 
L 284.573781 100.660165 
L 284.839359 103.361105 
L 285.237727 97.93792 
L 285.370516 98.033938 
L 285.503305 97.038483 
L 285.636094 97.13955 
L 285.768883 96.810634 
L 286.167251 101.53269 
L 286.30004 101.350636 
L 286.698408 106.201071 
L 286.831197 106.505219 
L 287.096775 104.138479 
L 287.362354 104.758367 
L 287.627932 102.206631 
L 287.760721 101.681818 
L 288.026299 96.028306 
L 288.291878 92.786055 
L 288.557456 91.357369 
L 288.690245 91.350437 
L 288.955824 94.597172 
L 289.221402 97.268911 
L 289.48698 99.760551 
L 289.752559 97.130342 
L 290.150926 101.248942 
L 290.283715 101.215156 
L 290.416505 101.339311 
L 290.814872 108.512569 
L 290.947661 107.645562 
L 291.21324 98.57029 
L 291.478818 97.605379 
L 291.744396 95.350717 
L 291.877186 92.875499 
L 292.142764 96.335868 
L 292.275553 96.203486 
L 292.408342 95.768331 
L 292.541132 95.984746 
L 292.673921 97.483234 
L 292.939499 102.230273 
L 293.205077 103.893147 
L 293.603445 97.928343 
L 293.736234 98.412797 
L 293.869023 98.35405 
L 294.001813 98.639578 
L 294.134602 98.082117 
L 294.532969 107.187766 
L 294.798548 105.342524 
L 294.931337 105.494692 
L 295.462494 95.622472 
L 295.595283 95.871923 
L 295.728072 95.401396 
L 295.860861 95.742515 
L 296.392018 105.830696 
L 296.524807 106.932847 
L 296.790385 110.525283 
L 296.923174 111.175568 
L 297.321542 120.425973 
L 297.58712 124.759682 
L 297.71991 124.723939 
L 298.251066 113.609881 
L 298.649434 111.341438 
L 298.915012 115.000992 
L 299.31338 111.138891 
L 299.446169 111.322941 
L 299.844536 100.077297 
L 300.375693 98.198215 
L 300.90685 109.367704 
L 301.039639 110.436587 
L 301.172428 110.103021 
L 301.305217 110.172793 
L 301.570796 108.193005 
L 301.703585 108.01936 
L 301.836374 107.507139 
L 301.969163 105.494692 
L 302.101953 105.53639 
L 302.234742 104.825437 
L 302.367531 104.879253 
L 302.50032 105.63402 
L 302.633109 105.41155 
L 302.765898 105.439226 
L 302.898688 106.043551 
L 303.031477 105.46694 
L 303.297055 103.013981 
L 303.429844 102.879215 
L 303.562633 100.431507 
L 303.828212 94.435232 
L 303.961001 94.378856 
L 304.09379 95.249737 
L 304.359369 94.051752 
L 304.890525 99.656055 
L 305.156104 99.040098 
L 305.288893 99.274017 
L 305.421682 97.842352 
L 305.554471 98.091767 
L 305.82005 96.221088 
L 306.085628 98.082117 
L 306.218417 97.928343 
L 306.483995 99.572842 
L 306.616785 99.263791 
L 306.749574 96.549486 
L 306.882363 96.142002 
L 307.147941 96.594273 
L 307.41352 95.86327 
L 307.546309 97.89008 
L 307.679098 97.167202 
L 308.077466 91.962529 
L 308.343044 90.796643 
L 308.475833 88.678266 
L 308.741412 90.165765 
L 309.00699 90.682303 
L 309.272568 88.502758 
L 309.538147 89.899418 
L 309.670936 90.382703 
L 309.803725 89.490499 
L 310.202092 91.343508 
L 310.334882 90.993188 
L 310.60046 89.351809 
L 310.733249 90.067916 
L 311.131617 88.544984 
L 311.397195 88.292933 
L 311.529984 88.394578 
L 311.662773 88.812427 
L 311.795563 89.598319 
L 312.19393 94.1549 
L 312.459509 95.673832 
L 312.592298 95.477651 
L 312.725087 95.60538 
L 312.857876 95.418316 
L 313.256244 95.949964 
L 313.389033 95.828695 
L 313.521822 95.528646 
L 313.654611 95.656698 
L 313.7874 95.60538 
L 313.92019 95.099201 
L 314.052979 95.165969 
L 314.185768 96.380187 
L 314.318557 96.513727 
L 314.451346 97.148763 
L 314.584135 96.47803 
L 314.849714 93.451288 
L 314.982503 92.51272 
L 315.115292 90.224701 
L 315.248081 90.172305 
L 315.380871 90.369489 
L 315.51366 91.184774 
L 315.779238 95.20781 
L 315.912027 94.735842 
L 316.044816 96.711183 
L 316.708762 87.967518 
L 316.841551 87.926472 
L 316.974341 86.915185 
L 317.10713 88.09706 
L 317.372708 87.624123 
L 317.505497 88.581247 
L 317.638287 88.18586 
L 317.771076 88.617575 
L 317.903865 90.435644 
L 318.036654 88.800194 
L 318.169443 89.458895 
L 318.435022 92.57887 
L 318.567811 93.100842 
L 318.833389 88.849171 
L 318.966178 90.945572 
L 319.098968 91.1779 
L 319.231757 91.013629 
L 319.364546 89.745109 
L 319.497335 89.604679 
L 319.762913 94.012218 
L 319.895703 93.933381 
L 320.028492 93.435925 
L 320.161281 93.941251 
L 320.426859 95.941278 
L 320.559649 95.191063 
L 320.825227 92.763756 
L 321.090805 92.786055 
L 321.356384 92.483389 
L 321.489173 91.58746 
L 321.754751 89.170422 
L 322.02033 87.38886 
L 322.153119 87.3262 
L 322.684275 81.241146 
L 322.817065 81.76668 
L 322.949854 81.762352 
L 323.215432 79.372477 
L 323.48101 83.13618 
L 323.746589 86.870643 
L 323.879378 87.653001 
L 324.410535 98.005085 
L 324.941691 95.4522 
L 325.340059 91.157294 
L 325.472848 90.120044 
L 325.605637 90.329899 
L 325.871216 89.18288 
L 326.136794 91.081914 
L 326.269583 91.657701 
L 326.402372 93.153783 
L 326.535162 92.94284 
L 326.80074 94.548455 
L 326.933529 95.359155 
L 327.066318 95.477651 
L 327.331897 93.138643 
L 327.464686 93.070652 
L 327.597475 92.534746 
L 327.730264 93.010405 
L 327.863053 92.041248 
L 327.995843 92.80838 
L 328.128632 92.141877 
L 328.261421 92.490718 
L 328.39421 92.228528 
L 328.659789 92.600968 
L 328.925367 93.807872 
L 329.190945 93.784425 
L 329.456524 91.109293 
L 329.589313 90.172305 
L 329.722102 87.354658 
L 329.98768 86.804012 
L 330.120469 86.826198 
L 330.386048 86.338184 
L 330.518837 86.698957 
L 330.651626 88.935164 
L 330.784415 86.721028 
L 331.049994 87.699291 
L 331.182783 89.503154 
L 331.315572 88.9598 
L 331.448361 87.879663 
L 331.58115 87.798007 
L 331.71394 89.880065 
L 331.846729 89.427341 
L 331.979518 88.394578 
L 332.112307 88.376604 
L 332.245096 89.052453 
L 332.377886 89.15175 
L 332.643464 80.65084 
L 332.776253 79.581336 
L 332.909042 76.626459 
L 333.174621 69.334471 
L 333.440199 66.844677 
L 333.572988 62.508484 
L 333.705777 61.891118 
L 333.838567 62.137142 
L 334.104145 65.351603 
L 334.236934 66.157703 
L 334.369723 69.093847 
L 334.635302 78.991271 
L 335.033669 84.171283 
L 335.166458 84.520094 
L 335.299248 85.375229 
L 335.564826 83.415861 
L 335.697615 83.326879 
L 335.830404 82.080724 
L 335.963193 82.204173 
L 336.095983 82.769151 
L 336.228772 80.663136 
L 336.627139 82.328376 
L 336.759928 83.453444 
L 337.025507 83.19181 
L 337.158296 85.787632 
L 337.291085 85.798182 
L 337.822242 81.359593 
L 337.955031 81.521452 
L 338.486188 75.616331 
L 338.618977 75.848015 
L 338.751766 75.286264 
L 338.884555 74.103005 
L 339.017345 74.330012 
L 339.150134 75.346166 
L 339.548501 81.598573 
L 339.68129 81.931821 
L 339.946869 84.624419 
L 340.079658 84.905263 
L 340.212447 86.284075 
L 340.345236 85.882777 
L 340.610815 84.288523 
L 340.876393 73.816901 
L 341.141971 71.252743 
L 341.274761 70.973207 
L 341.40755 71.159994 
L 341.540339 70.998693 
L 341.805917 77.206242 
L 341.938707 78.122576 
L 342.071496 77.913759 
L 342.204285 78.224155 
L 342.469863 79.81201 
L 342.735442 61.447654 
L 343.133809 57.724656 
L 343.399387 55.898631 
L 343.664966 67.86156 
L 343.797755 68.386343 
L 344.328912 74.399214 
L 344.461701 74.174418 
L 344.59449 74.908861 
L 344.860068 79.326354 
L 344.992858 79.796288 
L 345.125647 80.774135 
L 345.789593 96.07196 
L 346.055171 98.169129 
L 346.453539 94.330657 
L 346.586328 93.621049 
L 346.984695 79.002604 
L 347.117485 79.29183 
L 347.250274 79.146703 
L 347.383063 78.643044 
L 347.648641 76.562674 
L 347.78143 77.650411 
L 348.047009 76.392443 
L 348.312587 73.026982 
L 348.445376 71.617506 
L 348.710955 75.270529 
L 348.976533 74.653968 
L 349.109322 75.568394 
L 349.374901 74.471676 
L 349.50769 74.025922 
L 349.640479 73.021348 
L 349.773268 72.920201 
L 349.906057 71.789107 
L 350.038846 72.261147 
L 350.171636 72.236741 
L 350.437214 74.014089 
L 350.835582 79.063153 
L 350.968371 79.507604 
L 351.10116 80.345833 
L 351.366738 78.079196 
L 351.897895 72.228613 
L 352.030684 72.561829 
L 352.296263 70.710025 
L 352.429052 70.991044 
L 352.561841 70.942666 
L 352.69463 72.37543 
L 352.827419 72.361791 
L 352.960208 70.245198 
L 353.092998 70.800742 
L 353.225787 72.482126 
L 353.358576 72.266575 
L 353.756944 71.232096 
L 354.022522 74.663126 
L 354.155311 74.660073 
L 354.2881 75.270529 
L 354.686468 78.580029 
L 354.819257 78.617073 
L 354.952046 77.860102 
L 355.084835 78.318936 
L 355.350414 80.245171 
L 355.615992 80.948011 
L 355.748781 78.151547 
L 355.88157 78.198713 
L 356.147149 79.596893 
L 356.545516 83.751859 
L 356.943884 102.325117 
L 357.209462 106.417855 
L 357.342251 106.287508 
L 357.475041 106.388817 
L 357.60783 107.202862 
L 357.873408 105.53639 
L 358.006197 105.648006 
L 358.138986 103.473949 
L 358.271776 104.41312 
L 358.404565 104.034821 
L 358.537354 105.10957 
L 358.670143 104.465855 
L 358.802932 104.558472 
L 358.935722 104.008989 
L 359.2013 106.903065 
L 359.334089 107.202862 
L 359.466878 106.057821 
L 359.599667 107.369651 
L 359.732457 106.403331 
L 359.998035 107.142548 
L 360.130824 106.476056 
L 360.263613 107.233085 
L 360.396403 106.636972 
L 360.79477 102.325117 
L 360.927559 88.587297 
L 361.193138 87.099959 
L 361.325927 86.660388 
L 361.591505 82.796449 
L 361.724294 82.552068 
L 361.857084 87.275076 
L 361.989873 87.252396 
L 362.255451 86.512305 
L 362.38824 89.598319 
L 362.521029 89.873618 
L 362.653819 90.810137 
L 362.919397 96.774414 
L 363.184975 92.069948 
L 363.317764 91.855675 
L 363.716132 86.638382 
L 363.848921 86.599928 
L 363.98171 86.365292 
L 364.1145 87.647222 
L 364.247289 87.241065 
L 364.380078 89.85429 
L 364.512867 89.918789 
L 364.645656 92.069948 
L 364.778445 91.191649 
L 364.911235 93.055574 
L 365.442391 89.970535 
L 365.70797 91.33658 
L 365.973548 93.131077 
L 366.239126 90.675597 
L 366.504705 88.90441 
L 366.637494 89.214057 
L 366.903072 88.132534 
L 367.035862 82.426498 
L 367.168651 82.028046 
L 367.434229 78.410488 
L 367.567018 77.597443 
L 367.832597 75.514201 
L 367.965386 80.691856 
L 368.098175 81.300283 
L 368.363753 87.071855 
L 368.496543 87.745686 
L 368.762121 90.343087 
L 368.89491 90.548603 
L 369.160488 87.809652 
L 369.293278 87.514761 
L 369.957224 83.689922 
L 370.090013 82.297254 
L 370.222802 82.288371 
L 370.355591 81.944916 
L 370.621169 79.299497 
L 370.753959 78.70998 
L 370.886748 78.765928 
L 371.152326 80.065225 
L 371.285115 80.683646 
L 371.417904 83.943625 
L 371.683483 82.248444 
L 372.08185 80.017507 
L 372.21464 80.069206 
L 372.347429 79.659238 
L 372.480218 81.736404 
L 372.613007 82.028046 
L 372.878585 85.546484 
L 373.011375 86.101172 
L 373.144164 85.845723 
L 373.542531 88.647898 
L 373.675321 88.544984 
L 373.80811 87.38886 
L 374.073688 88.08525 
L 374.339266 84.694268 
L 374.472056 85.31331 
L 374.604845 86.599928 
L 375.003212 84.083794 
L 375.136002 85.277278 
L 375.268791 85.282422 
L 375.40158 85.169561 
L 375.534369 85.277278 
L 375.799947 88.526876 
L 375.932737 87.97926 
L 376.065526 88.787969 
L 376.198315 88.861433 
L 376.596683 87.241065 
L 376.862261 87.821304 
L 376.99505 87.480347 
L 377.260628 90.655493 
L 377.658996 90.264087 
L 377.924574 91.006813 
L 378.057363 88.672189 
L 378.322942 88.173998 
L 378.58852 80.293427 
L 378.721309 80.23714 
L 378.854099 79.573562 
L 378.986888 80.366025 
L 379.252466 76.710693 
L 379.518044 80.061244 
L 379.650834 80.233125 
L 379.783623 79.898698 
L 379.916412 79.051787 
L 380.447569 82.028046 
L 380.580358 80.972972 
L 380.978725 82.574573 
L 381.244304 80.357946 
L 381.377093 80.451052 
L 381.509882 80.217075 
L 382.173828 75.141963 
L 382.306617 75.04529 
L 382.439406 75.138837 
L 382.704985 76.316136 
L 382.837774 77.576294 
L 383.103352 81.823025 
L 383.236142 81.810008 
L 383.368931 82.350635 
L 383.50172 81.805671 
L 383.634509 78.683923 
L 384.298455 76.945002 
L 384.431244 77.154415 
L 384.564033 78.010701 
L 384.696822 70.848784 
L 384.829612 71.224358 
L 385.227979 73.347865 
L 385.360768 73.296411 
L 385.493558 69.299251 
L 385.626347 73.091886 
L 386.024714 67.975549 
L 386.157503 67.478274 
L 386.290293 67.769956 
L 386.555871 74.933598 
L 386.68866 76.266524 
L 386.954239 79.624145 
L 387.087028 79.585224 
L 387.352606 75.526939 
L 387.618184 77.931677 
L 387.750974 77.467373 
L 387.883763 77.42187 
L 388.016552 78.053934 
L 388.28213 81.474465 
L 388.547709 80.745299 
L 388.680498 79.796288 
L 388.813287 79.898698 
L 388.946076 79.694392 
L 389.211655 77.320727 
L 389.344444 76.934758 
L 389.610022 78.591135 
L 389.742811 78.245989 
L 389.875601 77.047723 
L 390.539546 79.946138 
L 390.937914 82.115919 
L 391.070703 82.071935 
L 391.203492 82.283931 
L 391.469071 78.50983 
L 391.60186 78.242348 
L 391.734649 78.307977 
L 392.000227 76.907467 
L 392.133017 74.647865 
L 392.398595 76.187395 
L 392.664173 72.841877 
L 392.796962 72.661207 
L 392.929752 71.635916 
L 393.062541 72.900592 
L 393.19533 72.774981 
L 393.328119 72.928611 
L 393.593698 76.246713 
L 393.726487 76.98945 
L 394.124854 83.025375 
L 394.390433 87.13937 
L 394.7888 93.070652 
L 394.921589 94.776808 
L 395.054379 94.306601 
L 395.187168 94.250579 
L 395.452746 93.389906 
L 395.718324 91.088755 
L 395.983903 82.372918 
L 396.249481 78.63191 
L 396.38227 78.698809 
L 396.647849 75.50147 
L 396.780638 63.752317 
L 396.913427 62.05809 
L 397.179005 62.110757 
L 397.311795 61.728738 
L 397.444584 62.166866 
L 397.577373 61.982619 
L 397.842951 78.384812 
L 398.10853 75.530125 
L 398.241319 75.59075 
L 398.506897 71.343323 
L 398.905265 69.236009 
L 399.170843 68.136658 
L 399.436421 70.93758 
L 399.569211 71.001243 
L 399.702 70.770458 
L 400.100367 73.015715 
L 400.233157 72.628027 
L 400.365946 70.152025 
L 400.498735 69.822016 
L 400.631524 70.07633 
L 400.764313 69.024294 
L 400.897102 69.221981 
L 401.029892 69.809984 
L 401.162681 71.216624 
L 401.29547 74.504974 
L 401.428259 74.65702 
L 401.561048 75.023524 
L 401.826627 77.432362 
L 402.092205 76.47905 
L 402.490573 77.092396 
L 402.756151 76.663479 
L 403.021729 77.586866 
L 403.154519 77.569249 
L 403.287308 77.749656 
L 403.420097 78.561532 
L 403.552886 70.91979 
L 403.951254 68.072503 
L 404.349621 64.242276 
L 404.48241 69.086881 
L 404.615199 69.147333 
L 404.747989 69.993632 
L 404.880778 70.010631 
L 405.013567 70.156918 
L 405.544724 67.639803 
L 405.677513 67.769956 
L 405.810302 63.601039 
L 405.943091 63.165979 
L 406.341459 64.275241 
L 406.474248 64.566913 
L 406.607037 64.304588 
L 406.872616 69.207964 
L 407.005405 70.594695 
L 407.138194 70.178952 
L 407.536561 70.879185 
L 407.669351 72.010354 
L 408.067718 65.207187 
L 408.333297 62.577501 
L 408.466086 62.171824 
L 408.598875 61.212929 
L 408.731664 62.306153 
L 408.864453 62.028525 
L 409.130032 65.226383 
L 409.262821 66.228191 
L 409.39561 66.167758 
L 409.793978 62.707754 
L 410.059556 56.663409 
L 410.192345 55.930233 
L 410.325134 55.859802 
L 410.590713 57.099321 
L 410.723502 58.490847 
L 410.98908 65.549667 
L 411.520237 67.938213 
L 411.653026 66.917589 
L 411.918604 61.67221 
L 412.316972 59.724911 
L 412.449761 59.573045 
L 412.58255 58.803624 
L 412.980918 63.171187 
L 413.246496 64.321114 
L 413.379285 64.28074 
L 413.644864 65.590685 
L 413.777653 66.526934 
L 413.910442 65.749678 
L 414.043231 65.645505 
L 414.30881 67.371295 
L 414.707177 65.255212 
L 414.972756 64.894923 
L 415.105545 63.852601 
L 415.238334 64.15463 
L 415.371123 66.323231 
L 415.503912 66.46765 
L 415.769491 68.132227 
L 415.90228 67.9119 
L 416.035069 68.586961 
L 416.300647 63.041393 
L 416.433437 62.775749 
L 416.831804 60.941942 
L 416.964593 60.896868 
L 417.230172 65.430985 
L 417.362961 64.262415 
L 417.628539 65.567236 
L 417.761328 66.598714 
L 417.894117 65.430985 
L 418.026907 65.353535 
L 418.159696 65.438747 
L 418.292485 66.724425 
L 418.425274 65.590685 
L 418.690853 60.756071 
L 418.823642 61.803272 
L 419.08922 61.447654 
L 419.222009 60.008291 
L 419.354798 60.786932 
L 419.620377 65.3632 
L 419.753166 65.737858 
L 419.885955 65.777284 
L 419.885955 65.777284 
" style="fill:none;stroke:#7fbf7b;stroke-linecap:square;"/>
   </g>
   <g id="patch_3">
    <path d="M 55.645234 222.205127 
L 55.645234 26.8 
" style="fill:none;stroke:#000000;stroke-linecap:square;stroke-linejoin:miter;stroke-width:0.8;"/>
   </g>
   <g id="patch_4">
    <path d="M 55.645234 222.205127 
L 420.018744 222.205127 
" style="fill:none;stroke:#000000;stroke-linecap:square;stroke-linejoin:miter;stroke-width:0.8;"/>
   </g>
   <g id="text_15">
    <!-- Averaged over 7 days. -->
    <g style="fill:#808080;" transform="translate(75.696401 66.821816)scale(0.12 -0.12)">
     <defs>
      <path d="M 2188 4044 
L 1331 1722 
L 3047 1722 
L 2188 4044 
z
M 1831 4666 
L 2547 4666 
L 4325 0 
L 3669 0 
L 3244 1197 
L 1141 1197 
L 716 0 
L 50 0 
L 1831 4666 
z
" id="DejaVuSans-41" transform="scale(0.015625)"/>
      <path d="M 191 3500 
L 800 3500 
L 1894 563 
L 2988 3500 
L 3597 3500 
L 2284 0 
L 1503 0 
L 191 3500 
z
" id="DejaVuSans-76" transform="scale(0.015625)"/>
      <path d="M 2631 2963 
Q 2534 3019 2420 3045 
Q 2306 3072 2169 3072 
Q 1681 3072 1420 2755 
Q 1159 2438 1159 1844 
L 1159 0 
L 581 0 
L 581 3500 
L 1159 3500 
L 1159 2956 
Q 1341 3275 1631 3429 
Q 1922 3584 2338 3584 
Q 2397 3584 2469 3576 
Q 2541 3569 2628 3553 
L 2631 2963 
z
" id="DejaVuSans-72" transform="scale(0.015625)"/>
      <path d="M 684 794 
L 1344 794 
L 1344 0 
L 684 0 
L 684 794 
z
" id="DejaVuSans-2e" transform="scale(0.015625)"/>
     </defs>
     <use xlink:href="#DejaVuSans-41"/>
     <use x="62.533203" xlink:href="#DejaVuSans-76"/>
     <use x="121.712891" xlink:href="#DejaVuSans-65"/>
     <use x="183.236328" xlink:href="#DejaVuSans-72"/>
     <use x="224.349609" xlink:href="#DejaVuSans-61"/>
     <use x="285.628906" xlink:href="#DejaVuSans-67"/>
     <use x="349.105469" xlink:href="#DejaVuSans-65"/>
     <use x="410.628906" xlink:href="#DejaVuSans-64"/>
     <use x="474.105469" xlink:href="#DejaVuSans-20"/>
     <use x="505.892578" xlink:href="#DejaVuSans-6f"/>
     <use x="567.074219" xlink:href="#DejaVuSans-76"/>
     <use x="626.253906" xlink:href="#DejaVuSans-65"/>
     <use x="687.777344" xlink:href="#DejaVuSans-72"/>
     <use x="728.890625" xlink:href="#DejaVuSans-20"/>
     <use x="760.677734" xlink:href="#DejaVuSans-37"/>
     <use x="824.300781" xlink:href="#DejaVuSans-20"/>
     <use x="856.087891" xlink:href="#DejaVuSans-64"/>
     <use x="919.564453" xlink:href="#DejaVuSans-61"/>
     <use x="980.84375" xlink:href="#DejaVuSans-79"/>
     <use x="1040.023438" xlink:href="#DejaVuSans-73"/>
     <use x="1092.123047" xlink:href="#DejaVuSans-2e"/>
    </g>
   </g>
   <g id="text_16">
    <!-- Greenwashing Tweets (n=943,225) -->
    <g transform="translate(132.293864 20.8)scale(0.12 -0.12)">
     <defs>
      <path d="M 3809 666 
L 3809 1919 
L 2778 1919 
L 2778 2438 
L 4434 2438 
L 4434 434 
Q 4069 175 3628 42 
Q 3188 -91 2688 -91 
Q 1594 -91 976 548 
Q 359 1188 359 2328 
Q 359 3472 976 4111 
Q 1594 4750 2688 4750 
Q 3144 4750 3555 4637 
Q 3966 4525 4313 4306 
L 4313 3634 
Q 3963 3931 3569 4081 
Q 3175 4231 2741 4231 
Q 1884 4231 1454 3753 
Q 1025 3275 1025 2328 
Q 1025 1384 1454 906 
Q 1884 428 2741 428 
Q 3075 428 3337 486 
Q 3600 544 3809 666 
z
" id="DejaVuSans-47" transform="scale(0.015625)"/>
      <path d="M 3513 2113 
L 3513 0 
L 2938 0 
L 2938 2094 
Q 2938 2591 2744 2837 
Q 2550 3084 2163 3084 
Q 1697 3084 1428 2787 
Q 1159 2491 1159 1978 
L 1159 0 
L 581 0 
L 581 3500 
L 1159 3500 
L 1159 2956 
Q 1366 3272 1645 3428 
Q 1925 3584 2291 3584 
Q 2894 3584 3203 3211 
Q 3513 2838 3513 2113 
z
" id="DejaVuSans-6e" transform="scale(0.015625)"/>
      <path d="M 3513 2113 
L 3513 0 
L 2938 0 
L 2938 2094 
Q 2938 2591 2744 2837 
Q 2550 3084 2163 3084 
Q 1697 3084 1428 2787 
Q 1159 2491 1159 1978 
L 1159 0 
L 581 0 
L 581 4863 
L 1159 4863 
L 1159 2956 
Q 1366 3272 1645 3428 
Q 1925 3584 2291 3584 
Q 2894 3584 3203 3211 
Q 3513 2838 3513 2113 
z
" id="DejaVuSans-68" transform="scale(0.015625)"/>
      <path d="M 603 3500 
L 1178 3500 
L 1178 0 
L 603 0 
L 603 3500 
z
M 603 4863 
L 1178 4863 
L 1178 4134 
L 603 4134 
L 603 4863 
z
" id="DejaVuSans-69" transform="scale(0.015625)"/>
      <path d="M 678 2906 
L 4684 2906 
L 4684 2381 
L 678 2381 
L 678 2906 
z
M 678 1631 
L 4684 1631 
L 4684 1100 
L 678 1100 
L 678 1631 
z
" id="DejaVuSans-3d" transform="scale(0.015625)"/>
      <path d="M 750 794 
L 1409 794 
L 1409 256 
L 897 -744 
L 494 -744 
L 750 256 
L 750 794 
z
" id="DejaVuSans-2c" transform="scale(0.015625)"/>
     </defs>
     <use xlink:href="#DejaVuSans-47"/>
     <use x="77.490234" xlink:href="#DejaVuSans-72"/>
     <use x="116.353516" xlink:href="#DejaVuSans-65"/>
     <use x="177.876953" xlink:href="#DejaVuSans-65"/>
     <use x="239.400391" xlink:href="#DejaVuSans-6e"/>
     <use x="302.779297" xlink:href="#DejaVuSans-77"/>
     <use x="384.566406" xlink:href="#DejaVuSans-61"/>
     <use x="445.845703" xlink:href="#DejaVuSans-73"/>
     <use x="497.945312" xlink:href="#DejaVuSans-68"/>
     <use x="561.324219" xlink:href="#DejaVuSans-69"/>
     <use x="589.107422" xlink:href="#DejaVuSans-6e"/>
     <use x="652.486328" xlink:href="#DejaVuSans-67"/>
     <use x="715.962891" xlink:href="#DejaVuSans-20"/>
     <use x="747.75" xlink:href="#DejaVuSans-54"/>
     <use x="792.333984" xlink:href="#DejaVuSans-77"/>
     <use x="874.121094" xlink:href="#DejaVuSans-65"/>
     <use x="935.644531" xlink:href="#DejaVuSans-65"/>
     <use x="997.167969" xlink:href="#DejaVuSans-74"/>
     <use x="1036.376953" xlink:href="#DejaVuSans-73"/>
     <use x="1088.476562" xlink:href="#DejaVuSans-20"/>
     <use x="1120.263672" xlink:href="#DejaVuSans-28"/>
     <use x="1159.277344" xlink:href="#DejaVuSans-6e"/>
     <use x="1222.65625" xlink:href="#DejaVuSans-3d"/>
     <use x="1306.445312" xlink:href="#DejaVuSans-39"/>
     <use x="1370.068359" xlink:href="#DejaVuSans-34"/>
     <use x="1433.691406" xlink:href="#DejaVuSans-33"/>
     <use x="1497.314453" xlink:href="#DejaVuSans-2c"/>
     <use x="1529.101562" xlink:href="#DejaVuSans-32"/>
     <use x="1592.724609" xlink:href="#DejaVuSans-32"/>
     <use x="1656.347656" xlink:href="#DejaVuSans-35"/>
     <use x="1719.970703" xlink:href="#DejaVuSans-29"/>
    </g>
   </g>
  </g>
 </g>
 <defs>
  <clipPath id="p461cfe904b">
   <rect height="195.405127" width="364.37351" x="55.645234" y="26.8"/>
  </clipPath>
 </defs>
</svg>
